<svg width="235" height="200" viewBox="0 0 235 200" fill="none" xmlns="http://www.w3.org/2000/svg">
<path d="M83.3384 197.296C86.2448 198.468 89.4995 202.102 88.1523 205.983C87.4152 208.106 86.1423 209.958 84.534 211.665C81.2667 215.132 77.178 217.792 72.7242 220.08C67.3776 222.826 61.6321 224.741 55.5197 225.864C54.395 226.07 53.2412 226.164 52.0459 226.386C49.6701 226.529 47.3493 226.596 44.9079 226.666C43.9653 226.563 43.1463 226.434 42.3206 226.353C39.123 226.04 36.096 225.253 33.2077 223.966C35.6964 224.103 38.1741 224.502 40.6658 224.575C44.0807 224.674 47.5196 224.536 50.8589 223.841C58.254 222.301 64.6678 219.271 69.9805 214.639C70.9262 213.814 71.8863 212.996 72.7622 212.12C73.9719 210.91 75.2159 209.709 76.2508 208.395C77.879 206.328 79.4361 204.212 80.849 202.037C81.8303 200.526 82.519 198.881 83.3384 197.296Z" fill="url(#paint0_linear_2009_2606)" fill-opacity="0.1"/>
<path d="M40.3631 21.613C39.5748 19.199 39.4471 16.7394 39.6961 14.2559C40.4255 6.9815 44.0787 0.787034 49.1991 -4.85133C52.8232 -8.84196 57.0561 -12.2648 62.1201 -14.8684C64.7034 -16.1966 67.4186 -17.2619 70.5062 -17.6621C71.1577 -17.7484 71.7499 -17.7655 72.453 -17.7858C72.5905 -17.7612 72.6146 -17.7113 72.6439 -17.7089C76.6806 -17.3781 78.8568 -15.1632 80.1145 -12.0424C79.3138 -11.8657 78.6193 -11.7778 77.9273 -11.6767C74.7791 -11.2169 71.7086 -10.5004 68.6932 -9.59706C65.3854 -8.60614 62.2387 -7.31826 59.2057 -5.81349C56.0219 -4.23389 53.128 -2.32789 50.5869 -0.0382517C49.6984 0.762242 48.8845 1.62765 48.0781 2.49241C45.9785 4.7441 44.3452 7.23723 43.1475 9.9315C41.9397 12.6486 41.1348 15.4647 40.7623 18.3581C40.6215 19.452 40.6863 20.5657 40.6573 21.6704C40.6573 21.6704 40.6106 21.6764 40.5629 21.6534C40.4646 21.6246 40.4138 21.6188 40.3631 21.613Z" fill="url(#paint1_linear_2009_2606)" fill-opacity="0.1"/>
<path d="M6.15252 203.375C6.13027 203.283 6.10803 203.191 6.15096 202.954C6.23353 200.749 6.30872 198.688 6.2541 196.629C6.1814 193.889 6.53359 191.185 6.93244 188.475C7.52626 184.441 8.65786 180.535 10.3686 176.733C12.376 172.272 15.1437 168.185 18.7335 164.547C20.9866 162.263 23.4649 160.116 26.0528 158.104C28.9097 155.883 32.0161 153.897 34.998 151.792C38.7816 149.121 42.6702 146.546 46.2825 143.716C48.7934 141.748 51.0825 139.53 53.1732 137.228C56.6469 133.403 59.1276 129.1 60.8021 124.463C61.6374 122.15 62.3193 119.806 62.652 117.41C62.9593 115.198 63.1136 112.964 63.1818 110.737C63.2206 109.468 62.9081 108.195 62.8323 106.921C62.7264 105.142 62.315 103.413 61.8839 101.678C60.7185 96.9879 58.7584 92.5464 56.0745 88.3494C54.7597 86.2933 53.2673 84.3145 51.7435 82.3641C51.2859 81.7784 50.8897 81.0573 50.0238 80.7504C49.94 80.5224 49.7442 80.2768 49.7894 80.0691C50.2631 77.8938 49.9523 75.7256 49.6306 73.5782C49.3435 71.6611 49.5401 69.8191 50.1489 67.9824C52.0343 62.2948 54.0924 56.6539 56.5526 51.1258C57.7272 48.4865 58.7267 45.817 59.1629 42.9766C59.429 44.5454 59.6719 46.1302 59.7543 47.7211C59.8628 49.8155 60.0859 51.8937 60.5095 53.9575C61.0239 56.4637 61.4536 58.985 62.0646 61.4739C63.3863 66.8582 65.5339 71.9888 68.7871 76.7622C70.6817 79.5422 72.9731 82.0641 75.6699 84.2982C77.008 85.4067 78.5155 86.3704 79.9801 87.3635C83.9402 90.0485 88.4616 91.8664 93.1528 93.3785C98.1371 94.985 103.201 96.4133 108.17 98.053C113.843 99.9248 119.46 101.919 125.079 103.907C129.238 105.379 133.368 106.91 137.497 108.443C140.749 109.651 143.98 110.899 147.217 112.135C148.551 112.644 149.869 113.184 151.21 113.678C151.618 113.829 152.08 113.872 152.517 113.964C155.822 117.055 158.162 120.623 159.704 124.581C161.191 128.397 161.824 132.326 161.569 136.333C161.273 140.976 159.758 145.339 157.054 149.39C157.038 149.414 156.979 149.417 156.841 149.461C156.698 148.653 156.592 147.856 156.411 147.072C155.228 141.942 152.121 137.789 147.487 134.436C144.929 132.584 142.116 131.082 139.02 129.94C137.811 129.494 136.755 128.749 135.427 128.497C135.143 128.443 134.858 128.394 134.454 128.227C131.092 127.158 127.792 126.774 124.402 127.452C120.423 128.247 117.445 130.293 115.071 133.028C113.578 134.747 112.442 136.639 111.51 138.636C110.249 141.338 109.485 144.144 109.368 147.017C109.248 149.992 109.441 152.97 110.389 155.891C111.762 160.126 114.125 163.859 117.751 166.976C119.793 168.731 122.236 170.053 124.863 171.07C128.633 172.529 132.666 173.03 136.772 173.057C138.345 173.067 139.941 172.933 141.492 172.698C144.106 172.301 146.731 171.913 149.236 171.106C149.672 170.966 150.175 170.978 150.647 170.92C148.019 172.264 145.684 173.939 143.312 175.579C139.182 178.435 134.822 181.02 130.26 183.351C123.456 186.828 116.066 188.262 108.172 187.853C107.781 187.832 107.373 187.676 107.024 187.507C103.599 185.85 100.461 183.852 97.5422 181.603C94.3511 179.143 91.2364 176.609 87.9795 174.215C83.9326 171.24 79.1962 169.48 73.8884 168.88C71.3173 168.589 68.7246 168.542 66.1491 168.749C61.4196 169.128 56.8855 170.15 52.6614 172.058C52.068 172.326 51.4909 172.487 50.7789 172.503C32.4979 172.901 13.179 183.446 7.32984 200.861C7.0656 201.648 6.83809 202.444 6.49368 203.306C6.31356 203.366 6.23311 203.365 6.15252 203.375Z" fill="url(#paint2_linear_2009_2606)" fill-opacity="0.1"/>
<path d="M140.013 50.7993C141.309 52.381 142.029 54.1812 142.67 56.0046C142.796 56.3649 142.779 56.7981 142.688 57.173C140.254 67.2038 130.816 75.179 119.076 76.9324C109.307 78.3917 100.701 76.2018 93.312 70.3343C92.3817 67.2167 92.3501 64.222 92.8231 61.207C93.0932 59.4854 93.7307 57.8618 94.4517 56.2422C95.6245 53.608 97.4423 51.3224 99.6517 49.293C101.129 47.9362 102.798 46.7176 104.671 45.7121C108.566 43.6204 112.808 42.4778 117.362 42.1624C118.482 42.0848 119.623 42.2348 120.754 42.253C123.832 42.3024 126.719 43.0154 129.519 44.0469C133.261 45.4255 136.392 47.4997 139.053 50.1179C139.198 50.2606 139.483 50.2998 139.702 50.3872C139.702 50.3872 139.701 50.3865 139.702 50.4544C139.806 50.6146 139.91 50.7069 140.013 50.7993Z" fill="url(#paint3_linear_2009_2606)" fill-opacity="0.1"/>
<path d="M155.26 196.701C155.091 196.633 154.922 196.565 154.613 196.441C156.511 195.894 158.246 195.417 159.961 194.896C164.435 193.537 168.712 191.804 172.843 189.791C177.088 187.723 181.12 185.387 184.913 182.743C190.653 178.742 195.709 174.175 200.068 169.031C203.147 165.396 206.772 162.268 211.264 159.936C213.92 158.558 216.749 157.564 219.847 157.394C222.043 157.273 224.173 157.708 226.045 158.819C225.841 159.057 225.621 159.188 225.525 159.369C225.264 159.861 225.082 160.385 224.822 160.878C222.51 165.267 219.911 169.524 216.742 173.495C215.083 175.573 213.358 177.629 211.453 179.539C209.077 181.921 206.577 184.215 203.789 186.264C201.007 188.308 198.077 190.162 194.922 191.735C190.22 194.079 185.225 195.764 179.898 196.745C176.909 197.295 173.893 197.611 170.865 197.764C168.713 197.873 166.535 197.683 164.375 197.555C162.425 197.44 160.48 197.245 158.538 197.053C157.509 196.951 156.52 196.544 155.45 196.757C155.45 196.757 155.484 196.753 155.474 196.725C155.396 196.698 155.328 196.699 155.26 196.701Z" fill="url(#paint4_linear_2009_2606)" fill-opacity="0.1"/>
<path d="M126.723 26.4727C125.153 29.1873 122.462 30.6382 119.183 31.3799C116.032 32.0927 112.824 32.0884 109.612 31.7778C105.479 31.3782 101.583 30.2604 97.7609 28.8875C91.141 26.5097 84.2501 24.9992 77.139 24.2198C73.7877 23.8525 70.4308 23.5961 67.0473 23.6483C65.3177 23.675 63.5818 23.581 61.858 23.6718C56.1791 23.9709 50.5492 24.5751 45.0587 25.9328C44.9053 25.9708 44.7478 25.9965 44.4006 26.0666C44.5883 25.7152 44.7115 25.4844 44.9579 25.2601C45.2602 25.2283 45.4818 25.2352 45.6109 25.1442C46.1201 24.7853 46.5961 24.3918 47.0918 24.0183C50.6128 21.3654 54.4363 19.106 58.6072 17.2687C61.5176 15.9866 64.5066 14.9111 67.6486 14.1321C71.6974 13.1283 75.8116 12.4912 80.0251 12.4009C81.586 12.3675 83.1505 12.4755 84.7125 12.4586C87.3581 12.4299 89.9623 12.7835 92.5389 13.1891C98.5237 14.131 104.248 15.8289 109.786 17.9867C111.4 18.6155 112.959 19.3511 114.528 20.062C118.363 21.7988 122.035 23.7594 125.51 25.9939C125.858 26.2181 126.316 26.3161 126.723 26.4727Z" fill="url(#paint5_linear_2009_2606)" fill-opacity="0.1"/>
<path d="M153.39 113.486C152.982 113.463 152.521 113.42 152.115 113.269C150.778 112.773 149.465 112.23 148.135 111.719C144.909 110.477 141.689 109.224 138.448 108.011C134.334 106.471 130.217 104.934 126.072 103.456C120.473 101.459 114.874 99.4561 109.221 97.5761C104.269 95.9293 99.2221 94.4946 94.2547 92.881C89.5794 91.3624 85.0733 89.5367 81.1263 86.8408C79.6665 85.8438 78.1641 84.8761 76.8303 83.7632C74.1423 81.5202 71.8582 78.9884 69.9695 76.1976C66.7263 71.4057 64.5848 66.2555 63.2662 60.8508C62.6566 58.3525 62.2277 55.8217 61.7144 53.306C61.2917 51.2345 61.0688 49.1485 60.9601 47.0462C60.8775 45.4493 60.635 43.8586 60.3947 42.1994C60.3636 40.5644 60.4015 38.9953 60.4394 37.4262C60.4765 37.4074 60.5137 37.3886 60.5508 37.3698C60.7327 37.768 60.9647 38.1552 61.0882 38.5664C61.7311 40.7059 62.1741 42.8727 62.4872 45.0712C62.7072 46.6166 63.1988 48.1442 63.7013 49.6471C65.1729 54.0482 67.1693 58.271 69.752 62.2821C72.926 67.2116 76.7768 71.7068 81.3591 75.7462C87.9054 81.5169 95.468 86.02 103.983 89.3889C110.476 91.9578 116.911 94.6347 123.393 97.2236C126.103 98.3058 128.863 99.2971 131.611 100.307C136.795 102.213 141.626 104.634 146.104 107.575C148.751 109.313 151.193 111.24 153.39 113.486Z" fill="url(#paint6_linear_2009_2606)" fill-opacity="0.1"/>
<path d="M156.597 196.458C157.606 196.189 158.58 196.583 159.595 196.68C161.51 196.865 163.427 197.052 165.349 197.162C167.48 197.284 169.627 197.466 171.749 197.36C174.734 197.21 177.709 196.903 180.656 196.37C185.91 195.42 190.836 193.789 195.473 191.522C198.586 190.001 201.477 188.21 204.221 186.234C206.972 184.253 209.438 182.036 211.783 179.733C213.662 177.888 215.365 175.901 217.002 173.893C220.13 170.056 222.696 165.943 224.979 161.703C225.236 161.227 225.416 160.721 225.674 160.245C225.768 160.07 225.985 159.943 226.235 159.775C227.614 160.284 228.622 161.108 229.515 162.029C231.215 163.78 232.63 165.655 232.835 168.008C233.001 169.898 232.546 171.708 231.716 173.444C230.461 176.069 228.625 178.393 226.418 180.509C218.504 188.098 208.596 193.125 197.536 196.658C192.536 198.255 187.377 199.333 182.068 199.838C180.061 200.029 178.034 200.174 176.017 200.17C169.251 200.158 162.725 199.165 156.597 196.458Z" fill="url(#paint7_linear_2009_2606)" fill-opacity="0.1"/>
<path d="M127.826 26.4377C127.347 26.3316 126.88 26.2324 126.524 26.0055C122.977 23.7445 119.229 21.7606 115.316 20.0034C113.714 19.2841 112.122 18.5399 110.475 17.9037C104.823 15.7207 98.9793 14.0034 92.8701 13.0513C90.2399 12.6414 87.5815 12.2841 84.8808 12.3138C83.2862 12.3313 81.6892 12.2223 80.0957 12.2566C75.7943 12.349 71.5941 12.9949 67.4606 14.0121C64.2529 14.8014 61.2012 15.8909 58.2298 17.1895C53.9713 19.0505 50.0673 21.3385 46.472 24.025C45.9659 24.4032 45.4798 24.8017 44.9599 25.1651C44.8281 25.2572 44.6019 25.2504 44.3684 25.2356C45.8606 22.8363 47.9049 20.825 50.1574 18.9785C57.2463 13.1678 65.8305 9.74855 75.2152 7.65149C78.9178 6.82414 82.6682 6.18296 86.4928 5.96574C89.8912 5.77272 93.2995 5.50429 96.6977 5.55327C103.405 5.64996 110.008 6.43503 116.357 8.41453C119.545 9.40842 122.551 10.6965 125.117 12.6129C127.643 14.501 129.375 16.8313 129.439 19.786C129.488 22.0577 129.135 24.311 127.826 26.4377Z" fill="url(#paint8_linear_2009_2606)" fill-opacity="0.1"/>
<path d="M170.068 185.803C171.195 183.762 172.41 181.755 173.43 179.674C175.707 175.028 177.21 170.178 177.939 165.163C178.244 163.062 178.359 160.937 178.455 158.819C178.531 157.121 178.525 155.415 178.415 153.719C178.31 152.098 177.992 150.488 177.822 148.868C177.45 145.324 177.883 141.86 179.368 138.535C180.321 136.399 181.774 134.594 184.206 133.549C184.711 133.332 185.261 133.195 185.885 133.104C187.383 136.65 188.68 140.144 189.417 143.769C189.868 145.988 190.282 148.222 190.491 150.466C190.665 152.327 190.532 154.212 190.502 156.086C190.485 157.144 190.508 158.216 190.326 159.256C189.564 163.609 188.345 167.837 185.921 171.753C184.392 174.224 182.616 176.53 180.469 178.608C179.441 179.603 178.32 180.526 177.209 181.453C175.304 183.043 173.185 184.395 170.975 185.637C170.732 185.773 170.373 185.751 170.068 185.803Z" fill="url(#paint9_linear_2009_2606)" fill-opacity="0.1"/>
<path d="M50.0184 80.4954C50.8744 80.7238 51.2657 81.4501 51.7175 82.0401C53.2218 84.0046 54.6953 85.9978 55.9937 88.0687C58.6441 92.2959 60.5808 96.7689 61.734 101.492C62.1604 103.239 62.5676 104.98 62.6734 106.771C62.7493 108.054 63.0585 109.336 63.0212 110.613C62.9557 112.856 62.8053 115.105 62.504 117.332C62.1778 119.743 61.5071 122.103 60.6851 124.431C59.0373 129.099 56.5941 133.43 53.1712 137.279C51.111 139.596 48.8551 141.827 46.3803 143.807C42.8198 146.655 38.9867 149.245 35.2572 151.931C32.3179 154.049 29.2558 156.047 26.4399 158.281C23.8891 160.305 21.4466 162.466 19.2262 164.764C15.6886 168.425 12.9622 172.538 10.9859 177.028C9.3017 180.854 8.18875 184.787 7.6063 188.848C7.21508 191.576 6.86988 194.299 6.94376 197.058C6.99926 199.13 6.92675 201.205 6.85898 203.354C6.52257 201.521 6.1332 199.618 5.98169 197.702C5.80372 195.451 5.69536 193.182 5.79433 190.93C6.30571 179.29 10.3449 168.74 18.8697 159.639C23.462 154.736 28.9744 150.739 35.1395 147.406C39.6487 144.969 43.6412 141.992 47.0855 138.483C51.1681 134.323 54.1428 129.601 56.1356 124.419C57.7339 120.262 58.7066 115.992 58.9119 111.606C59.0205 109.287 59.1701 106.957 59.0279 104.645C58.866 102.013 58.6554 99.3569 57.8293 96.803C57.353 95.3303 56.6596 93.9036 55.9664 92.4924C54.0102 88.5104 52.0035 84.5471 50.0184 80.4954Z" fill="url(#paint10_linear_2009_2606)" fill-opacity="0.1"/>
<path d="M82.2443 197.008C81.5061 198.723 80.8469 200.434 79.9051 202.004C78.5493 204.266 77.0541 206.464 75.4902 208.612C74.4962 209.977 73.3003 211.226 72.1374 212.483C71.2954 213.392 70.3721 214.241 69.4626 215.098C64.3535 219.908 58.178 223.048 51.0518 224.634C47.8341 225.351 44.5185 225.487 41.2253 225.376C38.8225 225.295 36.4322 224.874 33.9793 224.664C33.7566 224.646 33.591 224.57 33.2247 224.402C34.0007 224.171 34.5659 224.001 35.133 223.836C43.3917 221.433 50.6594 217.491 57.074 212.218C59.9903 209.821 62.5305 207.122 64.8618 204.253C67.1455 201.443 69.8855 199.106 73.3237 197.492C74.8361 196.782 76.4193 196.276 78.1351 196.166C79.5692 196.074 80.919 196.349 82.2443 197.008Z" fill="url(#paint11_linear_2009_2606)" fill-opacity="0.1"/>
<path d="M151.849 179.159C156.632 177.778 161.398 177.692 166.309 178.354C165.606 180.064 164.626 181.496 163.483 182.818C158.655 188.403 152.682 192.54 145.123 194.617C141.74 195.547 138.258 195.832 134.739 195.748C128.521 195.6 122.613 194.17 116.898 191.994C116.061 191.676 115.236 191.332 114.409 190.992C114.346 190.966 114.314 190.877 114.232 190.769C115.432 190.14 116.728 190.119 118.037 190.226C118.9 190.297 119.756 190.428 120.616 190.528C123.087 190.816 125.488 190.418 127.816 189.76C130.963 188.871 134.074 187.873 137.175 186.859C139.884 185.974 142.255 184.545 144.442 182.861C146.61 181.193 149.031 179.943 151.849 179.159Z" fill="url(#paint12_linear_2009_2606)" fill-opacity="0.1"/>
<path d="M41.2561 21.6535C41.2155 20.6146 41.1522 19.5273 41.2902 18.4593C41.6552 15.6345 42.4434 12.8852 43.6261 10.2325C44.799 7.60202 46.3983 5.16791 48.454 2.96947C49.2435 2.12517 50.0405 1.28023 50.9103 0.498656C53.3983 -1.73686 56.2316 -3.59787 59.3486 -5.14024C62.318 -6.60955 65.3988 -7.86712 68.6372 -8.83479C71.5894 -9.71696 74.5954 -10.4167 77.6775 -10.8659C78.355 -10.9646 79.0349 -11.0504 79.8171 -11.1464C80.7407 -9.0206 79.9528 -7.13877 78.6163 -5.39157C76.9011 -3.14916 74.5367 -1.48188 71.8443 -0.1855C70.251 0.58169 68.5639 1.21002 66.8939 1.85219C60.6174 4.26564 55.0863 7.5943 50.2076 11.7635C46.7476 14.7203 43.7724 17.9866 41.2561 21.6535Z" fill="url(#paint13_linear_2009_2606)" fill-opacity="0.1"/>
<path d="M42.8693 178.881C40.7337 181.04 38.8142 183.347 37.2078 185.869C34.9714 189.381 33.2496 193.081 32.5978 197.131C32.1184 200.111 31.8163 203.115 31.3827 206.101C30.7656 210.352 30.1793 214.614 28.6328 218.689C28.3348 219.474 27.911 220.222 27.5064 220.969C26.3325 223.137 24.3133 223.702 21.9249 223.327C19.6899 222.975 17.9079 221.812 16.2825 220.431C15.8809 220.09 15.5498 219.679 15.1774 219.291C16.7992 216.709 18.4337 214.18 19.9769 211.605C20.4479 210.819 20.7312 209.922 20.9915 209.048C21.9329 205.888 22.7856 202.705 23.7491 199.551C25.7955 192.853 29.531 187.123 35.4293 182.674C37.5855 181.048 39.9538 179.726 42.6626 178.77C42.79 178.805 42.8693 178.881 42.8693 178.881Z" fill="url(#paint14_linear_2009_2606)" fill-opacity="0.1"/>
<path d="M47.8893 63.1488C47.5217 64.5586 47.1062 65.8753 46.8513 67.2118C46.6031 68.5126 46.5193 69.8337 46.1888 71.1849C45.5812 69.8123 44.9415 68.4485 44.3721 67.0653C42.6932 62.987 41.1804 58.8702 40.0681 54.6577C39.0618 50.8469 38.5234 46.9956 38.768 43.1013C38.9466 40.2566 39.7235 37.4984 42.0685 35.2463C44.1944 33.2047 46.9559 31.9583 50.0976 31.2477C52.7424 33.5241 54.1048 36.1517 54.3173 39.1859C54.5917 43.1043 53.821 46.9363 52.8144 50.7489C52.0935 53.4793 50.9686 56.1057 49.757 58.7136C49.0905 60.1482 48.5235 61.6132 47.8893 63.1488Z" fill="url(#paint15_linear_2009_2606)" fill-opacity="0.1"/>
<path d="M170.061 185.457C170.366 185.4 170.726 185.423 170.969 185.284C173.186 184.016 175.312 182.635 177.222 181.01C178.335 180.063 179.46 179.119 180.491 178.103C182.644 175.979 184.424 173.624 185.956 171.098C188.385 167.096 189.605 162.774 190.366 158.324C190.548 157.261 190.524 156.165 190.541 155.083C190.57 153.167 190.701 151.241 190.526 149.337C190.314 147.044 189.898 144.759 189.443 142.49C188.701 138.784 187.397 135.211 185.981 131.59C188.387 131.098 190.757 131.269 193.013 132.127C194.623 132.739 195.813 133.84 196.714 135.18C198.369 137.639 198.98 140.36 199.152 143.167C199.6 150.474 197.765 157.391 194.604 164.069C192.62 168.26 190.089 172.163 186.844 175.681C182.859 180.001 178.103 183.403 172.181 185.397C171.613 185.589 171.026 185.733 170.313 185.796C170.138 185.617 170.096 185.542 170.055 185.467C170.055 185.467 170.062 185.461 170.061 185.457Z" fill="url(#paint16_linear_2009_2606)" fill-opacity="0.1"/>
<path d="M152.096 171.297C151.524 171.369 151.008 171.357 150.562 171.497C147.991 172.299 145.299 172.686 142.618 173.082C141.027 173.317 139.391 173.451 137.777 173.442C133.567 173.42 129.431 172.927 125.567 171.485C122.874 170.479 120.371 169.171 118.279 167.433C114.565 164.347 112.146 160.649 110.743 156.453C109.776 153.558 109.582 150.606 109.709 147.657C109.832 144.809 110.619 142.027 111.917 139.347C112.875 137.367 114.042 135.49 115.575 133.785C118.014 131.071 121.071 129.041 125.152 128.249C128.629 127.573 132.012 127.951 135.386 128.958C133.471 129.031 131.512 128.952 129.559 129.309C126.904 129.793 124.58 130.788 122.516 132.215C119.875 134.042 117.941 136.267 116.735 138.956C115.095 142.612 113.842 146.33 113.657 150.239C113.412 155.421 115.342 160.028 119.303 164.022C123.915 168.673 129.959 171.172 137.185 171.73C139.617 171.917 142.056 171.698 144.46 171.327C148.066 170.771 151.665 170.182 155.4 169.687C155.546 169.817 155.559 169.869 155.571 169.92C154.442 170.375 153.313 170.829 152.096 171.297Z" fill="url(#paint17_linear_2009_2606)" fill-opacity="0.1"/>
<path d="M37.0836 218.481C36.7769 218.566 36.4703 218.652 35.9826 218.787C36.8904 217.404 37.7349 216.233 38.4541 215.001C40.7633 211.046 42.1857 206.84 42.5091 202.357C42.61 200.958 42.5681 199.55 42.5911 198.147C42.6254 196.055 42.9406 194.009 44.0048 192.128C44.822 190.684 45.8828 189.45 47.9527 189.323C48.0804 189.586 48.0731 189.771 48.1348 189.934C49.0339 192.315 49.1544 194.816 49.5098 197.276C49.6233 198.062 49.4622 198.883 49.3983 199.686C49.3067 200.836 49.2693 201.996 49.069 203.131C48.0941 208.657 45.2124 213.146 40.1436 216.406C39.1978 217.014 38.198 217.554 37.2265 218.129C37.0939 218.208 36.7982 218.253 37.0836 218.481Z" fill="url(#paint18_linear_2009_2606)" fill-opacity="0.1"/>
<path d="M140.06 50.8094C139.845 50.7977 139.56 50.7565 139.415 50.6078C136.747 47.8795 133.61 45.7169 129.862 44.2776C127.058 43.2006 124.167 42.4552 121.086 42.4002C119.954 42.3799 118.812 42.2225 117.69 42.302C113.133 42.625 108.889 43.8095 104.993 45.9822C103.12 47.0267 101.451 48.2932 99.9745 49.7038C97.766 51.8137 95.95 54.1907 94.7802 56.9312C94.061 58.6162 93.4254 60.3055 93.1577 62.0971C92.6889 65.2349 92.7252 68.3521 93.6236 71.5303C92.6233 71.092 92.1025 70.294 91.8359 69.2926C89.8558 61.8543 91.185 54.9955 96.3811 48.8468C100.431 44.0542 105.849 41.0523 112.46 40.0168C122.261 38.4816 130.635 41.0615 137.416 47.5692C138.413 48.526 139.18 49.6716 140.06 50.8094Z" fill="url(#paint19_linear_2009_2606)" fill-opacity="0.1"/>
<path d="M100.638 80.3249C103.212 81.2897 105.845 82.0767 108.633 82.4696C124.63 84.7242 139.274 75.6149 142.305 62.4245C142.471 61.7017 142.614 60.9751 142.833 60.2627C143.566 66.5681 141.748 72.2524 137.068 77.1533C132.903 81.5147 127.543 84.1995 121.039 85.0984C113.466 86.1451 106.639 84.6106 100.55 80.5184C100.561 80.4102 100.638 80.3249 100.638 80.3249Z" fill="url(#paint20_linear_2009_2606)" fill-opacity="0.1"/>
<path d="M141.752 145.624C142.826 141.952 143.524 138.33 142.963 134.341C143.379 134.666 143.586 134.804 143.762 134.968C147.448 138.384 149.296 142.524 149.723 147.206C149.976 149.979 148.864 152.445 147.459 154.824C147.342 155.024 146.967 155.211 146.707 155.216C143.725 155.267 141.075 153.964 140.949 150.809C140.879 149.049 141.143 147.368 141.752 145.624Z" fill="url(#paint21_linear_2009_2606)" fill-opacity="0.1"/>
<path d="M36.1832 218.781C35.7586 218.555 36.0915 218.509 36.241 218.429C37.3365 217.847 38.4636 217.301 39.5303 216.686C45.2471 213.39 48.5093 208.864 49.6314 203.304C49.862 202.161 49.9094 200.994 50.0177 199.837C50.0933 199.029 50.2784 198.203 50.1543 197.413C49.7658 194.94 49.6418 192.425 48.6414 190.033C48.5727 189.869 48.5818 189.684 48.5446 189.417C51.3465 188.792 54.3522 190.214 55.2853 192.532C56.1044 194.566 56.0236 196.647 55.62 198.723C54.6451 203.736 52.0876 208.212 48.193 212.157C45.3649 215.022 41.9472 217.329 37.5491 218.502C37.1358 218.613 36.7085 218.688 36.1832 218.781Z" fill="url(#paint22_linear_2009_2606)" fill-opacity="0.1"/>
<defs>
<linearGradient id="paint0_linear_2009_2606" x1="60.2168" y1="197.962" x2="61.0309" y2="226.201" gradientUnits="userSpaceOnUse">
<stop stop-color="#132431"/>
<stop offset="1" stop-color="#3B6F97"/>
</linearGradient>
<linearGradient id="paint1_linear_2009_2606" x1="59.0828" y1="-17.4003" x2="60.1929" y2="21.1076" gradientUnits="userSpaceOnUse">
<stop stop-color="#132431"/>
<stop offset="1" stop-color="#3B6F97"/>
</linearGradient>
<linearGradient id="paint2_linear_2009_2606" x1="78.9961" y1="42.4048" x2="83.5722" y2="201.143" gradientUnits="userSpaceOnUse">
<stop stop-color="#132431"/>
<stop offset="1" stop-color="#3B6F97"/>
</linearGradient>
<linearGradient id="paint3_linear_2009_2606" x1="116.918" y1="42.1681" x2="117.929" y2="77.253" gradientUnits="userSpaceOnUse">
<stop stop-color="#132431"/>
<stop offset="1" stop-color="#3B6F97"/>
</linearGradient>
<linearGradient id="paint4_linear_2009_2606" x1="189.58" y1="158.262" x2="190.703" y2="197.198" gradientUnits="userSpaceOnUse">
<stop stop-color="#132431"/>
<stop offset="1" stop-color="#3B6F97"/>
</linearGradient>
<linearGradient id="paint5_linear_2009_2606" x1="85.0203" y1="12.2556" x2="85.6124" y2="32.7932" gradientUnits="userSpaceOnUse">
<stop stop-color="#132431"/>
<stop offset="1" stop-color="#3B6F97"/>
</linearGradient>
<linearGradient id="paint6_linear_2009_2606" x1="105.278" y1="36.0804" x2="107.548" y2="114.808" gradientUnits="userSpaceOnUse">
<stop stop-color="#132431"/>
<stop offset="1" stop-color="#3B6F97"/>
</linearGradient>
<linearGradient id="paint7_linear_2009_2606" x1="193.889" y1="160.707" x2="195.012" y2="199.643" gradientUnits="userSpaceOnUse">
<stop stop-color="#132431"/>
<stop offset="1" stop-color="#3B6F97"/>
</linearGradient>
<linearGradient id="paint8_linear_2009_2606" x1="86.2581" y1="5.79677" x2="86.8872" y2="27.6179" gradientUnits="userSpaceOnUse">
<stop stop-color="#132431"/>
<stop offset="1" stop-color="#3B6F97"/>
</linearGradient>
<linearGradient id="paint9_linear_2009_2606" x1="178.947" y1="133.304" x2="180.452" y2="185.503" gradientUnits="userSpaceOnUse">
<stop stop-color="#132431"/>
<stop offset="1" stop-color="#3B6F97"/>
</linearGradient>
<linearGradient id="paint10_linear_2009_2606" x1="31.6499" y1="81.0249" x2="35.1529" y2="202.539" gradientUnits="userSpaceOnUse">
<stop stop-color="#132431"/>
<stop offset="1" stop-color="#3B6F97"/>
</linearGradient>
<linearGradient id="paint11_linear_2009_2606" x1="57.1958" y1="196.765" x2="58.0098" y2="225.004" gradientUnits="userSpaceOnUse">
<stop stop-color="#132431"/>
<stop offset="1" stop-color="#3B6F97"/>
</linearGradient>
<linearGradient id="paint12_linear_2009_2606" x1="140.038" y1="178.532" x2="140.531" y2="195.647" gradientUnits="userSpaceOnUse">
<stop stop-color="#132431"/>
<stop offset="1" stop-color="#3B6F97"/>
</linearGradient>
<linearGradient id="paint13_linear_2009_2606" x1="60.0903" y1="-10.5778" x2="61.0031" y2="21.0843" gradientUnits="userSpaceOnUse">
<stop stop-color="#132431"/>
<stop offset="1" stop-color="#3B6F97"/>
</linearGradient>
<linearGradient id="paint14_linear_2009_2606" x1="28.2542" y1="179.185" x2="29.5247" y2="223.256" gradientUnits="userSpaceOnUse">
<stop stop-color="#132431"/>
<stop offset="1" stop-color="#3B6F97"/>
</linearGradient>
<linearGradient id="paint15_linear_2009_2606" x1="46.0928" y1="31.3631" x2="47.2399" y2="71.1546" gradientUnits="userSpaceOnUse">
<stop stop-color="#132431"/>
<stop offset="1" stop-color="#3B6F97"/>
</linearGradient>
<linearGradient id="paint16_linear_2009_2606" x1="183.339" y1="131.464" x2="184.893" y2="185.375" gradientUnits="userSpaceOnUse">
<stop stop-color="#132431"/>
<stop offset="1" stop-color="#3B6F97"/>
</linearGradient>
<linearGradient id="paint17_linear_2009_2606" x1="131.384" y1="127.823" x2="132.704" y2="173.605" gradientUnits="userSpaceOnUse">
<stop stop-color="#132431"/>
<stop offset="1" stop-color="#3B6F97"/>
</linearGradient>
<linearGradient id="paint18_linear_2009_2606" x1="42.0399" y1="189.493" x2="42.8786" y2="218.588" gradientUnits="userSpaceOnUse">
<stop stop-color="#132431"/>
<stop offset="1" stop-color="#3B6F97"/>
</linearGradient>
<linearGradient id="paint19_linear_2009_2606" x1="114.837" y1="39.6587" x2="115.738" y2="70.8928" gradientUnits="userSpaceOnUse">
<stop stop-color="#132431"/>
<stop offset="1" stop-color="#3B6F97"/>
</linearGradient>
<linearGradient id="paint20_linear_2009_2606" x1="121.36" y1="60.8817" x2="122.063" y2="85.27" gradientUnits="userSpaceOnUse">
<stop stop-color="#132431"/>
<stop offset="1" stop-color="#3B6F97"/>
</linearGradient>
<linearGradient id="paint21_linear_2009_2606" x1="144.773" y1="134.289" x2="145.378" y2="155.254" gradientUnits="userSpaceOnUse">
<stop stop-color="#132431"/>
<stop offset="1" stop-color="#3B6F97"/>
</linearGradient>
<linearGradient id="paint22_linear_2009_2606" x1="45.2591" y1="189.401" x2="46.0979" y2="218.495" gradientUnits="userSpaceOnUse">
<stop stop-color="#132431"/>
<stop offset="1" stop-color="#3B6F97"/>
</linearGradient>
</defs>
</svg>
