<svg width="504" height="241" viewBox="0 0 504 241" fill="none" xmlns="http://www.w3.org/2000/svg">
<path d="M266.999 131.455V0.272461H325.007C335.835 0.272461 357.491 16.8759 357.491 39.8415C357.491 62.807 340.991 73.2036 332.741 75.5312V77.0829C348.21 85.7726 361.168 115.679 365.809 131.455H330.754L309.538 87.1691H297.937V131.455H266.999Z" fill="url(#paint0_linear_650_1721)"/>
<path d="M168.627 0L127 131.455H157.672L164.245 113.854H203.681L210.254 131.455H245.309L199.3 0H168.627Z" fill="url(#paint1_linear_650_1721)"/>
<path d="M185.981 39.4365H182.19L170.818 83.2548H197.109L185.981 39.4365Z" fill="white"/>
<path d="M0 131.455V0H34.9813V48.2001H70.0359V0H105V131.455H70.0359V83.5227H34.9813V131.455H0Z" fill="url(#paint2_linear_650_1721)"/>
<path d="M504 67.7727C504 106.709 476.456 131.455 442.491 131.455C408.525 131.455 381 106.709 381 67.7727C381 28.8366 408.525 0 442.491 0C476.456 0 504 28.8366 504 67.7727Z" fill="url(#paint3_linear_650_1721)"/>
<ellipse cx="442.491" cy="67.9179" rx="30.6728" ry="37.2455" fill="white"/>
<path d="M297 60.2708V27.2732C314.981 27.2247 327 29.5753 327 43.3883C327 57.2013 319.065 60.3535 297 60.2708Z" fill="white"/>
<path d="M144.5 160.298C147.692 160.298 150.436 160.662 152.732 161.39C155.056 162.118 156.876 162.888 158.192 163.7C159.536 164.512 160.334 165.044 160.586 165.296L156.89 171.218C156.47 170.854 155.728 170.336 154.664 169.664C153.6 168.964 152.27 168.348 150.674 167.816C149.078 167.256 147.258 166.976 145.214 166.976C142.05 166.976 139.544 167.62 137.696 168.908C135.876 170.168 134.966 171.96 134.966 174.284C134.966 175.852 135.442 177.238 136.394 178.442C137.374 179.618 138.746 180.696 140.51 181.676C142.274 182.656 144.332 183.664 146.684 184.7C148.616 185.512 150.506 186.436 152.354 187.472C154.23 188.508 155.924 189.726 157.436 191.126C158.976 192.526 160.194 194.15 161.09 195.998C162.014 197.846 162.476 199.974 162.476 202.382C162.476 204.762 161.986 206.904 161.006 208.808C160.054 210.712 158.696 212.336 156.932 213.68C155.196 214.996 153.166 216.004 150.842 216.704C148.518 217.404 146.012 217.754 143.324 217.754C139.936 217.754 136.87 217.334 134.126 216.494C131.41 215.654 129.212 214.772 127.532 213.848C125.88 212.924 124.928 212.35 124.676 212.126L128.582 205.952C128.918 206.232 129.534 206.652 130.43 207.212C131.326 207.744 132.432 208.304 133.748 208.892C135.064 209.48 136.548 209.984 138.2 210.404C139.852 210.796 141.616 210.992 143.492 210.992C147.244 210.992 150.086 210.152 152.018 208.472C153.95 206.792 154.916 204.636 154.916 202.004C154.916 199.988 154.3 198.252 153.068 196.796C151.836 195.34 150.198 194.038 148.154 192.89C146.11 191.742 143.856 190.636 141.392 189.572C138.872 188.424 136.562 187.164 134.462 185.792C132.362 184.42 130.668 182.782 129.38 180.878C128.12 178.946 127.49 176.622 127.49 173.906C127.49 171.218 128.246 168.852 129.758 166.808C131.298 164.764 133.356 163.168 135.932 162.02C138.536 160.872 141.392 160.298 144.5 160.298ZM178.799 234.218H171.533V182.264H178.925V188.732C179.177 187.864 179.877 186.842 181.025 185.666C182.173 184.49 183.713 183.468 185.645 182.6C187.605 181.704 189.845 181.256 192.365 181.256C195.557 181.256 198.385 182.026 200.849 183.566C203.341 185.078 205.287 187.206 206.687 189.95C208.115 192.666 208.829 195.858 208.829 199.526C208.829 203.194 208.101 206.4 206.645 209.144C205.189 211.86 203.201 213.974 200.681 215.486C198.189 216.998 195.333 217.754 192.113 217.754C189.509 217.754 187.227 217.264 185.267 216.284C183.335 215.304 181.809 214.198 180.689 212.966C179.597 211.734 178.967 210.754 178.799 210.026V234.218ZM201.605 199.526C201.605 197.034 201.087 194.878 200.051 193.058C199.043 191.238 197.699 189.824 196.019 188.816C194.339 187.808 192.519 187.304 190.559 187.304C188.403 187.304 186.443 187.822 184.679 188.858C182.915 189.866 181.515 191.294 180.479 193.142C179.443 194.962 178.925 197.09 178.925 199.526C178.925 201.962 179.443 204.104 180.479 205.952C181.515 207.772 182.915 209.186 184.679 210.194C186.443 211.202 188.403 211.706 190.559 211.706C192.519 211.706 194.339 211.216 196.019 210.236C197.699 209.228 199.043 207.814 200.051 205.994C201.087 204.174 201.605 202.018 201.605 199.526ZM232.402 217.754C228.846 217.754 225.682 216.956 222.91 215.36C220.166 213.764 218.01 211.608 216.442 208.892C214.874 206.148 214.09 203.054 214.09 199.61C214.09 196.166 214.874 193.058 216.442 190.286C218.01 187.514 220.166 185.316 222.91 183.692C225.682 182.068 228.846 181.256 232.402 181.256C235.93 181.256 239.052 182.068 241.768 183.692C244.512 185.316 246.654 187.514 248.194 190.286C249.734 193.058 250.504 196.166 250.504 199.61C250.504 203.054 249.734 206.148 248.194 208.892C246.654 211.608 244.512 213.764 241.768 215.36C239.052 216.956 235.93 217.754 232.402 217.754ZM232.402 211.496C234.642 211.496 236.588 210.978 238.24 209.942C239.92 208.906 241.222 207.492 242.146 205.7C243.07 203.88 243.532 201.836 243.532 199.568C243.532 197.3 243.07 195.256 242.146 193.436C241.222 191.616 239.92 190.174 238.24 189.11C236.588 188.046 234.642 187.514 232.402 187.514C230.134 187.514 228.16 188.046 226.48 189.11C224.8 190.174 223.484 191.616 222.532 193.436C221.608 195.256 221.146 197.3 221.146 199.568C221.146 201.836 221.608 203.88 222.532 205.7C223.484 207.492 224.8 208.906 226.48 209.942C228.16 210.978 230.134 211.496 232.402 211.496ZM265.788 216.746H258.522V182.264H265.788V188.228H265.578C265.718 187.5 266.236 186.59 267.132 185.498C268.028 184.406 269.26 183.426 270.828 182.558C272.396 181.69 274.272 181.256 276.456 181.256C278.052 181.256 279.452 181.48 280.656 181.928C281.888 182.348 282.756 182.768 283.26 183.188L280.278 189.236C279.886 188.844 279.2 188.452 278.22 188.06C277.24 187.64 276.022 187.43 274.566 187.43C272.718 187.43 271.136 188.004 269.82 189.152C268.504 190.3 267.496 191.686 266.796 193.31C266.124 194.906 265.788 196.39 265.788 197.762V216.746ZM285.525 182.264H292.287V168.11H299.553V182.264H308.415V188.522H299.553V205.574C299.553 207.59 299.903 209.074 300.603 210.026C301.331 210.978 302.297 211.454 303.501 211.454C304.565 211.454 305.391 211.258 305.979 210.866C306.567 210.474 306.917 210.208 307.029 210.068L309.927 215.444C309.759 215.584 309.311 215.85 308.583 216.242C307.855 216.634 306.917 216.984 305.769 217.292C304.621 217.6 303.277 217.754 301.737 217.754C299.049 217.754 296.795 216.942 294.975 215.318C293.183 213.666 292.287 211.062 292.287 207.506V188.522H285.525V182.264ZM329.21 181.256C331.002 181.256 332.668 181.438 334.208 181.802C335.776 182.166 337.12 182.6 338.24 183.104C339.388 183.608 340.2 184.056 340.676 184.448L337.778 189.068C337.218 188.564 336.21 188.004 334.754 187.388C333.298 186.744 331.674 186.422 329.882 186.422C327.922 186.422 326.256 186.814 324.884 187.598C323.512 188.354 322.826 189.46 322.826 190.916C322.826 192.372 323.526 193.534 324.926 194.402C326.354 195.242 328.258 195.942 330.638 196.502C332.542 196.95 334.32 197.552 335.972 198.308C337.652 199.064 339.01 200.114 340.046 201.458C341.082 202.774 341.6 204.538 341.6 206.75C341.6 208.766 341.18 210.488 340.34 211.916C339.5 213.316 338.366 214.45 336.938 215.318C335.51 216.158 333.914 216.774 332.15 217.166C330.386 217.558 328.594 217.754 326.774 217.754C324.646 217.754 322.728 217.53 321.02 217.082C319.312 216.662 317.87 216.158 316.694 215.57C315.546 214.954 314.706 214.422 314.174 213.974L317.072 208.766C317.8 209.466 318.99 210.208 320.642 210.992C322.322 211.776 324.226 212.168 326.354 212.168C328.706 212.168 330.61 211.678 332.066 210.698C333.522 209.69 334.25 208.388 334.25 206.792C334.25 205.588 333.9 204.622 333.2 203.894C332.5 203.166 331.562 202.578 330.386 202.13C329.21 201.682 327.922 201.29 326.522 200.954C325.178 200.646 323.862 200.24 322.574 199.736C321.314 199.232 320.152 198.588 319.088 197.804C318.052 196.992 317.226 196.012 316.61 194.864C315.994 193.688 315.686 192.316 315.686 190.748C315.686 188.76 316.316 187.066 317.576 185.666C318.836 184.238 320.488 183.146 322.532 182.39C324.576 181.634 326.802 181.256 329.21 181.256Z" fill="url(#paint4_linear_650_1721)"/>
<defs>
<linearGradient id="paint0_linear_650_1721" x1="316.404" y1="0.272461" x2="316.404" y2="131.455" gradientUnits="userSpaceOnUse">
<stop stop-color="#C60A1E"/>
<stop offset="1" stop-color="#60050F"/>
</linearGradient>
<linearGradient id="paint1_linear_650_1721" x1="186.154" y1="0" x2="186.154" y2="131.455" gradientUnits="userSpaceOnUse">
<stop stop-color="#C60A1E"/>
<stop offset="1" stop-color="#60050F"/>
</linearGradient>
<linearGradient id="paint2_linear_650_1721" x1="52.5001" y1="0" x2="52.5001" y2="131.455" gradientUnits="userSpaceOnUse">
<stop stop-color="#C60A1E"/>
<stop offset="1" stop-color="#60050F"/>
</linearGradient>
<linearGradient id="paint3_linear_650_1721" x1="442.5" y1="0" x2="442.5" y2="131.455" gradientUnits="userSpaceOnUse">
<stop stop-color="#C60A1E"/>
<stop offset="1" stop-color="#60050F"/>
</linearGradient>
<linearGradient id="paint4_linear_650_1721" x1="245.309" y1="157.746" x2="245.309" y2="241.001" gradientUnits="userSpaceOnUse">
<stop stop-color="#444240"/>
<stop offset="1" stop-color="#AAA5A0"/>
</linearGradient>
</defs>
</svg>
