<svg width="65" height="30" viewBox="0 0 65 30" fill="none" xmlns="http://www.w3.org/2000/svg">
<path d="M34.4344 16.3635V0.0338135H41.9156C43.3121 0.0338135 46.1051 2.10063 46.1051 4.95941C46.1051 7.81819 43.9771 9.11237 42.9131 9.40211V9.59527C44.9081 10.677 46.5793 14.3997 47.1778 16.3635H42.6568L39.9206 10.8508H38.4244V16.3635H34.4344Z" fill="url(#paint0_linear_587_1213)"/>
<path d="M21.7475 0L16.3789 16.3636H20.3347L21.1824 14.1727H26.2684L27.1161 16.3636H31.637L25.7033 0H21.7475Z" fill="url(#paint1_linear_587_1213)"/>
<path d="M23.9857 4.90906H23.4968L22.0301 10.3636H25.4208L23.9857 4.90906Z" fill="#11202B"/>
<path d="M0 16.3636V0H4.51148V6H9.03241V0H13.5417V16.3636L9.03241 16.3636V10.397H4.51148V16.3636L0 16.3636Z" fill="url(#paint2_linear_587_1213)"/>
<path d="M65 8.43642C65 13.2832 61.4477 16.3636 57.0672 16.3636C52.6868 16.3636 49.1368 13.2832 49.1368 8.43642C49.1368 3.58961 52.6868 0 57.0672 0C61.4477 0 65 3.58961 65 8.43642Z" fill="url(#paint3_linear_587_1213)"/>
<ellipse cx="57.0673" cy="8.45454" rx="3.95581" ry="4.63636" fill="#11202B"/>
<path d="M38.3035 7.50264V3.39506C40.6225 3.38901 42.1726 3.68162 42.1726 5.40108C42.1726 7.12054 41.1493 7.51293 38.3035 7.50264Z" fill="#11202B"/>
<path d="M18.4188 19.9164C18.7988 19.9164 19.1254 19.9597 19.3988 20.0464C19.6754 20.133 19.8921 20.2247 20.0488 20.3214C20.2088 20.418 20.3038 20.4814 20.3338 20.5114L19.8938 21.2164C19.8438 21.173 19.7554 21.1114 19.6288 21.0314C19.5021 20.948 19.3438 20.8747 19.1538 20.8114C18.9638 20.7447 18.7471 20.7114 18.5038 20.7114C18.1271 20.7114 17.8288 20.788 17.6088 20.9414C17.3921 21.0914 17.2838 21.3047 17.2838 21.5814C17.2838 21.768 17.3404 21.933 17.4538 22.0764C17.5704 22.2164 17.7338 22.3447 17.9438 22.4614C18.1538 22.578 18.3988 22.698 18.6788 22.8214C18.9088 22.918 19.1338 23.028 19.3538 23.1514C19.5771 23.2747 19.7788 23.4197 19.9588 23.5864C20.1421 23.753 20.2871 23.9464 20.3938 24.1664C20.5038 24.3864 20.5588 24.6397 20.5588 24.9264C20.5588 25.2097 20.5004 25.4647 20.3838 25.6914C20.2704 25.918 20.1088 26.1114 19.8988 26.2714C19.6921 26.428 19.4504 26.548 19.1738 26.6314C18.8971 26.7147 18.5988 26.7564 18.2788 26.7564C17.8754 26.7564 17.5104 26.7064 17.1838 26.6064C16.8604 26.5064 16.5988 26.4014 16.3988 26.2914C16.2021 26.1814 16.0888 26.113 16.0588 26.0864L16.5238 25.3514C16.5638 25.3847 16.6371 25.4347 16.7438 25.5014C16.8504 25.5647 16.9821 25.6314 17.1388 25.7014C17.2954 25.7714 17.4721 25.8314 17.6688 25.8814C17.8654 25.928 18.0754 25.9514 18.2988 25.9514C18.7454 25.9514 19.0838 25.8514 19.3138 25.6514C19.5438 25.4514 19.6588 25.1947 19.6588 24.8814C19.6588 24.6414 19.5854 24.4347 19.4388 24.2614C19.2921 24.088 19.0971 23.933 18.8538 23.7964C18.6104 23.6597 18.3421 23.528 18.0488 23.4014C17.7488 23.2647 17.4738 23.1147 17.2238 22.9514C16.9738 22.788 16.7721 22.593 16.6188 22.3664C16.4688 22.1364 16.3938 21.8597 16.3938 21.5364C16.3938 21.2164 16.4838 20.9347 16.6638 20.6914C16.8471 20.448 17.0921 20.258 17.3988 20.1214C17.7088 19.9847 18.0488 19.9164 18.4188 19.9164ZM22.502 28.7164H21.637V22.5314H22.517V23.3014C22.547 23.198 22.6303 23.0764 22.767 22.9364C22.9037 22.7964 23.087 22.6747 23.317 22.5714C23.5503 22.4647 23.817 22.4114 24.117 22.4114C24.497 22.4114 24.8337 22.503 25.127 22.6864C25.4237 22.8664 25.6553 23.1197 25.822 23.4464C25.992 23.7697 26.077 24.1497 26.077 24.5864C26.077 25.023 25.9903 25.4047 25.817 25.7314C25.6437 26.0547 25.407 26.3064 25.107 26.4864C24.8103 26.6664 24.4703 26.7564 24.087 26.7564C23.777 26.7564 23.5053 26.698 23.272 26.5814C23.042 26.4647 22.8603 26.333 22.727 26.1864C22.597 26.0397 22.522 25.923 22.502 25.8364V28.7164ZM25.217 24.5864C25.217 24.2897 25.1553 24.033 25.032 23.8164C24.912 23.5997 24.752 23.4314 24.552 23.3114C24.352 23.1914 24.1353 23.1314 23.902 23.1314C23.6453 23.1314 23.412 23.193 23.202 23.3164C22.992 23.4364 22.8253 23.6064 22.702 23.8264C22.5787 24.043 22.517 24.2964 22.517 24.5864C22.517 24.8764 22.5787 25.1314 22.702 25.3514C22.8253 25.568 22.992 25.7364 23.202 25.8564C23.412 25.9764 23.6453 26.0364 23.902 26.0364C24.1353 26.0364 24.352 25.978 24.552 25.8614C24.752 25.7414 24.912 25.573 25.032 25.3564C25.1553 25.1397 25.217 24.883 25.217 24.5864ZM28.8833 26.7564C28.46 26.7564 28.0833 26.6614 27.7533 26.4714C27.4266 26.2814 27.17 26.0247 26.9833 25.7014C26.7966 25.3747 26.7033 25.0064 26.7033 24.5964C26.7033 24.1864 26.7966 23.8164 26.9833 23.4864C27.17 23.1564 27.4266 22.8947 27.7533 22.7014C28.0833 22.508 28.46 22.4114 28.8833 22.4114C29.3033 22.4114 29.675 22.508 29.9983 22.7014C30.325 22.8947 30.58 23.1564 30.7633 23.4864C30.9466 23.8164 31.0383 24.1864 31.0383 24.5964C31.0383 25.0064 30.9466 25.3747 30.7633 25.7014C30.58 26.0247 30.325 26.2814 29.9983 26.4714C29.675 26.6614 29.3033 26.7564 28.8833 26.7564ZM28.8833 26.0114C29.15 26.0114 29.3816 25.9497 29.5783 25.8264C29.7783 25.703 29.9333 25.5347 30.0433 25.3214C30.1533 25.1047 30.2083 24.8614 30.2083 24.5914C30.2083 24.3214 30.1533 24.078 30.0433 23.8614C29.9333 23.6447 29.7783 23.473 29.5783 23.3464C29.3816 23.2197 29.15 23.1564 28.8833 23.1564C28.6133 23.1564 28.3783 23.2197 28.1783 23.3464C27.9783 23.473 27.8216 23.6447 27.7083 23.8614C27.5983 24.078 27.5433 24.3214 27.5433 24.5914C27.5433 24.8614 27.5983 25.1047 27.7083 25.3214C27.8216 25.5347 27.9783 25.703 28.1783 25.8264C28.3783 25.9497 28.6133 26.0114 28.8833 26.0114ZM32.8578 26.6364H31.9928V22.5314H32.8578V23.2414H32.8328C32.8495 23.1547 32.9112 23.0464 33.0178 22.9164C33.1245 22.7864 33.2712 22.6697 33.4578 22.5664C33.6445 22.463 33.8678 22.4114 34.1278 22.4114C34.3178 22.4114 34.4845 22.438 34.6278 22.4914C34.7745 22.5414 34.8778 22.5914 34.9378 22.6414L34.5828 23.3614C34.5362 23.3147 34.4545 23.268 34.3378 23.2214C34.2212 23.1714 34.0762 23.1464 33.9028 23.1464C33.6828 23.1464 33.4945 23.2147 33.3378 23.3514C33.1812 23.488 33.0612 23.653 32.9778 23.8464C32.8978 24.0364 32.8578 24.213 32.8578 24.3764V26.6364ZM35.2075 22.5314H36.0125V20.8464H36.8775V22.5314H37.9325V23.2764H36.8775V25.3064C36.8775 25.5464 36.9192 25.723 37.0025 25.8364C37.0892 25.9497 37.2042 26.0064 37.3475 26.0064C37.4742 26.0064 37.5725 25.983 37.6425 25.9364C37.7125 25.8897 37.7542 25.858 37.7675 25.8414L38.1125 26.4814C38.0925 26.498 38.0392 26.5297 37.9525 26.5764C37.8659 26.623 37.7542 26.6647 37.6175 26.7014C37.4809 26.738 37.3209 26.7564 37.1375 26.7564C36.8175 26.7564 36.5492 26.6597 36.3325 26.4664C36.1192 26.2697 36.0125 25.9597 36.0125 25.5364V23.2764H35.2075V22.5314ZM40.4081 22.4114C40.6214 22.4114 40.8197 22.433 41.0031 22.4764C41.1897 22.5197 41.3497 22.5714 41.4831 22.6314C41.6197 22.6914 41.7164 22.7447 41.7731 22.7914L41.4281 23.3414C41.3614 23.2814 41.2414 23.2147 41.0681 23.1414C40.8947 23.0647 40.7014 23.0264 40.4881 23.0264C40.2547 23.0264 40.0564 23.073 39.8931 23.1664C39.7297 23.2564 39.6481 23.388 39.6481 23.5614C39.6481 23.7347 39.7314 23.873 39.8981 23.9764C40.0681 24.0764 40.2947 24.1597 40.5781 24.2264C40.8047 24.2797 41.0164 24.3514 41.2131 24.4414C41.4131 24.5314 41.5747 24.6564 41.6981 24.8164C41.8214 24.973 41.8831 25.183 41.8831 25.4464C41.8831 25.6864 41.8331 25.8914 41.7331 26.0614C41.6331 26.228 41.4981 26.363 41.3281 26.4664C41.1581 26.5664 40.9681 26.6397 40.7581 26.6864C40.5481 26.733 40.3347 26.7564 40.1181 26.7564C39.8647 26.7564 39.6364 26.7297 39.4331 26.6764C39.2297 26.6264 39.0581 26.5664 38.9181 26.4964C38.7814 26.423 38.6814 26.3597 38.6181 26.3064L38.9631 25.6864C39.0497 25.7697 39.1914 25.858 39.3881 25.9514C39.5881 26.0447 39.8147 26.0914 40.0681 26.0914C40.3481 26.0914 40.5747 26.033 40.7481 25.9164C40.9214 25.7964 41.0081 25.6414 41.0081 25.4514C41.0081 25.308 40.9664 25.193 40.8831 25.1064C40.7997 25.0197 40.6881 24.9497 40.5481 24.8964C40.4081 24.843 40.2547 24.7964 40.0881 24.7564C39.9281 24.7197 39.7714 24.6714 39.6181 24.6114C39.4681 24.5514 39.3297 24.4747 39.2031 24.3814C39.0797 24.2847 38.9814 24.168 38.9081 24.0314C38.8347 23.8914 38.7981 23.728 38.7981 23.5414C38.7981 23.3047 38.8731 23.103 39.0231 22.9364C39.1731 22.7664 39.3697 22.6364 39.6131 22.5464C39.8564 22.4564 40.1214 22.4114 40.4081 22.4114Z" fill="url(#paint4_linear_587_1213)"/>
<defs>
<linearGradient id="paint0_linear_587_1213" x1="40.8061" y1="0.0338135" x2="40.8061" y2="16.3635" gradientUnits="userSpaceOnUse">
<stop stop-color="white"/>
<stop offset="1" stop-color="#999999"/>
</linearGradient>
<linearGradient id="paint1_linear_587_1213" x1="24.008" y1="0" x2="24.008" y2="16.3636" gradientUnits="userSpaceOnUse">
<stop stop-color="white"/>
<stop offset="1" stop-color="#999999"/>
</linearGradient>
<linearGradient id="paint2_linear_587_1213" x1="6.77084" y1="0" x2="6.77084" y2="16.3636" gradientUnits="userSpaceOnUse">
<stop stop-color="white"/>
<stop offset="1" stop-color="#999999"/>
</linearGradient>
<linearGradient id="paint3_linear_587_1213" x1="57.0684" y1="0" x2="57.0684" y2="16.3636" gradientUnits="userSpaceOnUse">
<stop stop-color="white"/>
<stop offset="1" stop-color="#999999"/>
</linearGradient>
<linearGradient id="paint4_linear_587_1213" x1="31.637" y1="19.6364" x2="31.637" y2="30" gradientUnits="userSpaceOnUse">
<stop stop-color="white"/>
<stop offset="1" stop-color="#999999"/>
</linearGradient>
</defs>
</svg>
