<svg width="110" height="110" viewBox="0 0 110 110" fill="none" xmlns="http://www.w3.org/2000/svg">
<path d="M4.62622 65.2808H104.86M6.6823 73.5051H101.776M20.0468 93.0378V88.9256C20.5608 87.0409 22.4113 83.2714 25.701 83.2714C28.9907 83.2714 31.1839 83.2714 31.8692 83.2714C33.2399 83.6141 35.9814 84.9163 35.9814 87.3836C35.9814 89.8509 35.9814 92.8664 35.9814 94.0658H46.7758V88.4116C46.9471 86.6982 48.0094 83.2714 50.8879 83.2714C53.7664 83.2714 56.8848 83.2714 58.0842 83.2714C59.4549 83.4428 62.1963 84.5051 62.1963 87.3836C62.1963 90.2621 62.1963 93.3805 62.1963 94.5798H71.9627V88.4116C71.7913 86.6982 72.3739 83.2714 76.0748 83.2714C79.7757 83.2714 83.4424 83.2714 84.8131 83.2714C85.8412 83.4428 87.8972 84.5051 87.8972 87.3836C87.8972 90.2621 87.8972 92.6951 87.8972 93.5518" stroke="#050505"/>
<circle cx="55" cy="55" r="54.5" stroke="#4576B5"/>
<path d="M27.2427 29.2998L51.9156 52.9447M57.0558 53.9727L82.2427 29.2998M82.2427 29.2998V35.982M82.2427 29.2998H74.5324M51.9156 46.2624V53.4587H44.7193" stroke="#4576B5"/>
</svg>
