<svg width="95" height="95" viewBox="0 0 95 95" fill="none" xmlns="http://www.w3.org/2000/svg">
<circle cx="47.5" cy="47.5" r="47" stroke="#2E75BA"/>
<path d="M8.5 37C11.5 37 17.5 40.4 17.5 54C17.5 40.5 26 37 27 37M38 37C41 37 47 40.4 47 54C47 40.5 55.5 37 56.5 37M66.5 37C69.5 37 75.5 40.4 75.5 54C75.5 40.5 84 37 85 37M4 49.5H91M89.5 58.5H6M23.5 82.5H72" stroke="black" stroke-linecap="square"/>
<circle cx="23.5" cy="62.5" r="2.25" stroke="black" stroke-width="0.5"/>
<circle cx="32.5" cy="65.5" r="2.25" stroke="black" stroke-width="0.5"/>
<circle cx="39.5" cy="64.5" r="2.25" stroke="black" stroke-width="0.5"/>
<circle cx="12.5" cy="63.5" r="2.25" stroke="black" stroke-width="0.5"/>
<circle cx="12.5" cy="69.5" r="2.25" stroke="black" stroke-width="0.5"/>
<circle cx="19.5" cy="70.5" r="2.25" stroke="black" stroke-width="0.5"/>
<circle cx="24.5" cy="75.5" r="2.25" stroke="black" stroke-width="0.5"/>
<circle cx="18.5" cy="62.5" r="2.25" stroke="black" stroke-width="0.5"/>
<circle cx="28.5" cy="69.5" r="2.25" stroke="black" stroke-width="0.5"/>
<circle cx="30.5" cy="75.5" r="2.25" stroke="black" stroke-width="0.5"/>
<circle cx="27.5" cy="80.5" r="2.25" stroke="black" stroke-width="0.5"/>
<circle cx="43.5" cy="68.5" r="2.25" stroke="black" stroke-width="0.5"/>
<circle cx="50.5" cy="63.5" r="2.25" stroke="black" stroke-width="0.5"/>
<circle cx="60.5" cy="62.5" r="2.25" stroke="black" stroke-width="0.5"/>
<circle cx="70.5" cy="65.5" r="2.25" stroke="black" stroke-width="0.5"/>
<circle cx="76.5" cy="64.5" r="2.25" stroke="black" stroke-width="0.5"/>
<circle cx="82.5" cy="65.5" r="2.25" stroke="black" stroke-width="0.5"/>
<circle cx="75.5" cy="77.5" r="2.25" stroke="black" stroke-width="0.5"/>
<circle cx="62.5" cy="75.5" r="2.25" stroke="black" stroke-width="0.5"/>
<circle cx="68.5" cy="75.5" r="2.25" stroke="black" stroke-width="0.5"/>
<circle cx="56.5" cy="71.5" r="2.25" stroke="black" stroke-width="0.5"/>
<circle cx="46.5" cy="73.5" r="2.25" stroke="black" stroke-width="0.5"/>
<circle cx="53.5" cy="66.5" r="1.25" stroke="black" stroke-width="0.5"/>
<circle cx="56.5" cy="66.5" r="1.25" stroke="black" stroke-width="0.5"/>
<circle cx="62.5" cy="67.5" r="1.25" stroke="black" stroke-width="0.5"/>
<circle cx="59.5" cy="68.5" r="1.25" stroke="black" stroke-width="0.5"/>
<circle cx="65.5" cy="64.5" r="1.25" stroke="black" stroke-width="0.5"/>
<circle cx="65.5" cy="61.5" r="1.25" stroke="black" stroke-width="0.5"/>
<circle cx="68.5" cy="61.5" r="1.25" stroke="black" stroke-width="0.5"/>
<circle cx="72.5" cy="61.5" r="1.25" stroke="black" stroke-width="0.5"/>
<circle cx="79.5" cy="60.5" r="1.25" stroke="black" stroke-width="0.5"/>
<circle cx="83.5" cy="61.5" r="1.25" stroke="black" stroke-width="0.5"/>
<circle cx="78.5" cy="68.5" r="1.25" stroke="black" stroke-width="0.5"/>
<circle cx="86.5" cy="63.5" r="1.25" stroke="black" stroke-width="0.5"/>
<circle cx="81.5" cy="70.5" r="1.25" stroke="black" stroke-width="0.5"/>
<circle cx="87.5" cy="60.5" r="1.25" stroke="black" stroke-width="0.5"/>
<circle cx="73.5" cy="73.5" r="1.25" stroke="black" stroke-width="0.5"/>
<circle cx="70.5" cy="70.5" r="1.25" stroke="black" stroke-width="0.5"/>
<circle cx="61.5" cy="71.5" r="1.25" stroke="black" stroke-width="0.5"/>
<circle cx="65.5" cy="72.5" r="1.25" stroke="black" stroke-width="0.5"/>
<circle cx="52.5" cy="74.5" r="1.25" stroke="black" stroke-width="0.5"/>
<circle cx="56.5" cy="76.5" r="1.25" stroke="black" stroke-width="0.5"/>
<circle cx="44.5" cy="64.5" r="1.25" stroke="black" stroke-width="0.5"/>
<circle cx="47.5" cy="68.5" r="1.25" stroke="black" stroke-width="0.5"/>
<circle cx="46.5" cy="61.5" r="1.25" stroke="black" stroke-width="0.5"/>
<circle cx="42.5" cy="60.5" r="1.25" stroke="black" stroke-width="0.5"/>
<circle cx="35.5" cy="61.5" r="1.25" stroke="black" stroke-width="0.5"/>
<circle cx="38.5" cy="60.5" r="1.25" stroke="black" stroke-width="0.5"/>
<circle cx="31.5" cy="61.5" r="1.25" stroke="black" stroke-width="0.5"/>
<circle cx="28.5" cy="64.5" r="1.25" stroke="black" stroke-width="0.5"/>
<circle cx="24.5" cy="66.5" r="1.25" stroke="black" stroke-width="0.5"/>
<circle cx="24.5" cy="70.5" r="1.25" stroke="black" stroke-width="0.5"/>
<circle cx="15.5" cy="73.5" r="1.25" stroke="black" stroke-width="0.5"/>
<circle cx="9.5" cy="66.5" r="1.25" stroke="black" stroke-width="0.5"/>
<circle cx="20.5" cy="66.5" r="1.25" stroke="black" stroke-width="0.5"/>
<circle cx="16.5" cy="66.5" r="1.25" stroke="black" stroke-width="0.5"/>
<circle cx="14.5" cy="59.5" r="1.25" stroke="black" stroke-width="0.5"/>
<circle cx="8.5" cy="61.5" r="1.25" stroke="black" stroke-width="0.5"/>
<circle cx="35.5" cy="73.5" r="1.25" stroke="black" stroke-width="0.5"/>
<circle cx="38.5" cy="75.5" r="1.25" stroke="black" stroke-width="0.5"/>
<circle cx="27.5" cy="61.5" r="1.25" stroke="black" stroke-width="0.5"/>
<circle cx="33" cy="71" r="1.75" stroke="black" stroke-width="0.5"/>
<circle cx="38" cy="69" r="1.75" stroke="black" stroke-width="0.5"/>
<circle cx="41" cy="74" r="1.75" stroke="black" stroke-width="0.5"/>
<circle cx="44" cy="78" r="1.75" stroke="black" stroke-width="0.5"/>
<circle cx="49" cy="78" r="1.75" stroke="black" stroke-width="0.5"/>
<circle cx="59" cy="80" r="1.75" stroke="black" stroke-width="0.5"/>
<circle cx="65" cy="80" r="1.75" stroke="black" stroke-width="0.5"/>
<circle cx="71" cy="80" r="1.75" stroke="black" stroke-width="0.5"/>
<circle cx="53" cy="79" r="1.75" stroke="black" stroke-width="0.5"/>
<circle cx="40" cy="79" r="1.75" stroke="black" stroke-width="0.5"/>
<circle cx="36" cy="78" r="1.75" stroke="black" stroke-width="0.5"/>
<circle cx="33" cy="80" r="1.75" stroke="black" stroke-width="0.5"/>
<circle cx="22" cy="80" r="1.75" stroke="black" stroke-width="0.5"/>
<circle cx="20" cy="76" r="1.75" stroke="black" stroke-width="0.5"/>
<circle cx="51" cy="70" r="1.75" stroke="black" stroke-width="0.5"/>
<circle cx="55" cy="62" r="1.75" stroke="black" stroke-width="0.5"/>
<circle cx="66" cy="69" r="1.75" stroke="black" stroke-width="0.5"/>
<circle cx="75" cy="70" r="1.75" stroke="black" stroke-width="0.5"/>
<circle cx="78" cy="74" r="1.75" stroke="black" stroke-width="0.5"/>
</svg>
