<svg width="95" height="95" viewBox="0 0 95 95" fill="none" xmlns="http://www.w3.org/2000/svg">
<circle cx="47.5" cy="47.5" r="47" stroke="#2E75BA"/>
<rect x="37.368" y="44.9248" width="22" height="6.47966" rx="3.23983" transform="rotate(-45 37.368 44.9248)" stroke="black"/>
<path d="M42 43.0005L48.5 36.5005M47.5 41.5005L53.5 35.0005" stroke="black" stroke-linecap="square"/>
<rect x="37.7071" y="82.2637" width="22" height="6.47966" rx="3.23983" transform="rotate(-45 37.7071 82.2637)" stroke="black"/>
<path d="M42.3391 80.3394L48.8391 73.8394M47.8391 78.8394L53.8391 72.3394" stroke="black" stroke-linecap="square"/>
<rect x="65.7071" y="82.2637" width="22" height="6.47966" rx="3.23983" transform="rotate(-45 65.7071 82.2637)" stroke="black"/>
<path d="M70.3391 80.3394L76.8391 73.8394M75.8391 78.8394L81.8391 72.3394" stroke="black" stroke-linecap="square"/>
<path fill-rule="evenodd" clip-rule="evenodd" d="M11.8025 42.777L22.777 31.8025C23.847 30.7325 25.5817 30.7325 26.6517 31.8025C27.7217 32.8724 27.7217 34.6072 26.6517 35.6772L15.6772 46.6517C14.6072 47.7217 12.8724 47.7217 11.8025 46.6517C10.7325 45.5817 10.7325 43.847 11.8025 42.777ZM11.0954 47.3588C9.63488 45.8983 9.63488 43.5304 11.0954 42.0699L22.0699 31.0954C23.5304 29.6349 25.8983 29.6349 27.3588 31.0954C28.8193 32.5559 28.8193 34.9238 27.3588 36.3843L16.3843 47.3588C14.9238 48.8193 12.5559 48.8193 11.0954 47.3588ZM25.6574 35.1287L25.9966 34.7613L25.2618 34.083L24.9226 34.4504L18.9226 40.9504L18.5835 41.3178L19.3183 41.9961L19.6574 41.6287L25.6574 35.1287ZM20.6436 36.6431L20.9971 36.2896L20.29 35.5825L19.9365 35.936L13.4365 42.436L13.0829 42.7896L13.79 43.4967L14.1436 43.1431L20.6436 36.6431Z" fill="black"/>
<path fill-rule="evenodd" clip-rule="evenodd" d="M54.6516 61.777L43.6771 50.8025C42.6071 49.7325 40.8724 49.7325 39.8024 50.8025C38.7324 51.8724 38.7324 53.6072 39.8024 54.6772L50.7769 65.6517C51.8469 66.7217 53.5817 66.7217 54.6516 65.6517C55.7216 64.5817 55.7216 62.847 54.6516 61.777ZM55.3587 66.3588C56.8192 64.8983 56.8192 62.5304 55.3587 61.0699L44.3842 50.0954C42.9237 48.6349 40.5558 48.6349 39.0953 50.0954C37.6348 51.5559 37.6348 53.9238 39.0953 55.3843L50.0698 66.3588C51.5303 67.8193 53.8982 67.8193 55.3587 66.3588ZM40.7967 54.1287L40.4575 53.7613L41.1923 53.083L41.5315 53.4504L47.5315 59.9504L47.8706 60.3178L47.1358 60.9961L46.7967 60.6287L40.7967 54.1287ZM45.8105 55.6431L45.457 55.2896L46.1641 54.5825L46.5176 54.936L53.0176 61.436L53.3712 61.7896L52.6641 62.4967L52.3105 62.1431L45.8105 55.6431Z" fill="black"/>
<path fill-rule="evenodd" clip-rule="evenodd" d="M82.6516 61.777L71.6771 50.8025C70.6071 49.7325 68.8724 49.7325 67.8024 50.8025C66.7324 51.8724 66.7324 53.6072 67.8024 54.6772L78.7769 65.6517C79.8469 66.7217 81.5817 66.7217 82.6516 65.6517C83.7216 64.5817 83.7216 62.847 82.6516 61.777ZM83.3587 66.3588C84.8192 64.8983 84.8192 62.5304 83.3587 61.0699L72.3842 50.0954C70.9237 48.6349 68.5558 48.6349 67.0953 50.0954C65.6348 51.5559 65.6348 53.9238 67.0953 55.3843L78.0698 66.3588C79.5303 67.8193 81.8982 67.8193 83.3587 66.3588ZM68.7967 54.1287L68.4575 53.7613L69.1923 53.083L69.5315 53.4504L75.5315 59.9504L75.8706 60.3178L75.1358 60.9961L74.7967 60.6287L68.7967 54.1287ZM73.8105 55.6431L73.457 55.2896L74.1641 54.5825L74.5176 54.936L81.0176 61.436L81.3712 61.7896L80.6641 62.4967L80.3105 62.1431L73.8105 55.6431Z" fill="black"/>
<path fill-rule="evenodd" clip-rule="evenodd" d="M26.6516 61.777L15.6771 50.8025C14.6071 49.7325 12.8724 49.7325 11.8024 50.8025C10.7324 51.8724 10.7324 53.6072 11.8024 54.6772L22.7769 65.6517C23.8469 66.7217 25.5817 66.7217 26.6516 65.6517C27.7216 64.5817 27.7216 62.847 26.6516 61.777ZM27.3587 66.3588C28.8192 64.8983 28.8192 62.5304 27.3587 61.0699L16.3842 50.0954C14.9237 48.6349 12.5558 48.6349 11.0953 50.0954C9.63478 51.5559 9.63478 53.9238 11.0953 55.3843L22.0698 66.3588C23.5303 67.8193 25.8982 67.8193 27.3587 66.3588ZM12.7967 54.1287L12.4575 53.7613L13.1923 53.083L13.5315 53.4504L19.5315 59.9504L19.8706 60.3178L19.1358 60.9961L18.7967 60.6287L12.7967 54.1287ZM17.8105 55.6431L17.457 55.2896L18.1641 54.5825L18.5176 54.936L25.0176 61.436L25.3712 61.7896L24.6641 62.4967L24.3105 62.1431L17.8105 55.6431Z" fill="black"/>
<path fill-rule="evenodd" clip-rule="evenodd" d="M54.6516 23.777L43.6771 12.8025C42.6071 11.7325 40.8724 11.7325 39.8024 12.8025C38.7324 13.8724 38.7324 15.6072 39.8024 16.6772L50.7769 27.6517C51.8469 28.7217 53.5817 28.7217 54.6516 27.6517C55.7216 26.5817 55.7216 24.847 54.6516 23.777ZM55.3587 28.3588C56.8192 26.8983 56.8192 24.5304 55.3587 23.0699L44.3842 12.0954C42.9237 10.6349 40.5558 10.6349 39.0953 12.0954C37.6348 13.5559 37.6348 15.9238 39.0953 17.3843L50.0698 28.3588C51.5303 29.8193 53.8982 29.8193 55.3587 28.3588ZM40.7967 16.1287L40.4575 15.7613L41.1923 15.083L41.5315 15.4504L47.5315 21.9504L47.8706 22.3178L47.1358 22.9961L46.7967 22.6287L40.7967 16.1287ZM45.8105 17.6431L45.457 17.2896L46.1641 16.5825L46.5176 16.936L53.0176 23.436L53.3712 23.7896L52.6641 24.4967L52.3105 24.1431L45.8105 17.6431Z" fill="black"/>
<path fill-rule="evenodd" clip-rule="evenodd" d="M82.6516 23.777L71.6771 12.8025C70.6071 11.7325 68.8724 11.7325 67.8024 12.8025C66.7324 13.8724 66.7324 15.6072 67.8024 16.6772L78.7769 27.6517C79.8469 28.7217 81.5817 28.7217 82.6516 27.6517C83.7216 26.5817 83.7216 24.847 82.6516 23.777ZM83.3587 28.3588C84.8192 26.8983 84.8192 24.5304 83.3587 23.0699L72.3842 12.0954C70.9237 10.6349 68.5558 10.6349 67.0953 12.0954C65.6348 13.5559 65.6348 15.9238 67.0953 17.3843L78.0698 28.3588C79.5303 29.8193 81.8982 29.8193 83.3587 28.3588ZM68.7967 16.1287L68.4575 15.7613L69.1923 15.083L69.5315 15.4504L75.5315 21.9504L75.8706 22.3178L75.1358 22.9961L74.7967 22.6287L68.7967 16.1287ZM73.8105 17.6431L73.457 17.2896L74.1641 16.5825L74.5176 16.936L81.0176 23.436L81.3712 23.7896L80.6641 24.4967L80.3105 24.1431L73.8105 17.6431Z" fill="black"/>
<path fill-rule="evenodd" clip-rule="evenodd" d="M67.8025 42.777L78.777 31.8025C79.847 30.7325 81.5817 30.7325 82.6517 31.8025C83.7217 32.8724 83.7217 34.6072 82.6517 35.6772L71.6772 46.6517C70.6072 47.7217 68.8724 47.7217 67.8025 46.6517C66.7325 45.5817 66.7325 43.847 67.8025 42.777ZM67.0954 47.3588C65.6349 45.8983 65.6349 43.5304 67.0954 42.0699L78.0699 31.0954C79.5304 29.6349 81.8983 29.6349 83.3588 31.0954C84.8193 32.5559 84.8193 34.9238 83.3588 36.3843L72.3843 47.3588C70.9238 48.8193 68.5559 48.8193 67.0954 47.3588ZM81.6574 35.1287L81.9966 34.7613L81.2618 34.083L80.9226 34.4504L74.9226 40.9504L74.5835 41.3178L75.3183 41.9961L75.6574 41.6287L81.6574 35.1287ZM76.6436 36.6431L76.9971 36.2896L76.29 35.5825L75.9365 35.936L69.4365 42.436L69.0829 42.7896L69.79 43.4967L70.1436 43.1431L76.6436 36.6431Z" fill="black"/>
<path fill-rule="evenodd" clip-rule="evenodd" d="M18.5291 81.8981L19.2494 82.5921L27.9079 73.9336C29.3684 72.4731 29.3684 70.1052 27.9079 68.6447C26.4474 67.1842 24.0794 67.1842 22.6189 68.6447L13.8618 77.4018L14.5821 78.0957L23.3261 69.3518C24.396 68.2818 26.1308 68.2818 27.2008 69.3518C28.2707 70.4217 28.2707 72.1565 27.2008 73.2265L18.5291 81.8981ZM15.961 79.4241L15.2407 78.7301L20.4855 73.4853L20.8391 73.1318L21.5462 73.8389L21.1926 74.1924L15.961 79.4241ZM26.5456 72.3106L26.2065 72.678L20.2065 79.178L19.8673 79.5454L19.1325 78.8671L19.4717 78.4997L25.4717 71.9997L25.8108 71.6323L26.5456 72.3106Z" fill="black"/>
<path fill-rule="evenodd" clip-rule="evenodd" d="M14.7124 19.6685L14.0172 20.3876L22.6605 29.0612C24.1184 30.5243 26.4864 30.5284 27.9494 29.0705C29.4124 27.6125 29.4166 25.2446 27.9587 23.7816L19.2169 15.0091L18.5217 15.7282L27.2503 24.4874C28.3184 25.5593 28.3154 27.294 27.2435 28.3621C26.1717 29.4302 24.4369 29.4272 23.3688 28.3554L14.7124 19.6685ZM17.1909 17.1047L17.8861 16.3857L23.1218 21.6397L23.4747 21.9938L22.7663 22.6997L22.4134 22.3455L17.1909 17.1047ZM24.2859 27.7018L23.9191 27.362L17.4296 21.3507L17.0627 21.0109L17.7423 20.2773L18.1091 20.617L24.5986 26.6284L24.9654 26.9682L24.2859 27.7018Z" fill="black"/>
</svg>
