<svg width="110" height="110" viewBox="0 0 110 110" fill="none" xmlns="http://www.w3.org/2000/svg">
<path d="M36.6665 50.4167H21.3887L36.6665 48.889H21.3887L36.6665 47.8704L21.3887 46.3427H35.6479L23.4257 44.8149L36.6665 43.2871L21.3887 40.7408H36.6665L23.4257 35.139L39.2127 37.6853L26.4813 30.5556L40.2313 35.139L29.0276 26.4816L42.7776 33.1019L33.1016 21.8982L45.3239 31.5741L37.685 19.3519L48.3794 30.5556L42.7776 17.3149L51.435 29.0278L48.3794 15.7871L54.4905 29.0278V15.7871L57.5461 30.5556L60.6016 15.7871V30.5556L66.2035 17.3149L63.6572 31.5741L70.7868 19.3519L66.2035 33.1019L74.8609 23.426L68.7498 35.139L79.4442 26.4816L70.7868 37.6853L82.4998 31.5741L71.8053 40.7408L85.0461 36.1575L71.8053 43.2871L86.5739 40.7408L73.3331 46.3427H86.5739L71.8053 47.8704H86.5739L71.8053 48.889L87.5924 50.4167H73.3331" stroke="#2E75BA" stroke-width="2" stroke-linecap="square"/>
<path d="M12.467 73.3778L10.1912 68.2514L15.3238 70.5133L12.467 73.3778Z" stroke="black" stroke-width="0.25"/>
<path d="M68.4855 81.5258L66.2097 76.3993L71.3423 78.6612L68.4855 81.5258Z" stroke="black" stroke-width="0.25"/>
<path d="M90.8935 77.4516L88.6177 72.3251L93.7503 74.587L90.8935 77.4516Z" stroke="black" stroke-width="0.25"/>
<path d="M93.9491 85.5995L91.6734 80.4731L96.8059 82.735L93.9491 85.5995Z" stroke="black" stroke-width="0.25"/>
<path d="M95.6806 78.9703L95.7566 74.3758L100.351 74.2874L95.6806 78.9703Z" stroke="black" stroke-width="0.25"/>
<path d="M78.3659 84.0621L78.4419 79.4676L83.0362 79.3792L78.3659 84.0621Z" stroke="black" stroke-width="0.25"/>
<path d="M25.403 78.9703L25.479 74.3758L30.0733 74.2874L25.403 78.9703Z" stroke="black" stroke-width="0.25"/>
<path d="M60.0329 78.9703L60.1089 74.3758L64.7032 74.2874L60.0329 78.9703Z" stroke="black" stroke-width="0.25"/>
<path d="M57.5703 72.8561L52.475 69.8517L57.0649 66.1205L57.5703 72.8561Z" stroke="black" stroke-width="0.25"/>
<path d="M46.3664 85.0787L41.2711 82.0743L45.861 78.3432L46.3664 85.0787Z" stroke="black" stroke-width="0.25"/>
<path d="M22.9406 73.8746L17.8453 70.8702L22.4353 67.1391L22.9406 73.8746Z" stroke="black" stroke-width="0.25"/>
<path d="M87.1069 81.0045L82.0116 78.0001L86.6015 74.269L87.1069 81.0045Z" stroke="black" stroke-width="0.25"/>
<path d="M92.1997 72.8561L87.1044 69.8517L91.6943 66.1205L92.1997 72.8561Z" stroke="black" stroke-width="0.25"/>
<path d="M52.107 78.725L49.2892 77.0635L51.8276 75.0001L52.107 78.725Z" stroke="black" stroke-width="0.25"/>
<path d="M37.848 85.8549L35.0302 84.1934L37.5685 82.13L37.848 85.8549Z" stroke="black" stroke-width="0.25"/>
<path d="M15.4408 78.725L12.623 77.0635L15.1613 75.0001L15.4408 78.725Z" stroke="black" stroke-width="0.25"/>
<path d="M40.9032 71.5961L38.0854 69.9346L40.6237 67.8712L40.9032 71.5961Z" stroke="black" stroke-width="0.25"/>
<path d="M75.5328 71.5961L72.715 69.9346L75.2533 67.8712L75.5328 71.5961Z" stroke="black" stroke-width="0.25"/>
<path d="M99.9772 71.5961L97.1593 69.9346L99.6977 67.8712L99.9772 71.5961Z" stroke="black" stroke-width="0.25"/>
<path d="M66.5714 72.7329L61.4268 71.1885L66.2833 68.8937L66.5714 72.7329Z" stroke="black" stroke-width="0.25"/>
<path d="M66.7857 88.0113L61.6411 86.4669L66.4977 84.1721L66.7857 88.0113Z" stroke="black" stroke-width="0.25"/>
<path d="M54.5633 84.9556L49.4187 83.4112L54.2753 81.1164L54.5633 84.9556Z" stroke="black" stroke-width="0.25"/>
<path d="M34.193 86.9922L29.0484 85.4478L33.9049 83.153L34.193 86.9922Z" stroke="black" stroke-width="0.25"/>
<path d="M20.1589 86.0521L12.7634 84.6574L19.8679 82.1748L20.1589 86.0521Z" stroke="black" stroke-width="0.25"/>
<path d="M49.8193 73.8289L42.4238 72.4343L49.5283 69.9517L49.8193 73.8289Z" stroke="black" stroke-width="0.25"/>
<path d="M89.0818 86.0922L80.3828 84.7892L88.7899 82.2026L89.0818 86.0922Z" stroke="black" stroke-width="0.25"/>
<path d="M73.1582 85.8957L69.6935 84.2582L72.875 82.122L73.1582 85.8957Z" stroke="black" stroke-width="0.25"/>
<path d="M77.9578 75.7883L74.4142 81.604L71.2358 75.5809L77.9578 75.7883Z" stroke="black" stroke-width="0.25"/>
<path d="M43.3282 75.7883L39.7846 81.604L36.6062 75.5809L43.3282 75.7883Z" stroke="black" stroke-width="0.25"/>
<path d="M33.0393 69.7613L31.0037 73.1022L29.1779 69.6422L33.0393 69.7613Z" stroke="black" stroke-width="0.25"/>
<path d="M35.076 77.9098L33.0403 81.2506L31.2145 77.7906L35.076 77.9098Z" stroke="black" stroke-width="0.25"/>
<path d="M53.4097 65.6871L51.3741 69.028L49.5482 65.568L53.4097 65.6871Z" stroke="black" stroke-width="0.25"/>
<path d="M70.7244 65.6871L68.6888 69.028L66.8629 65.568L70.7244 65.6871Z" stroke="black" stroke-width="0.25"/>
<path d="M8.59452 69.7613L6.55889 73.1022L4.73306 69.6422L8.59452 69.7613Z" stroke="black" stroke-width="0.25"/>
<path d="M12.6687 77.9098L10.6331 81.2506L8.80728 77.7906L12.6687 77.9098Z" stroke="black" stroke-width="0.25"/>
<path d="M38.1311 65.6871L36.0955 69.028L34.2697 65.568L38.1311 65.6871Z" stroke="black" stroke-width="0.25"/>
<path d="M3.05518 62.6393C4.92246 63.6578 9.16629 65.593 11.2033 65.1856C13.7496 64.6763 17.3144 62.6393 19.8607 62.6393C22.407 62.6393 25.4626 66.2041 28.5181 65.1856C31.5737 64.1671 34.6292 62.6393 36.6663 62.6393C38.7033 62.6393 42.2681 65.1856 44.3052 65.1856C46.3422 65.1856 51.9441 62.6393 53.9811 62.6393C56.0181 62.6393 59.5829 65.1856 62.1292 65.1856C64.6755 65.1856 68.2404 62.6393 70.2774 62.6393C72.3144 62.6393 77.407 66.2041 79.4441 65.1856C81.4811 64.1671 84.5367 61.6208 87.0829 62.6393C89.6292 63.6578 93.1941 65.1856 94.7218 65.1856C96.2496 65.1856 101.342 62.1303 102.361 62.6393" stroke="black" stroke-linecap="square"/>
<path d="M81.7265 73.3778L79.4507 68.2514L84.5833 70.5133L81.7265 73.3778Z" stroke="black" stroke-width="0.25"/>
<path d="M60.3378 85.5995L58.062 80.4731L63.1946 82.735L60.3378 85.5995Z" stroke="black" stroke-width="0.25"/>
<path d="M36.912 75.4149L34.6363 70.2885L39.7688 72.5504L36.912 75.4149Z" stroke="black" stroke-width="0.25"/>
<path d="M27.745 70.3222L25.4693 65.1957L30.6018 67.4576L27.745 70.3222Z" stroke="black" stroke-width="0.25"/>
<path d="M21.6344 78.4701L19.3587 73.3437L24.4912 75.6056L21.6344 78.4701Z" stroke="black" stroke-width="0.25"/>
<path d="M25.7079 86.6186L23.4322 81.4921L28.5647 83.754L25.7079 86.6186Z" stroke="black" stroke-width="0.25"/>
<path d="M16.3071 70.1954L14.7579 66.7057L18.2518 68.2454L16.3071 70.1954Z" stroke="black" stroke-width="0.25"/>
<path d="M56.029 77.3248L54.4798 73.8351L57.9737 75.3748L56.029 77.3248Z" stroke="black" stroke-width="0.25"/>
<path d="M71.3071 74.2692L69.7579 70.7794L73.2518 72.3192L71.3071 74.2692Z" stroke="black" stroke-width="0.25"/>
<path d="M85.5661 69.1764L84.0169 65.6866L87.5108 67.2264L85.5661 69.1764Z" stroke="black" stroke-width="0.25"/>
<path d="M16.2961 89.1201H92.1758" stroke="black" stroke-linecap="square"/>
<circle cx="55" cy="55" r="54.5" stroke="#2E75BA"/>
</svg>
