<svg width="110" height="110" viewBox="0 0 110 110" fill="none" xmlns="http://www.w3.org/2000/svg">
<path d="M51.6539 5.70403C51.0428 6.31513 50.7373 7.63921 51.0428 8.55588C51.3484 9.57439 51.2465 9.7781 50.6354 9.06513C49.2095 7.2318 43.3021 6.62069 38.4132 7.74106L33.8299 8.96328L36.3762 11.1022C37.7002 12.3244 39.228 14.1577 39.5336 15.2781C39.941 16.3985 39.941 17.0096 39.6354 16.6022C38.8206 15.8892 36.0706 17.9262 31.7928 22.5096L28.8391 25.7688L26.3947 23.3244C24.765 21.6948 22.8299 20.88 20.5891 20.9818L17.228 21.0837L21.0984 21.8985C29.2465 23.4262 30.0613 29.7411 22.6262 33.8151L17.941 36.3614L14.8854 34.2225C10.6076 31.2688 9.79282 31.5744 13.5613 34.7318C17.228 37.7874 17.941 42.9818 14.8854 43.8985C8.7743 45.8337 5.41319 47.8707 4.90393 50.1114C3.98727 53.5744 5.00579 55.204 8.3669 56.0188C15.3947 57.5466 16.4132 63.6577 9.99653 65.6948C7.95949 66.4077 6.63542 67.1207 6.83912 67.3244C7.65393 68.1392 13.0521 65.5929 14.9873 63.5559C16.7188 61.6207 16.8206 61.3151 15.2928 59.6855C13.1539 57.3429 13.2558 56.5281 15.7002 56.5281C17.1262 56.5281 17.5336 57.0374 17.0243 58.2596C16.3113 59.9911 16.4132 59.9911 18.1447 58.3614C20.0799 56.4262 25.2743 56.0188 34.8484 57.1392C40.7558 57.954 41.4688 59.1763 38.6169 64.6763C37.0891 67.63 36.2743 68.0374 30.265 69.2596C27.1076 69.8707 19.1632 66.917 17.6354 64.4725C17.3299 63.9633 16.7188 64.167 16.4132 64.88C16.1076 65.8985 17.5336 66.917 20.8947 68.0374C23.7465 69.0559 26.5984 70.9911 27.515 72.3151C29.1447 74.7596 29.0428 75.0651 25.478 79.4448C23.3391 81.9911 20.9965 84.0281 20.1817 84.0281C19.3669 84.0281 18.7558 84.4355 18.7558 85.0466C18.7558 85.5559 18.3484 86.0651 17.8391 86.0651C17.228 86.0651 16.9225 85.2503 17.0243 84.2318C17.1262 82.0929 12.7465 74.454 11.8299 75.2688C11.5243 75.5744 12.1354 76.7966 13.1539 77.917C14.1725 79.0374 14.5799 79.954 14.1725 79.954C13.6632 79.954 13.765 80.4633 14.478 81.1763C15.191 81.8892 15.7002 83.7225 15.7002 85.2503C15.7002 86.7781 15.9039 88.1022 16.2095 88.1022C17.7373 88.1022 22.728 84.2318 26.0891 80.5651C28.1262 78.2225 29.8576 77.0003 29.9595 77.6114C29.9595 78.3244 31.7928 79.8522 33.9317 80.8707C36.478 82.1948 38.3113 84.0281 38.9225 86.0651C39.5336 87.7966 39.6354 88.917 39.1262 88.6114C38.6169 88.3059 36.0706 90.1392 33.4225 92.6855C28.6354 97.2688 28.5336 97.2688 26.7002 95.2318C25.6817 94.1114 24.0521 93.1948 23.0336 93.2966C21.6076 93.2966 21.6076 93.5003 22.8299 93.9077C23.6447 94.2133 25.3762 95.4355 26.5984 96.5559L28.8391 98.5929L33.015 94.3151C35.2558 92.0744 37.9039 90.1392 38.9225 90.1392C41.1632 90.1392 50.5336 93.1948 51.7558 94.3151C52.978 95.4355 49.8206 101.954 46.9688 103.889C45.7465 104.704 45.2373 105.417 45.8484 105.417C46.3576 105.417 47.7836 104.704 49.0058 103.889C50.5336 102.871 51.9595 102.667 53.5891 103.176C58.0706 104.908 61.7373 105.519 61.1262 104.5C60.8206 103.991 58.6817 103.278 56.441 102.871C53.0799 102.26 52.3669 101.75 52.3669 99.8151C52.3669 96.454 57.4595 92.5837 63.7743 91.1577L69.1725 90.0374L71.9225 93.3985C73.4502 95.2318 74.7743 98.0837 74.7743 99.6114C74.7743 101.241 75.1817 102.26 75.691 101.954C76.2002 101.648 76.4039 100.528 76.0984 99.4077C75.7928 98.0837 76.6076 96.9633 79.0521 95.4355C80.9873 94.2133 83.6354 92.2781 84.9595 91.1577C86.4873 89.8337 88.4225 89.1207 89.8484 89.4263C91.5799 89.7318 91.8854 89.5281 91.1725 88.8151C90.5613 88.204 90.0521 86.6763 90.0521 85.454C90.0521 83.8244 91.2743 82.8059 95.1447 81.1763C99.6262 79.2411 100.237 78.7318 100.237 75.9818C100.237 73.8429 99.2188 71.9077 96.978 69.667C93.8206 66.6114 93.7188 66.5096 96.1632 67.2225C101.765 68.7503 103.497 68.7503 99.2188 67.1207C93.5151 65.0837 92.0891 63.9633 92.0891 61.5188C92.0891 59.4818 102.478 53.88 104.311 55.0003C104.821 55.3059 105.33 55.204 105.33 54.6948C105.33 54.1855 104.413 53.4725 103.293 53.167C100.747 52.454 100.645 49.9077 103.293 47.667C106.145 45.2225 104.108 43.2874 98.5058 43.2874C93.5151 43.2874 90.0521 41.8614 90.0521 39.9262C90.0521 39.2133 92.0891 36.5651 94.6354 34.1207C97.0799 31.6762 99.0151 29.4355 98.7095 29.2318C98.5058 28.9262 96.1632 30.9633 93.7188 33.7133L89.1354 38.704L86.7928 36.0559C85.4688 34.63 82.5151 32.1855 80.1725 30.7596C77.728 29.2318 75.7928 27.6022 75.7928 27.0929C75.7928 26.5837 78.5428 24.1392 81.9039 21.6948C85.2651 19.3522 88.0151 17.0096 88.0151 16.6022C88.0151 16.1948 85.5706 17.6207 82.7188 19.8614C79.7651 22.1022 76.8113 23.9355 76.0984 23.9355C75.4873 23.9355 73.9595 22.5096 72.7373 20.88C71.2095 18.6392 69.6817 17.8244 67.6447 17.8244C61.7373 17.8244 62.9595 9.57439 69.0706 8.35217C70.191 8.14847 69.8854 8.04662 68.1539 8.35217C66.5243 8.55588 62.1447 8.96328 58.5799 9.16698L52.1632 9.67625L52.7743 7.12995C53.4873 4.2781 53.2836 4.07439 51.6539 5.70403ZM47.9873 9.16698C49.9225 9.9818 54.0984 10.6948 57.0521 10.6948H62.5521V14.4633C62.5521 18.0281 62.2465 18.4355 57.6632 20.5744C55.015 21.7966 52.7743 22.4077 52.5706 21.8985C52.3669 21.2874 49.7188 20.167 46.6632 19.2503C41.6725 17.8244 41.1632 17.417 41.1632 14.7688C41.1632 12.8337 40.5521 11.8151 39.1262 11.4077C38.0058 11.1022 37.0891 10.2874 37.0891 9.67625C37.0891 8.96328 37.9039 8.65773 39.1262 8.96328C40.2465 9.26884 41.4688 9.06513 41.7743 8.55588C42.4873 7.33366 43.7095 7.4355 47.9873 9.16698ZM45.3391 19.9633C52.265 21.8985 52.978 22.917 50.4317 27.8059C49.3113 30.0466 47.478 32.1855 46.4595 32.4911C44.2188 33.204 28.941 32.7966 28.941 32.0837C28.941 31.7781 29.4502 29.8429 29.9595 27.8059C31.0799 23.8337 37.7002 17.417 39.7373 18.2318C40.4502 18.5374 42.9965 19.2503 45.3391 19.9633ZM72.5336 22.3059C75.2836 26.38 75.1817 29.8429 72.228 31.4725C71.1076 32.0837 68.9688 33.4077 67.441 34.4262C64.7928 36.1577 64.5891 36.1577 62.5521 34.1207C61.4317 33.0003 60.0058 32.0837 59.3947 32.0837C58.6817 32.0837 59.3947 33.0003 60.9225 34.2225C65.2002 37.5837 64.0799 42.7781 58.9873 43.2874C48.8021 44.4077 42.8947 42.167 41.6725 36.8707C41.0613 34.4262 41.265 34.1207 43.5058 34.1207C44.8299 34.1207 47.1725 33.204 48.5984 32.0837C50.228 30.7596 51.4502 30.454 51.8576 31.0651C52.1632 31.5744 53.691 32.0837 55.2188 31.9818L57.9688 31.88L55.4225 31.167C47.478 29.0281 56.8484 19.1485 67.1354 18.9448C69.478 18.8429 70.7002 19.6577 72.5336 22.3059ZM82.1076 33.4077C89.2373 38.9077 88.3206 43.1855 79.9688 43.3892C76.8113 43.4911 75.9965 43.6948 77.5243 44.1022L79.6632 44.8151L77.3206 46.6485C74.978 48.2781 74.8762 48.2781 73.4502 46.3429C72.7373 45.3244 70.9039 43.8985 69.3762 43.3892C66.1169 42.167 64.8947 39.6207 66.3206 37.2781C67.2373 35.7503 75.3854 30.3522 77.0151 30.1485C77.3206 30.0466 79.6632 31.5744 82.1076 33.4077ZM35.5613 34.3244C39.228 34.4262 39.7373 34.8337 39.941 36.9725C40.1447 40.0281 39.0243 41.5559 33.3206 45.4262L28.941 48.4818L26.191 46.4448C24.765 45.2225 22.2188 44.3059 20.691 44.3059C18.3484 44.3059 17.7373 43.7966 17.7373 42.167C17.7373 37.0744 23.5428 32.5929 28.941 33.6114C30.3669 33.917 33.3206 34.2225 35.5613 34.3244ZM44.2188 42.7781C44.9317 43.5929 47.0706 44.3059 48.9039 44.3059C52.6725 44.3059 53.0799 45.1207 51.2465 50.3151C49.7188 54.6948 42.7928 58.1577 38.6169 56.5281C37.0891 55.917 33.6262 55.4077 30.8762 55.3059C28.1262 55.3059 26.191 54.7966 26.4965 54.2874C26.8021 53.7781 27.4132 53.5744 27.7188 53.9818C28.0243 54.2874 28.8391 53.167 29.3484 51.5374C30.0613 49.704 32.5058 47.0559 35.5613 45.0188C41.3669 40.9448 42.4873 40.6392 44.2188 42.7781ZM91.478 42.7781C92.5984 43.5929 95.4502 44.3059 97.8947 44.3059C101.052 44.3059 102.274 44.7133 102.274 45.7318C102.274 46.5466 101.765 47.5651 101.154 47.9725C100.543 48.2781 100.237 49.9077 100.441 51.5374C100.747 53.167 100.645 54.2874 100.441 53.9818C100.135 53.6762 99.3206 54.2874 98.6076 55.3059C97.2836 57.1392 89.441 57.5466 81.7002 56.0188C73.9595 54.4911 73.8576 48.5837 81.3947 45.2225C83.8391 44.1022 86.1817 42.7781 86.4873 42.2688C87.4039 40.8429 89.2373 41.0466 91.478 42.7781ZM67.9502 43.7966C71.8206 45.4262 74.7743 48.7874 74.7743 51.5374C74.7743 52.5559 72.7373 54.4911 69.9873 56.0188C65.3021 58.8707 65.2002 58.8707 60.6169 57.1392C58.0706 56.2225 55.1169 55.5096 54.2002 55.5096C51.9595 55.5096 51.7558 51.6392 53.8947 48.7874C55.6262 46.5466 55.9317 44.917 54.4039 45.8337C53.8947 46.1392 53.3854 46.0374 53.3854 45.63C53.3854 45.1207 55.3206 44.7133 57.6632 44.6114C59.9039 44.5096 62.3484 43.8985 62.9595 43.2874C64.1817 42.0651 63.6725 41.9633 67.9502 43.7966ZM24.6632 46.954C27.1076 48.6855 27.6169 52.3522 25.6817 54.2874C24.1539 55.8151 11.8299 55.917 8.16319 54.4911C5.20949 53.3707 4.70023 50.3151 6.94097 48.4818C10.8113 45.3244 21.0984 44.4077 24.6632 46.954ZM51.3484 54.4911C51.3484 55.0003 50.8391 55.5096 50.228 55.5096C49.7188 55.5096 49.515 55.0003 49.8206 54.4911C50.1262 53.88 50.6354 53.4725 50.941 53.4725C51.1447 53.4725 51.3484 53.88 51.3484 54.4911ZM75.7928 55.5096C75.1817 55.917 77.0151 56.5281 79.9688 56.7318C83.941 57.1392 85.8762 57.8522 87.4039 59.6855C88.728 61.3151 89.1354 61.5188 88.728 60.2966C88.2188 59.0744 88.6262 58.5651 89.9502 58.5651C91.3762 58.5651 91.6817 59.1763 91.2743 61.1114C91.0706 62.5374 90.5613 63.5559 90.3576 63.2503C90.0521 62.9448 88.8299 63.8614 87.6076 65.0837C84.6539 68.3429 78.5428 69.7688 71.2095 68.954C65.2002 68.2411 65.0984 68.1392 64.7928 64.9818C64.3854 61.2133 67.441 57.5466 70.9039 57.5466C72.1262 57.5466 72.7373 57.2411 72.4317 56.8337C71.5151 56.0188 74.978 53.4725 76.0984 54.1855C76.6076 54.4911 76.5058 55.1022 75.7928 55.5096ZM60.6169 58.667C61.941 59.38 63.3669 59.8892 63.7743 59.7874C64.4873 59.5837 63.1632 64.88 62.0428 66.7133C61.7373 67.2225 59.0891 67.7318 56.3391 67.7318C52.8762 67.7318 51.4502 68.1392 51.9595 68.8522C52.3669 69.667 51.8576 69.7688 50.3299 69.2596C49.0058 68.8522 45.7465 68.4448 42.9965 68.4448C40.3484 68.4448 38.1076 68.0374 38.1076 67.5281C38.1076 67.1207 38.8206 67.0188 39.6354 67.3244C40.7558 67.8337 40.9595 67.5281 40.5521 66.3059C39.7373 64.167 41.8762 58.8707 44.1169 57.4448C46.2558 56.1207 57.4595 56.9355 60.6169 58.667ZM95.4502 69.3614C99.3206 73.7411 100.237 76.8985 97.9965 78.63C97.2836 79.1392 94.5336 80.3614 91.8854 81.38C87.2002 83.1114 87.0984 83.1114 83.0243 80.5651C76.0984 76.1855 75.9965 70.38 82.7188 69.2596C84.9595 68.954 87.6076 67.7318 88.6262 66.6114C90.7651 64.167 90.7651 64.167 95.4502 69.3614ZM63.4688 69.9725C62.1447 70.38 63.1632 70.38 65.8113 70.0744C68.4595 69.7688 71.8206 69.7688 73.1447 70.1763C76.5058 70.9911 77.1169 74.2503 74.3669 76.6948C71.7188 79.1392 68.1539 80.0559 59.3947 80.667L52.7743 81.1763L52.8762 75.167L53.0799 69.2596H56.7465C58.7836 69.2596 60.9225 68.6485 61.6354 68.0374C62.6539 67.0188 63.265 67.0188 64.3854 68.0374C65.6076 69.0559 65.5058 69.3614 63.4688 69.9725ZM51.1447 70.9911C52.4688 72.3151 52.7743 75.7781 51.5521 77.5096C51.1447 78.2225 46.9688 78.8337 41.6725 79.0374L32.5058 79.4448L30.7743 75.9818C28.1262 70.6855 29.4502 69.7688 40.5521 69.7688C46.4595 69.7688 50.3299 70.1763 51.1447 70.9911ZM78.0336 78.1207C78.3391 78.8337 80.2743 80.3614 82.5151 81.4818C84.6539 82.6022 86.5891 84.3337 86.7928 85.3522C87.3021 87.6948 84.0428 91.2596 79.2558 93.8059L75.5891 95.7411L72.8391 92.38C70.9039 90.2411 69.1725 89.1207 67.2373 89.1207C61.5336 89.1207 62.9595 81.6855 68.8669 80.5651C70.8021 80.2596 73.2465 79.2411 74.3669 78.4263C76.8113 76.5929 77.5243 76.5929 78.0336 78.1207ZM41.1632 81.1763C41.1632 80.2596 42.5891 79.954 46.1539 80.1577C48.9039 80.3614 50.941 80.7688 50.7373 81.1763C50.0243 82.2966 52.7743 82.8059 57.765 82.1948L62.5521 81.6855V85.9633C62.5521 89.63 62.1447 90.3429 59.8021 91.2596C56.441 92.5837 47.9873 91.8707 44.015 90.0374C42.1817 89.2225 41.1632 88.0003 41.1632 86.6763C41.1632 85.454 40.1447 83.9263 39.0243 83.1114C37.2928 82.0929 37.0891 81.5837 38.2095 80.9725C39.0243 80.3614 39.8391 80.5651 40.3484 81.2781C40.9595 82.1948 41.1632 82.1948 41.1632 81.1763ZM88.728 87.2874C88.4225 88.0003 88.2188 87.4911 88.2188 86.0651C88.2188 84.6392 88.4225 84.13 88.728 84.7411C88.9317 85.454 88.9317 86.6763 88.728 87.2874ZM55.4225 93.6022C55.4225 94.7225 53.4873 95.13 52.8762 94.2133C52.5706 93.704 52.978 93.1948 53.7928 93.1948C54.7095 93.1948 55.4225 93.3985 55.4225 93.6022Z" fill="black"/>
<circle cx="55" cy="55" r="54.5" stroke="#4576B5"/>
</svg>
