<svg width="480" height="167" viewBox="0 0 480 167" fill="none" xmlns="http://www.w3.org/2000/svg">
<path d="M277.819 3.06218C280.101 5.12321 282.18 7.06351 284.339 8.92843C285.367 9.81573 285.997 10.7568 285.799 12.0815C285.725 12.5726 285.787 13.0803 285.787 13.5804C285.787 59.992 285.77 106.404 285.836 152.815C285.84 155.086 285.251 156.78 283.339 158.304C280.855 160.285 278.559 162.468 276.284 164.651C275.145 165.744 273.966 166.247 272.247 166.242C253.441 166.186 234.633 166.193 215.826 166.233C214.271 166.237 213.112 165.871 212.031 164.844C209.515 162.453 206.972 160.075 204.275 157.856C202.731 156.586 202.281 155.218 202.284 153.382C202.34 122.674 202.324 91.9664 202.324 61.2588C202.324 45.3548 202.373 29.4506 202.271 13.5471C202.255 11.1575 202.922 9.40646 204.948 7.81842C207.532 5.79214 209.863 3.49692 212.246 1.26836C213.157 0.417239 214.127 0.0632133 215.459 0.0656685C234.487 0.100773 253.516 0.133721 272.544 0.0379153C275.146 0.0248173 276.087 1.76389 277.819 3.06218ZM264.08 59.1334C264.08 45.4695 264.08 31.8057 264.08 18.1871C258.494 17.6011 226.109 17.8009 223.791 18.3879C223.791 61.6472 223.791 104.903 223.791 148.386C237.313 148.355 250.624 148.435 264.08 148.337C264.08 118.527 264.08 89.1303 264.08 59.1334Z" fill="url(#paint0_linear_2115_873)"/>
<path d="M386.055 59.4334C386.055 67.2348 385.979 74.7371 386.107 82.2365C386.14 84.2172 385.48 85.6091 383.895 86.9215C381.368 89.0129 378.954 91.2251 376.622 93.4958C375.458 94.6298 374.215 95.0521 372.538 94.9855C369.892 94.8806 367.237 94.9576 364.019 94.9576C374.191 118.701 384.244 142.168 394.306 165.657C391.65 166.331 378.112 166.517 371.762 166.003C362.19 142.463 352.571 118.807 342.937 95.1122C338.038 95.1122 333.334 95.1122 328.273 95.1122C328.273 118.809 328.273 142.353 328.273 166.051C321.21 166.051 314.501 166.051 307.787 166.051C307.033 163.779 306.656 10.1378 307.404 0.341281C308.182 0.260895 309.014 0.100445 309.846 0.0998937C330.754 0.0860032 351.661 0.101955 372.568 0.062517C374.126 0.0595784 375.279 0.438283 376.358 1.46221C378.952 3.923 381.585 6.35853 384.34 8.66924C385.691 9.80241 386.091 11.0207 386.086 12.6261C386.035 28.1284 386.055 43.6308 386.055 59.4334ZM364.347 46.5254C364.347 37.0655 364.347 27.6056 364.347 18.0585C352.175 18.0585 340.399 18.0585 328.487 18.0585C328.487 37.8264 328.487 57.451 328.487 77.1863C340.461 77.1863 352.234 77.1863 364.347 77.1863C364.347 67.0641 364.347 57.095 364.347 46.5254Z" fill="url(#paint1_linear_2115_873)"/>
<path d="M84.133 141.684C84.1329 146.086 84.0927 150.188 84.1566 154.288C84.1766 155.576 83.7974 156.544 82.739 157.457C79.9383 159.873 77.2187 162.367 74.5259 164.882C73.5438 165.799 72.5212 166.237 71.055 166.233C52.0258 166.191 32.9964 166.19 13.9672 166.235C12.4923 166.238 11.4811 165.78 10.5031 164.868C7.80721 162.356 5.07655 159.872 2.29527 157.438C1.35998 156.619 0.879788 155.786 0.885421 154.569C0.937866 143.167 0.929963 131.764 0.947026 120.361C0.94731 120.172 1.04158 119.983 1.14862 119.583C8.0045 119.583 14.9202 119.583 22.3197 119.583C22.4732 128.988 22.2978 138.52 22.4169 148.211C35.9188 148.211 49.1484 148.211 62.388 148.211C63.0036 146.123 63.1679 94.6634 62.5131 90.5584C61.3895 90.5584 60.202 90.5584 59.0146 90.5584C44.3 90.5584 29.5852 90.5219 14.8712 90.6004C12.815 90.6114 11.3385 90.1249 9.95586 88.7477C7.72773 86.5284 5.36937 84.4032 2.91991 82.383C1.40561 81.1342 0.84631 79.8074 0.860942 77.9389C0.956307 65.7359 0.909982 53.532 0.909982 41.3284C0.909982 31.8256 0.974099 22.3222 0.857821 12.8205C0.833585 10.8368 1.49283 9.44631 3.07047 8.13384C5.592 6.03616 8.00389 3.82233 10.3412 1.55564C11.5007 0.431136 12.7406 0.0564724 14.4175 0.0607552C33.1148 0.108486 51.8124 0.11166 70.5096 0.0576611C72.3164 0.0524417 73.6186 0.5121 74.8506 1.69715C77.4254 4.1739 80.1967 6.48396 82.766 8.96518C83.4477 9.62348 84.0691 10.6529 84.0745 11.5152C84.1463 23.0175 84.1045 34.5205 84.0806 46.0232C84.0802 46.2033 83.9484 46.3831 83.807 46.7443C76.9868 46.7443 70.0956 46.7443 62.895 46.7443C62.895 37.1449 62.895 27.6906 62.895 18.0774C49.3557 18.0774 36.1236 18.0774 22.8892 18.0774C22.2581 20.1202 22.0651 68.2259 22.732 72.5413C23.8418 72.5413 25.0202 72.5413 26.1986 72.5413C40.8025 72.5413 55.4066 72.5733 70.0101 72.5059C72.1413 72.4961 73.7677 72.9127 75.2382 74.4042C77.4431 76.6405 79.8236 78.7477 82.2666 80.7748C83.6931 81.9585 84.1762 83.237 84.1707 84.9682C84.1104 103.773 84.133 122.579 84.133 141.684Z" fill="url(#paint2_linear_2115_873)"/>
<path d="M105.828 92.454C105.828 61.566 105.828 30.9782 105.828 0.0912977C107.259 0.0912977 108.337 0.0912977 109.414 0.0912977C129.335 0.0912953 149.256 0.115268 169.176 0.0564655C171.311 0.0501628 172.934 0.474171 174.412 1.96108C176.776 4.33904 179.345 6.55509 181.899 8.77239C182.999 9.72811 183.56 10.7124 183.557 12.1576C183.511 36.8724 183.51 61.5873 183.557 86.302C183.56 87.7487 182.993 88.7301 181.895 89.6854C179.263 91.9735 176.638 94.2765 174.163 96.7006C172.838 97.9975 171.401 98.4029 169.502 98.394C156.775 98.3346 144.048 98.3631 131.321 98.3631C130.119 98.3631 128.918 98.3631 127.32 98.3631C127.32 121.026 127.32 143.472 127.32 166.055C120.011 166.055 113.098 166.055 105.828 166.055C105.828 141.522 105.828 117.138 105.828 92.454ZM127.293 48.927C127.338 59.4142 127.383 69.9014 127.437 80.3886C127.437 80.4638 127.566 80.5393 127.636 80.6132C127.708 80.6885 127.782 80.7622 127.785 80.7647C139.104 80.7647 150.333 80.7647 161.607 80.7647C161.607 59.7579 161.607 38.936 161.607 18.1351C155.652 17.5813 129.829 17.7921 127.293 18.4414C127.293 28.3694 127.293 38.348 127.293 48.927Z" fill="url(#paint3_linear_2115_873)"/>
<path d="M450.013 129.077C450.013 141.55 450.013 153.723 450.013 166.049C442.762 166.049 435.853 166.049 428.572 166.049C428.572 116.695 428.572 67.4572 428.572 17.9626C418.521 17.9626 408.834 17.9626 398.909 17.9626C398.909 11.9704 398.909 6.23027 398.909 0.289795C425.711 0.289795 452.533 0.289795 479.625 0.289795C479.625 5.99158 479.625 11.7302 479.625 17.8217C469.947 17.8217 460.171 17.8217 450.013 17.8217C450.013 55.0391 450.013 91.9078 450.013 129.077Z" fill="url(#paint4_linear_2115_873)"/>
<defs>
<linearGradient id="paint0_linear_2115_873" x1="244.053" y1="0.0378418" x2="244.053" y2="166.242" gradientUnits="userSpaceOnUse">
<stop stop-color="white"/>
<stop offset="1" stop-color="#999999"/>
</linearGradient>
<linearGradient id="paint1_linear_2115_873" x1="350.652" y1="0.0625" x2="350.652" y2="166.298" gradientUnits="userSpaceOnUse">
<stop stop-color="white"/>
<stop offset="1" stop-color="#999999"/>
</linearGradient>
<linearGradient id="paint2_linear_2115_873" x1="42.514" y1="0.0576172" x2="42.514" y2="166.235" gradientUnits="userSpaceOnUse">
<stop stop-color="white"/>
<stop offset="1" stop-color="#999999"/>
</linearGradient>
<linearGradient id="paint3_linear_2115_873" x1="144.692" y1="0.0563965" x2="144.692" y2="166.055" gradientUnits="userSpaceOnUse">
<stop stop-color="white"/>
<stop offset="1" stop-color="#999999"/>
</linearGradient>
<linearGradient id="paint4_linear_2115_873" x1="439.267" y1="0.289795" x2="439.267" y2="166.049" gradientUnits="userSpaceOnUse">
<stop stop-color="white"/>
<stop offset="1" stop-color="#999999"/>
</linearGradient>
</defs>
</svg>
