<svg width="425" height="170" viewBox="0 0 425 170" fill="none" xmlns="http://www.w3.org/2000/svg">
<path d="M59.1176 0.813056C63.7656 0.813074 68.0822 0.854316 72.3969 0.788449C73.7194 0.768277 74.6977 1.10034 75.6212 1.95878C78.7842 4.89877 81.9871 7.80498 85.2359 10.6674C86.0968 11.4259 86.5795 12.2032 86.4633 13.2906C86.4104 13.7862 86.4548 14.2903 86.4548 14.7906C86.4549 61.8168 86.4401 108.843 86.5024 155.869C86.5052 158.026 85.9846 159.632 84.1595 161.11C81.2794 163.444 78.601 165.987 75.9225 168.515C74.8502 169.527 73.7299 169.96 72.1555 169.957C52.9 169.913 33.6443 169.916 14.3887 169.953C12.9501 169.955 11.896 169.588 10.8974 168.656C7.89557 165.853 4.86228 163.074 1.73407 160.388C0.499391 159.328 0.0816964 158.214 0.0921528 156.701C0.158621 146.996 0.126035 137.29 0.126035 127.585C0.126035 90.0641 0.147759 52.5432 0.0732662 15.0224C0.0687269 12.7385 0.706414 11.0769 2.60505 9.55602C5.16811 7.50292 7.59387 5.28782 9.87988 2.98135C11.4814 1.36548 13.1829 0.739126 15.6268 0.758108C30.0121 0.86978 44.3992 0.813037 59.1176 0.813056ZM61.882 88.0724C61.882 65.9998 61.882 43.9273 61.882 21.8603C49.298 21.8603 37.0964 21.8603 24.9014 21.8603C24.9014 64.354 24.9014 106.622 24.9014 148.89C37.3164 148.89 49.5275 148.89 61.8821 148.89C61.8821 128.674 61.8821 108.673 61.882 88.0724Z" fill="#3B6F97"/>
<path d="M183.534 4.69357C185.811 6.75651 187.985 8.61536 189.996 10.6096C190.67 11.2785 191.311 12.2911 191.314 13.1488C191.366 25.7511 191.308 38.3538 191.272 50.9564C191.272 51.0532 191.221 51.1499 191.136 51.4515C183.192 51.4515 175.188 51.4515 166.925 51.4515C166.925 41.6147 166.925 31.8493 166.925 21.8617C154.363 21.8617 142.056 21.8617 129.573 21.8617C129.573 64.1605 129.573 106.432 129.573 148.904C141.807 148.904 154.037 148.904 166.304 148.904C166.935 146.95 167.18 101.594 166.523 96.1937C159.077 96.1937 151.595 96.1937 144.196 96.1937C143.408 93.8934 143.175 82.1117 143.718 75.7421C146.027 75.135 185.369 74.9228 191.189 75.5124C191.248 76.2327 191.365 76.9965 191.365 77.7604C191.375 104.072 191.358 130.383 191.41 156.695C191.413 158.331 190.891 159.498 189.589 160.614C186.618 163.158 183.742 165.796 180.897 168.457C179.838 169.447 178.763 169.965 177.161 169.961C157.797 169.913 138.433 169.913 119.069 169.96C117.478 169.964 116.384 169.478 115.321 168.48C112.559 165.886 109.778 163.301 106.86 160.853C105.421 159.647 105.001 158.346 105.008 156.636C105.068 142.931 105.042 129.225 105.042 115.519C105.042 82.1042 105.077 48.6897 104.973 15.2755C104.965 12.7366 105.729 10.9611 107.791 9.31007C110.437 7.19158 112.947 4.91035 115.297 2.52251C116.714 1.08228 118.27 0.777676 120.259 0.782898C138.848 0.831854 157.437 0.847501 176.026 0.76628C178.315 0.756258 180.093 1.1947 181.504 2.83497C182.043 3.46177 182.741 3.97656 183.534 4.69357Z" fill="#3B6F97"/>
<path d="M424.247 11.3412C424.356 24.3308 424.345 37.1528 424.323 50.2551C416.478 50.5354 408.644 50.5354 400.418 50.5354C400.418 41.017 400.418 31.4957 400.418 21.8079C387.834 21.8079 375.64 21.8079 363.29 21.8079C363.29 38.9639 363.29 56.008 363.29 73.4593C364.467 73.4593 365.635 73.4593 366.802 73.4593C381.058 73.4593 395.314 73.4909 409.569 73.4249C411.69 73.4151 413.295 73.8386 414.791 75.308C417.783 78.245 421.001 80.9931 424.246 83.9867C424.365 109.002 424.363 133.85 424.405 158.98C420.91 162.556 417.414 165.89 413.789 169.106C413.184 169.643 412.023 169.893 411.118 169.895C391.642 169.938 372.165 169.914 352.688 169.957C351.222 169.96 350.197 169.533 349.209 168.614C346.124 165.746 342.994 162.915 339.831 160.116C338.989 159.37 338.538 158.619 338.542 157.513C338.582 145.507 338.572 133.5 338.586 121.494C338.586 121.208 338.712 120.922 338.819 120.466C346.737 120.466 354.661 120.466 363.038 120.466C363.287 129.845 363.017 139.291 363.188 148.915C375.546 148.915 387.755 148.915 400.141 148.915C400.141 130.773 400.141 112.715 400.141 94.2811C398.895 94.2811 397.716 94.2811 396.537 94.2811C382.261 94.2811 367.985 94.2406 353.71 94.3243C351.537 94.337 349.973 93.8009 348.507 92.3605C345.962 89.8592 343.307 87.4357 340.531 85.1448C338.995 83.8767 338.516 82.5263 338.522 80.6887C338.589 61.9788 338.563 43.2686 338.563 24.5584C338.563 20.9564 338.629 17.3531 338.531 13.7533C338.492 12.3325 338.989 11.3167 340.108 10.343C343.215 7.63697 346.261 4.87058 349.265 2.06987C350.267 1.13532 351.333 0.785575 352.773 0.788379C372.028 0.826012 391.283 0.829218 410.539 0.784568C412.117 0.780922 413.223 1.23276 414.295 2.2368C417.524 5.25823 420.843 8.2005 424.247 11.3412Z" fill="#3B6F97"/>
<path d="M252.457 129.798C252.478 86.8811 252.499 44.2639 252.533 1.64678C252.533 1.4747 252.707 1.30271 252.886 0.971558C276.774 0.971558 300.748 0.971558 324.735 0.971558C325.439 2.99923 325.674 14.6068 325.095 21.5813C321.226 21.7032 317.289 21.6185 313.359 21.6339C309.375 21.6496 305.392 21.6374 301.408 21.6374C297.425 21.6374 293.441 21.6374 289.458 21.6374C285.48 21.6374 281.501 21.6374 277.279 21.6374C277.279 39.115 277.279 56.4428 277.279 74.015C289.498 74.015 301.625 74.015 313.984 74.015C313.984 80.8862 313.984 87.5179 313.984 94.3904C301.834 94.3904 289.707 94.3904 277.662 94.3904C276.888 96.718 276.638 143.581 277.342 149.104C285.211 149.104 293.134 149.104 301.058 149.104C309.001 149.104 316.944 149.104 325.086 149.104C325.086 156.106 325.086 162.845 325.086 169.758C300.919 169.758 276.867 169.758 252.457 169.758C252.457 156.45 252.457 143.274 252.457 129.798Z" fill="#3B6F97"/>
<path d="M209.741 44.5454C209.741 29.8658 209.741 15.4863 209.741 0.96106C217.998 0.96106 225.919 0.96106 234.078 0.96106C234.078 57.1822 234.078 113.35 234.078 169.724C226.074 169.724 218.075 169.724 209.741 169.724C209.741 128.035 209.741 86.4403 209.741 44.5454Z" fill="#3B6F97"/>
</svg>
