<svg width="315" height="114" viewBox="0 0 315 114" fill="none" xmlns="http://www.w3.org/2000/svg">
<path d="M314.992 51.869C313.165 51.9294 311.338 51.9204 309.511 51.9093C308.693 51.9044 308.684 51.9057 308.389 51.1082C306.232 45.288 304.079 39.466 301.923 33.6454C301.436 32.333 300.94 31.0242 300.442 29.6952C299.082 29.6952 297.767 29.6952 296.319 29.6952C296.281 30.7469 296.305 31.7965 296.301 32.8443C296.297 33.8754 296.3 34.9064 296.3 35.9375C296.3 36.9998 296.3 38.062 296.3 39.1243C296.3 40.1866 296.3 41.2489 296.3 42.3112C296.3 43.3735 296.3 44.4358 296.3 45.498C296.3 46.5291 296.3 47.5601 296.3 48.5912C296.3 49.6518 296.3 50.7124 296.3 51.841C294.345 51.841 292.44 51.841 290.528 51.841C290.336 51.2145 290.286 1.17111 290.5 0.0283718C290.789 0.0283718 291.097 0.0283718 291.405 0.0283718C297.14 0.028371 302.875 0.0360662 308.61 0.0171116C309.22 0.0150952 309.68 0.153061 310.1 0.615093C310.774 1.35665 311.504 2.04947 312.232 2.7415C312.546 3.04032 312.703 3.3489 312.702 3.79939C312.689 11.1729 312.689 18.5464 312.702 25.9199C312.702 26.3661 312.559 26.6796 312.241 26.9805C311.467 27.7144 310.705 28.4625 309.969 29.2335C309.659 29.5581 309.329 29.6802 308.888 29.6642C308.133 29.637 307.377 29.6567 306.518 29.6567C306.667 30.1123 306.778 30.5175 306.931 30.9068C309.229 36.7753 311.534 42.6407 313.831 48.5096C314.194 49.4382 314.523 50.3802 314.93 51.3464C314.992 51.5174 314.992 51.658 314.992 51.869ZM306.512 7.59599C306.512 6.95146 306.512 6.30694 306.512 5.66375C303.052 5.66375 299.707 5.66375 296.37 5.66375C296.178 7.56372 296.257 23.4515 296.453 24.1037C299.779 24.1037 303.103 24.1037 306.512 24.1037C306.512 18.6282 306.512 13.2056 306.512 7.59599Z" fill="url(#paint0_linear_2036_11)"/>
<path d="M314.819 87.1885C314.819 87.1885 314.909 87.1939 314.955 87.1937C315 94.9478 315 102.702 315 110.544C315 110.632 314.923 110.658 314.87 110.564C314.817 102.71 314.818 94.9491 314.819 87.1885Z" fill="url(#paint1_linear_2036_11)"/>
<path d="M314.996 76.6044C314.963 76.6941 314.93 76.6959 314.851 76.6053C314.808 72.5083 314.811 68.5036 314.814 64.499C314.814 64.499 314.905 64.5044 314.95 64.5042C314.996 68.5082 314.996 72.5124 314.996 76.6044Z" fill="url(#paint2_linear_2036_11)"/>
<path d="M122.502 74.4158C124.758 81.4823 126.996 88.4765 129.234 95.4707C129.293 95.4593 129.353 95.4479 129.412 95.4365C129.412 84.0587 129.412 72.6809 129.412 61.3226C130.13 61.1232 134.751 61.0856 135.881 61.2589C135.881 78.7952 135.881 96.3389 135.881 113.93C133.547 113.93 131.256 113.93 128.885 113.93C125.225 102.477 121.556 90.9954 117.887 79.5139C117.84 79.5195 117.792 79.5251 117.745 79.5307C117.745 90.965 117.745 102.399 117.745 113.81C117.003 114.011 112.772 114.066 111.221 113.91C111.221 96.3748 111.221 78.8328 111.221 61.2249C113.533 61.2249 115.848 61.2249 118.267 61.2249C119.664 65.5726 121.074 69.958 122.502 74.4158Z" fill="url(#paint3_linear_2036_11)"/>
<path d="M210.791 61.1569C212.115 61.1569 213.344 61.1698 214.573 61.1493C214.95 61.143 215.228 61.2467 215.491 61.5148C216.392 62.433 217.304 63.3407 218.23 64.2347C218.475 64.4716 218.612 64.7144 218.579 65.054C218.564 65.2088 218.577 65.3662 218.577 65.5225C218.577 80.2099 218.573 94.8973 218.59 109.585C218.591 110.258 218.443 110.76 217.923 111.222C217.103 111.95 216.34 112.745 215.577 113.534C215.272 113.85 214.953 113.986 214.504 113.985C209.02 113.971 203.536 113.972 198.052 113.983C197.642 113.984 197.342 113.869 197.057 113.578C196.202 112.703 195.339 111.835 194.448 110.996C194.096 110.665 193.977 110.317 193.98 109.844C193.999 106.813 193.99 103.782 193.99 100.751C193.99 89.0322 193.996 77.3135 193.975 65.5949C193.973 64.8816 194.155 64.3626 194.696 63.8876C195.426 63.2463 196.117 62.5545 196.768 61.8341C197.224 61.3295 197.708 61.1339 198.404 61.1398C202.501 61.1747 206.599 61.1569 210.791 61.1569ZM211.578 88.4101C211.578 81.5163 211.578 74.6225 211.578 67.7305C207.994 67.7305 204.519 67.7305 201.046 67.7305C201.046 81.0023 201.046 94.2037 201.046 107.405C204.582 107.405 208.06 107.405 211.578 107.405C211.578 101.091 211.578 94.8442 211.578 88.4101Z" fill="url(#paint4_linear_2036_11)"/>
<path d="M144.28 113.637C143.424 112.793 142.654 111.963 141.809 111.215C141.284 110.75 141.146 110.243 141.151 109.575C141.177 105.639 141.164 101.703 141.164 97.7666C141.164 87.0204 141.17 76.2741 141.148 65.5279C141.147 64.846 141.322 64.3576 141.832 63.8985C142.671 63.1432 143.454 62.3263 144.244 61.5199C144.505 61.2535 144.781 61.1484 145.16 61.1492C150.673 61.1603 156.187 61.161 161.701 61.1484C162.115 61.1475 162.41 61.2746 162.691 61.5627C163.524 62.415 164.359 63.2674 165.233 64.0778C165.639 64.4545 165.764 64.8543 165.762 65.3917C165.742 69.7027 165.751 74.0137 165.751 78.3247C165.751 88.7585 165.745 99.1924 165.765 109.626C165.766 110.273 165.599 110.738 165.116 111.175C164.303 111.911 163.537 112.7 162.772 113.488C162.449 113.822 162.123 113.99 161.627 113.988C156.177 113.968 150.726 113.975 145.275 113.976C144.93 113.976 144.571 114.024 144.28 113.637ZM158.752 105.468C158.752 92.8867 158.752 80.3055 158.752 67.729C155.156 67.729 151.678 67.729 148.218 67.729C148.218 81.0009 148.218 94.2038 148.218 107.401C149.853 107.57 158.025 107.508 158.752 107.313C158.752 106.77 158.752 106.212 158.752 105.468Z" fill="url(#paint5_linear_2036_11)"/>
<path d="M246.227 62.3687C246.875 63.013 247.494 63.5936 248.067 64.2164C248.259 64.4253 248.441 64.7416 248.442 65.0095C248.457 68.9455 248.441 72.8816 248.43 76.8177C248.43 76.8479 248.416 76.8781 248.392 76.9723C246.129 76.9723 243.85 76.9723 241.496 76.9723C241.496 73.9001 241.496 70.8501 241.496 67.7307C237.918 67.7307 234.413 67.7307 230.858 67.7307C230.858 80.9417 230.858 94.1441 230.858 107.409C234.342 107.409 237.825 107.409 241.319 107.409C241.499 106.799 241.569 92.6331 241.382 90.9464C239.261 90.9464 237.13 90.9464 235.023 90.9464C234.798 90.2279 234.732 86.5482 234.886 84.5589C235.544 84.3692 246.749 84.303 248.407 84.4871C248.424 84.7121 248.457 84.9506 248.457 85.1892C248.46 93.4069 248.455 101.625 248.47 109.842C248.471 110.353 248.322 110.718 247.951 111.066C247.105 111.861 246.286 112.685 245.475 113.516C245.174 113.825 244.868 113.987 244.411 113.986C238.896 113.971 233.381 113.971 227.866 113.985C227.413 113.987 227.102 113.835 226.799 113.523C226.012 112.713 225.22 111.906 224.389 111.141C223.979 110.764 223.86 110.358 223.862 109.824C223.879 105.543 223.871 101.263 223.871 96.982C223.871 86.5459 223.881 76.1098 223.852 65.6737C223.849 64.8808 224.067 64.3262 224.654 63.8106C225.408 63.1489 226.123 62.4364 226.792 61.6907C227.195 61.2408 227.639 61.1457 228.205 61.1473C233.5 61.1626 238.794 61.1675 244.088 61.1421C244.74 61.139 245.246 61.2759 245.648 61.7882C245.802 61.984 246.001 62.1448 246.227 62.3687Z" fill="url(#paint6_linear_2036_11)"/>
<path d="M314.782 64.4455C314.814 68.5025 314.81 72.5071 314.804 76.5993C312.57 76.6868 310.338 76.6868 307.996 76.6868C307.996 73.714 307.996 70.7403 307.996 67.7145C304.412 67.7145 300.939 67.7145 297.421 67.7145C297.421 73.0728 297.421 78.396 297.421 83.8465C297.757 83.8465 298.089 83.8465 298.422 83.8465C302.482 83.8465 306.542 83.8564 310.602 83.8358C311.206 83.8327 311.663 83.965 312.089 84.4239C312.941 85.3412 313.858 86.1995 314.782 87.1344C314.816 94.9474 314.815 102.708 314.827 110.557C313.832 111.674 312.836 112.715 311.804 113.719C311.632 113.887 311.301 113.965 311.043 113.966C305.496 113.979 299.949 113.972 294.402 113.985C293.984 113.986 293.692 113.852 293.411 113.566C292.532 112.67 291.641 111.786 290.74 110.911C290.5 110.679 290.372 110.444 290.373 110.098C290.384 106.349 290.381 102.599 290.385 98.8488C290.385 98.7595 290.421 98.6703 290.452 98.5277C292.707 98.5277 294.964 98.5277 297.35 98.5277C297.421 101.457 297.344 104.407 297.392 107.413C300.912 107.413 304.389 107.413 307.917 107.413C307.917 101.747 307.917 96.1071 307.917 90.3496C307.562 90.3496 307.226 90.3496 306.89 90.3496C302.824 90.3496 298.759 90.337 294.693 90.3631C294.074 90.3671 293.628 90.1997 293.211 89.7498C292.486 88.9686 291.73 88.2117 290.939 87.4961C290.502 87.1001 290.365 86.6783 290.367 86.1044C290.386 80.2609 290.379 74.4172 290.379 68.5736C290.379 67.4486 290.398 66.3232 290.37 65.1989C290.359 64.7551 290.5 64.4379 290.819 64.1338C291.704 63.2886 292.571 62.4246 293.427 61.5499C293.712 61.258 294.016 61.1488 294.426 61.1496C299.91 61.1614 305.394 61.1624 310.878 61.1484C311.328 61.1473 311.643 61.2884 311.948 61.602C312.868 62.5457 313.813 63.4646 314.782 64.4455Z" fill="url(#paint7_linear_2036_11)"/>
<path d="M105.989 89.0664C105.989 97.399 105.989 105.638 105.989 113.926C103.666 113.926 101.439 113.926 99.0753 113.926C99.0246 112.649 99.0597 111.351 99.0533 110.055C99.0469 108.742 99.0519 107.43 99.0519 106.118C99.0519 104.775 99.0519 103.431 99.0519 102.088C99.0519 100.776 99.0519 99.4635 99.0519 98.1513C99.0519 96.8392 99.0519 95.527 99.0519 94.2149C99.0519 92.9123 99.0519 91.6097 99.0519 90.2676C95.4659 90.2676 91.9845 90.2676 88.4044 90.2676C88.4044 98.1651 88.4044 106.02 88.4044 113.925C86.1152 113.925 83.924 113.925 81.7337 113.925C81.5453 113.207 81.4554 63.6021 81.637 61.3C82.2794 61.123 87.0199 61.0749 88.3836 61.2458C88.3836 68.7399 88.3836 76.2484 88.3836 83.8007C91.9707 83.8007 95.4533 83.8007 99.0409 83.8007C99.0409 76.2764 99.0409 68.768 99.0409 61.2086C101.394 61.2086 103.643 61.2086 105.989 61.2086C105.989 70.4955 105.989 79.7341 105.989 89.0664Z" fill="url(#paint8_linear_2036_11)"/>
<path d="M234.651 1.1452C234.643 18.0435 234.636 34.8509 234.625 51.6583C234.625 51.7114 234.574 51.7646 234.523 51.8638C232.511 51.8638 230.475 51.8638 228.38 51.8638C224.477 39.6503 220.573 27.4309 216.668 15.2115C216.609 15.2217 216.55 15.2319 216.491 15.2422C216.491 27.4288 216.491 39.6155 216.491 51.8558C214.598 51.8558 212.784 51.8558 210.969 51.8558C210.777 51.1776 210.688 2.23344 210.874 0.176296C211.541 -0.00951278 215.357 -0.0662171 217.151 0.0928842C221.07 12.3378 225 24.6179 228.93 36.898C228.978 36.8922 229.025 36.8863 229.072 36.8804C229.072 24.6411 229.072 12.4017 229.072 0.0955687C230.934 0.0955687 232.714 0.0955687 234.606 0.0955687C234.62 0.398653 234.636 0.726465 234.651 1.1452Z" fill="url(#paint9_linear_2036_11)"/>
<path d="M81.4016 0.956292C82.0514 1.6 82.6437 2.206 83.2587 2.78846C83.5513 3.06559 83.7309 3.3595 83.6743 3.77324C83.6533 3.92661 83.6709 4.08518 83.6709 4.24138C83.6709 18.7368 83.6663 33.2323 83.685 47.7277C83.686 48.4368 83.5184 48.966 82.9738 49.4421C82.2663 50.0608 81.6123 50.7425 80.9645 51.4244C80.64 51.7658 80.3044 51.9228 79.8148 51.9212C74.4584 51.9039 69.1019 51.9059 63.7455 51.9185C63.3027 51.9195 62.9725 51.8053 62.6646 51.4845C61.948 50.7379 61.2239 49.9951 60.4557 49.302C60.016 48.9053 59.8877 48.478 59.8886 47.9046C59.9045 38.3139 59.9 28.7232 59.9 19.1325C59.9 14.1653 59.914 9.19801 59.8848 4.23099C59.8805 3.48464 60.0704 2.93776 60.6472 2.44178C61.3833 1.80892 62.0471 1.09207 62.726 0.39604C62.9853 0.130213 63.2616 0.0196429 63.6409 0.0204097C69.0604 0.0313737 74.4799 0.041664 79.8992 0.0117417C80.6402 0.00765089 80.9084 0.550805 81.4016 0.956292ZM77.4886 18.4687C77.4886 14.2011 77.4886 9.93356 77.4886 5.68016C75.8976 5.49714 66.6741 5.55955 66.0139 5.74286C66.0139 19.2538 66.0139 32.7636 66.0139 46.3444C69.8651 46.3346 73.6563 46.3595 77.4886 46.3291C77.4886 37.0186 77.4886 27.8374 77.4886 18.4687Z" fill="url(#paint10_linear_2036_11)"/>
<path d="M112.227 18.5635C112.227 21 112.206 23.3431 112.242 25.6854C112.251 26.304 112.063 26.7387 111.612 27.1486C110.892 27.8018 110.205 28.4928 109.541 29.2019C109.209 29.5561 108.855 29.688 108.377 29.6672C107.624 29.6344 106.868 29.6585 105.951 29.6585C108.848 37.0742 111.711 44.4036 114.577 51.7395C113.821 51.9501 109.965 52.0082 108.156 51.8476C105.43 44.4955 102.691 37.1071 99.9466 29.7068C98.5515 29.7068 97.2116 29.7068 95.7704 29.7068C95.7704 37.1078 95.7704 44.4613 95.7704 51.8628C93.7587 51.8628 91.8478 51.8628 89.9357 51.8628C89.721 51.1532 89.6137 3.16727 89.8267 0.107578C90.0483 0.0824714 90.2852 0.0323591 90.5222 0.0321867C96.4768 0.0278484 102.431 0.0328305 108.386 0.0205131C108.83 0.0195953 109.158 0.137874 109.465 0.457671C110.204 1.22623 110.954 1.98691 111.739 2.7086C112.124 3.06251 112.237 3.44302 112.236 3.94442C112.221 8.78614 112.227 13.6279 112.227 18.5635ZM106.044 14.532C106.044 11.5774 106.044 8.62287 106.044 5.64108C102.578 5.64108 99.2239 5.64108 95.8311 5.64108C95.8311 11.8151 95.8311 17.9443 95.8311 24.1081C99.2416 24.1081 102.595 24.1081 106.044 24.1081C106.044 20.9467 106.044 17.8331 106.044 14.532Z" fill="url(#paint11_linear_2036_11)"/>
<path d="M51.5811 102.007C51.5811 89.8548 51.5886 77.7963 51.5635 65.7377C51.5619 64.9826 51.7681 64.4496 52.327 63.9508C53.1455 63.2203 53.9116 62.4298 54.671 61.6375C54.9985 61.2957 55.3354 61.1469 55.8225 61.1484C61.2419 61.1656 66.6613 61.1639 72.0807 61.1507C72.5253 61.1496 72.8495 61.2717 73.1583 61.5891C74.0551 62.5106 74.9756 63.4096 75.8962 64.308C76.1543 64.5599 76.3051 64.8166 76.3038 65.2018C76.2894 69.4504 76.2938 73.699 76.2906 77.9476C76.2906 78.0377 76.2602 78.1277 76.232 78.2836C73.957 78.2836 71.6794 78.2836 69.3236 78.2836C69.3236 74.782 69.3236 71.2967 69.3236 67.8337C68.5657 67.6222 60.7531 67.5472 58.6493 67.7165C58.6493 80.9329 58.6493 94.1549 58.6493 107.426C62.182 107.426 65.6923 107.426 69.2746 107.426C69.2746 103.892 69.2746 100.403 69.2746 96.8506C71.625 96.8506 73.9044 96.8506 76.2458 96.8506C76.2631 97.1084 76.2932 97.3488 76.2934 97.5893C76.2963 101.65 76.2862 105.712 76.3064 109.773C76.3091 110.315 76.1607 110.705 75.7567 111.078C74.9042 111.865 74.0902 112.695 73.2826 113.528C72.9795 113.841 72.6675 113.989 72.2158 113.988C66.7019 113.973 61.1879 113.974 55.674 113.987C55.2263 113.988 54.9083 113.853 54.6027 113.538C53.7735 112.682 52.9342 111.834 52.0615 111.022C51.6786 110.666 51.5693 110.283 51.5728 109.786C51.5908 107.224 51.5811 104.663 51.5811 102.007Z" fill="url(#paint12_linear_2036_11)"/>
<path d="M26.2372 44.2539C26.2372 45.6286 26.2257 46.9097 26.2439 48.1903C26.2496 48.5926 26.1416 48.8949 25.8402 49.1801C25.0425 49.9345 24.268 50.7137 23.501 51.4991C23.2213 51.7856 22.9301 51.9222 22.5125 51.9212C17.0928 51.9079 11.6731 51.9076 6.25337 51.9216C5.83333 51.9226 5.54532 51.7794 5.26677 51.4948C4.49896 50.7102 3.72124 49.9345 2.92911 49.1741C2.66273 48.9183 2.52597 48.6581 2.52758 48.2782C2.54251 44.7169 2.54026 41.1554 2.54512 37.594C2.5452 37.5351 2.57205 37.4762 2.60254 37.3512C4.55515 37.3512 6.52479 37.3512 8.63224 37.3512C8.67595 40.2886 8.626 43.2657 8.65993 46.2922C12.5054 46.2922 16.2733 46.2922 20.0441 46.2922C20.2194 45.6401 20.2662 29.5681 20.0797 28.2861C19.7597 28.2861 19.4215 28.2861 19.0833 28.2861C14.8924 28.2861 10.7015 28.2746 6.51085 28.2992C5.92521 28.3026 5.5047 28.1507 5.11092 27.7205C4.47632 27.0274 3.80464 26.3636 3.10701 25.7327C2.67573 25.3427 2.51644 24.9283 2.5206 24.3447C2.54776 20.5334 2.53457 16.7218 2.53457 12.9104C2.53457 9.9424 2.55283 6.97425 2.51971 4.00666C2.51281 3.38711 2.70057 2.95282 3.1499 2.5429C3.86805 1.88775 4.55498 1.19632 5.22066 0.488377C5.55089 0.137166 5.90403 0.0201503 6.38164 0.0214879C11.7068 0.0363954 17.032 0.0373868 22.3571 0.0205215C22.8718 0.0188914 23.2426 0.162454 23.5935 0.532572C24.3268 1.30612 25.1161 2.02761 25.8479 2.80255C26.042 3.00815 26.219 3.32966 26.2205 3.59898C26.241 7.19144 26.2291 10.7841 26.2223 14.3767C26.2222 14.4329 26.1846 14.489 26.1444 14.6019C24.2019 14.6019 22.2392 14.6019 20.1884 14.6019C20.1884 11.6037 20.1884 8.65096 20.1884 5.64853C16.3323 5.64853 12.5637 5.64853 8.79445 5.64853C8.6147 6.28654 8.55974 21.3111 8.74966 22.6589C9.06576 22.6589 9.40137 22.6589 9.73698 22.6589C13.8963 22.6589 18.0557 22.6689 22.2149 22.6478C22.8219 22.6448 23.2851 22.7749 23.7039 23.2407C24.3319 23.9392 25.0099 24.5973 25.7056 25.2304C26.1119 25.6001 26.2495 25.9994 26.2479 26.5401C26.2308 32.4134 26.2372 38.2868 26.2372 44.2539Z" fill="url(#paint13_linear_2036_11)"/>
<path d="M156.483 15.0005C156.483 11.2506 156.493 7.59436 156.473 3.93829C156.47 3.399 156.606 2.99739 157.011 2.62484C157.773 1.92415 158.498 1.18273 159.22 0.441262C159.5 0.154004 159.793 0.0195042 160.21 0.0205134C165.631 0.0336427 171.052 0.0320183 176.473 0.0231064C176.845 0.0224956 177.126 0.111882 177.391 0.384991C178.177 1.19575 178.981 1.99072 179.797 2.7721C180.065 3.02928 180.194 3.29279 180.193 3.67054C180.181 7.70168 180.186 11.7329 180.183 15.764C180.182 15.9113 180.147 16.0585 180.123 16.2411C178.133 16.2411 176.194 16.2411 174.175 16.2411C174.175 12.7177 174.175 9.23074 174.175 5.60807C170.305 5.58222 166.512 5.60167 162.658 5.59476C162.658 19.1767 162.658 32.6909 162.658 46.2748C166.45 46.2748 170.24 46.2748 174.109 46.2748C174.109 42.7751 174.109 39.2882 174.109 35.8237C174.849 35.6212 178.904 35.5801 180.136 35.7509C180.152 36.0095 180.183 36.281 180.184 36.5525C180.187 40.365 180.177 44.1774 180.196 47.9898C180.199 48.5265 180.073 48.9329 179.667 49.3068C178.905 50.0078 178.181 50.7502 177.457 51.4899C177.179 51.7734 176.893 51.9212 176.471 51.9201C171.05 51.9057 165.629 51.9061 160.208 51.9194C159.79 51.9205 159.499 51.7839 159.219 51.4972C158.496 50.756 157.772 50.0145 157.01 49.3137C156.605 48.941 156.471 48.5386 156.473 47.9998C156.49 42.9374 156.483 37.875 156.483 32.8126C156.483 26.9065 156.483 21.0004 156.483 15.0005Z" fill="url(#paint14_linear_2036_11)"/>
<path d="M265.854 101.444C265.861 88.0401 265.867 74.7297 265.876 61.4194C265.876 61.3656 265.926 61.3119 265.977 61.2085C272.78 61.2085 279.608 61.2085 286.44 61.2085C286.641 61.8418 286.707 65.4671 286.542 67.6454C285.441 67.6835 284.319 67.657 283.2 67.6618C282.065 67.6667 280.931 67.6629 279.796 67.6629C278.662 67.6629 277.527 67.6629 276.393 67.6629C275.26 67.6629 274.127 67.6629 272.924 67.6629C272.924 73.1216 272.924 78.5335 272.924 84.0217C276.404 84.0217 279.858 84.0217 283.378 84.0217C283.378 86.1677 283.378 88.239 283.378 90.3854C279.917 90.3854 276.464 90.3854 273.033 90.3854C272.813 91.1124 272.742 105.749 272.942 107.474C275.183 107.474 277.44 107.474 279.697 107.474C281.959 107.474 284.221 107.474 286.54 107.474C286.54 109.661 286.54 111.766 286.54 113.924C279.657 113.924 272.807 113.924 265.854 113.924C265.854 109.768 265.854 105.653 265.854 101.444Z" fill="url(#paint15_linear_2036_11)"/>
<path d="M34.1208 72.5666C34.1208 76.407 34.1208 80.1537 34.1208 84.0057C37.6379 84.0057 41.1152 84.0057 44.6513 84.0057C44.6513 86.1571 44.6513 88.2045 44.6513 90.3893C43.5294 90.4384 42.3788 90.405 41.2305 90.4109C40.0645 90.4169 38.8984 90.4122 37.7324 90.4122C36.5717 90.4122 35.411 90.4122 34.186 90.4122C34.186 96.1102 34.186 101.743 34.186 107.458C38.6906 107.458 43.1814 107.458 47.7357 107.458C47.7357 109.645 47.7357 111.752 47.7357 113.918C40.9136 113.918 34.0909 113.918 27.2665 113.918C27.0746 113.217 26.9808 63.6735 27.1685 61.3006C27.8176 61.1229 46.554 61.076 47.7511 61.2566C47.7511 63.3556 47.7511 65.462 47.7511 67.6485C43.2142 67.6485 38.7223 67.6485 34.1208 67.6485C34.1208 69.3084 34.1208 70.8906 34.1208 72.5666Z" fill="url(#paint16_linear_2036_11)"/>
<path d="M32.4189 28.8751C32.4189 19.228 32.4189 9.6747 32.4189 0.0279903C32.8267 0.0279903 33.1336 0.0279903 33.4405 0.0279903C39.114 0.0279896 44.7876 0.0354767 50.4611 0.0171114C51.0693 0.0151429 51.5314 0.147571 51.9524 0.611968C52.6258 1.35466 53.3574 2.04679 54.0847 2.7393C54.3982 3.0378 54.5578 3.34523 54.557 3.79657C54.5437 11.5156 54.5437 19.2346 54.557 26.9537C54.5578 27.4055 54.3964 27.712 54.0835 28.0104C53.3338 28.725 52.5863 29.4443 51.8813 30.2014C51.5041 30.6064 51.0947 30.733 50.554 30.7303C46.9293 30.7117 43.3045 30.7206 39.6797 30.7206C39.3375 30.7206 38.9952 30.7206 38.5403 30.7206C38.5403 37.7989 38.5403 44.8093 38.5403 51.8625C36.4584 51.8625 34.4896 51.8625 32.419 51.8625C32.419 44.2003 32.419 36.5846 32.4189 28.8751ZM38.5324 15.2805C38.5453 18.5559 38.558 21.8313 38.5734 25.1067C38.5735 25.1302 38.6102 25.1538 38.6303 25.1769C38.6507 25.2004 38.6718 25.2234 38.6725 25.2242C41.8963 25.2242 45.0943 25.2242 48.3053 25.2242C48.3053 18.6633 48.3053 12.1601 48.3053 5.6635C46.6095 5.49055 39.2547 5.55636 38.5324 5.75917C38.5324 8.8599 38.5324 11.9765 38.5324 15.2805Z" fill="url(#paint17_linear_2036_11)"/>
<path d="M280.196 22.8441C280.975 22.8441 281.661 22.8441 282.391 22.8441C282.391 24.7071 282.391 26.4716 282.391 28.3197C278.9 28.3197 275.447 28.3197 272.019 28.3197C271.813 29.0691 271.753 44.8604 271.941 46.3438C274.185 46.3438 276.443 46.3438 278.702 46.3438C280.969 46.3438 283.236 46.3438 285.578 46.3438C285.578 48.1862 285.578 49.9783 285.578 51.8405C279.029 51.8405 272.465 51.8405 265.848 51.8405C265.848 34.589 265.848 17.3578 265.848 0.0776367C272.433 0.0776367 278.975 0.0776367 285.586 0.0776367C285.586 1.88521 285.586 3.67747 285.586 5.54913C281.054 5.54913 276.528 5.54913 272.027 5.54913C271.811 6.26544 271.733 21.0759 271.926 22.8441C274.641 22.8441 277.372 22.8441 280.196 22.8441Z" fill="url(#paint18_linear_2036_11)"/>
<path d="M186.361 48.1892C186.368 32.1603 186.374 16.2251 186.384 0.289957C186.384 0.23558 186.432 0.181235 186.48 0.0776367C192.964 0.0776367 199.471 0.0776367 206.035 0.0776367C206.035 1.90448 206.035 3.6975 206.035 5.57762C201.514 5.57762 197.022 5.57762 192.474 5.57762C192.474 11.3599 192.474 17.0556 192.474 22.8298C195.972 22.8298 199.427 22.8298 202.944 22.8298C202.944 24.6714 202.944 26.436 202.944 28.317C199.473 28.317 195.998 28.317 192.47 28.317C192.47 34.3557 192.47 40.2791 192.47 46.3229C196.972 46.3229 201.486 46.3229 206.038 46.3229C206.038 48.2362 206.038 50.0292 206.038 51.8632C199.477 51.8632 192.97 51.8632 186.361 51.8632C186.361 50.6397 186.361 49.4613 186.361 48.1892Z" fill="url(#paint19_linear_2036_11)"/>
<path d="M23.1436 67.6621C20.5652 67.6621 18.0771 67.6621 15.4844 67.6621C15.4844 83.0999 15.4844 98.487 15.4844 113.925C13.1235 113.925 10.8669 113.925 8.60821 113.925C8.58761 113.905 8.56336 113.885 8.54355 113.86C8.52456 113.837 8.50003 113.812 8.4956 113.785C8.48057 113.693 8.46446 113.6 8.4644 113.507C8.45581 98.2882 8.4486 83.0698 8.43948 67.8513C8.43947 67.8256 8.41177 67.7999 8.33598 67.668C5.61523 67.668 2.83064 67.668 0 67.668C0 65.4794 0 63.3963 0 61.311C0.67205 61.111 21.6869 61.0193 23.9508 61.2083C24.1337 61.8578 24.1917 65.9718 24.0318 67.6059C23.7755 67.624 23.5047 67.643 23.1436 67.6621Z" fill="url(#paint20_linear_2036_11)"/>
<path d="M182.044 113.977C178.363 113.977 174.776 113.977 171.204 113.977C171.009 113.261 170.962 62.3345 171.147 61.2051C173.36 61.2051 175.581 61.2051 177.901 61.2051C177.901 76.615 177.901 91.9928 177.901 107.468C182.391 107.468 186.783 107.468 191.227 107.468C191.227 109.669 191.227 111.773 191.227 113.977C188.168 113.977 185.153 113.977 182.044 113.977Z" fill="url(#paint21_linear_2036_11)"/>
<path d="M248.614 0.0288129C253.025 0.0288172 257.342 0.0288172 261.788 0.0288172C261.858 0.94837 261.815 1.84245 261.822 2.73275C261.83 3.63674 261.824 4.54084 261.824 5.57398C258.995 5.63408 256.209 5.56566 253.349 5.6125C253.349 21.0296 253.349 36.3913 253.349 51.7285C252.628 51.9511 249.064 52.0151 247.143 51.8483C247.116 50.6939 247.133 49.5196 247.13 48.3465C247.127 47.159 247.13 45.9715 247.13 44.784C247.13 43.5964 247.13 42.4089 247.13 41.2214C247.13 40.0339 247.13 38.8464 247.13 37.6589C247.13 36.4714 247.13 35.2839 247.13 34.0963C247.13 32.9088 247.13 31.7213 247.13 30.5338C247.13 29.3775 247.13 28.2213 247.13 27.065C247.13 25.8775 247.13 24.69 247.13 23.5025C247.13 22.315 247.13 21.1275 247.13 19.9399C247.13 18.7524 247.13 17.5649 247.13 16.3774C247.13 15.1899 247.13 14.0024 247.13 12.8149C247.13 11.6273 247.13 10.4398 247.13 9.25232C247.13 8.07099 247.13 6.88965 247.13 5.61954C244.27 5.61954 241.481 5.61954 238.626 5.61954C238.626 3.73763 238.626 1.94408 238.626 0.0288086C241.923 0.0288086 245.221 0.0288086 248.614 0.0288129Z" fill="url(#paint22_linear_2036_11)"/>
<path d="M130.441 40.3155C130.441 44.2111 130.441 48.013 130.441 51.8627C128.376 51.8627 126.408 51.8627 124.334 51.8627C124.334 36.4485 124.334 21.0703 124.334 5.61192C121.472 5.61192 118.713 5.61192 115.886 5.61192C115.886 3.74043 115.886 1.94764 115.886 0.0922852C123.519 0.0922852 131.158 0.0922852 138.874 0.0922852C138.874 1.87309 138.874 3.66539 138.874 5.56792C136.118 5.56792 133.334 5.56792 130.441 5.56792C130.441 17.1918 130.441 28.7068 130.441 40.3155Z" fill="url(#paint23_linear_2036_11)"/>
<path d="M253.689 74.8151C253.689 70.2303 253.689 65.7392 253.689 61.2026C256.041 61.2026 258.297 61.2026 260.621 61.2026C260.621 78.7618 260.621 96.3045 260.621 113.911C258.341 113.911 256.063 113.911 253.689 113.911C253.689 100.891 253.689 87.8998 253.689 74.8151Z" fill="url(#paint24_linear_2036_11)"/>
<defs>
<linearGradient id="paint0_linear_2036_11" x1="302.676" y1="0.0170898" x2="302.676" y2="51.9173" gradientUnits="userSpaceOnUse">
<stop stop-color="white"/>
<stop offset="1" stop-color="#999999"/>
</linearGradient>
<linearGradient id="paint1_linear_2036_11" x1="314.909" y1="87.1885" x2="314.909" y2="110.624" gradientUnits="userSpaceOnUse">
<stop stop-color="white"/>
<stop offset="1" stop-color="#999999"/>
</linearGradient>
<linearGradient id="paint2_linear_2036_11" x1="314.904" y1="64.499" x2="314.904" y2="76.6724" gradientUnits="userSpaceOnUse">
<stop stop-color="white"/>
<stop offset="1" stop-color="#999999"/>
</linearGradient>
<linearGradient id="paint3_linear_2036_11" x1="123.551" y1="61.1484" x2="123.551" y2="114" gradientUnits="userSpaceOnUse">
<stop stop-color="white"/>
<stop offset="1" stop-color="#999999"/>
</linearGradient>
<linearGradient id="paint4_linear_2036_11" x1="206.283" y1="61.1396" x2="206.283" y2="113.985" gradientUnits="userSpaceOnUse">
<stop stop-color="white"/>
<stop offset="1" stop-color="#999999"/>
</linearGradient>
<linearGradient id="paint5_linear_2036_11" x1="153.457" y1="61.1484" x2="153.457" y2="113.988" gradientUnits="userSpaceOnUse">
<stop stop-color="white"/>
<stop offset="1" stop-color="#999999"/>
</linearGradient>
<linearGradient id="paint6_linear_2036_11" x1="236.161" y1="61.1421" x2="236.161" y2="113.986" gradientUnits="userSpaceOnUse">
<stop stop-color="white"/>
<stop offset="1" stop-color="#999999"/>
</linearGradient>
<linearGradient id="paint7_linear_2036_11" x1="302.597" y1="61.1484" x2="302.597" y2="113.985" gradientUnits="userSpaceOnUse">
<stop stop-color="white"/>
<stop offset="1" stop-color="#999999"/>
</linearGradient>
<linearGradient id="paint8_linear_2036_11" x1="93.7635" y1="61.1396" x2="93.7635" y2="113.926" gradientUnits="userSpaceOnUse">
<stop stop-color="white"/>
<stop offset="1" stop-color="#999999"/>
</linearGradient>
<linearGradient id="paint9_linear_2036_11" x1="222.711" y1="0" x2="222.711" y2="51.8638" gradientUnits="userSpaceOnUse">
<stop stop-color="white"/>
<stop offset="1" stop-color="#999999"/>
</linearGradient>
<linearGradient id="paint10_linear_2036_11" x1="71.7849" y1="0.0117187" x2="71.7849" y2="51.9212" gradientUnits="userSpaceOnUse">
<stop stop-color="white"/>
<stop offset="1" stop-color="#999999"/>
</linearGradient>
<linearGradient id="paint11_linear_2036_11" x1="102.144" y1="0.0205078" x2="102.144" y2="51.9397" gradientUnits="userSpaceOnUse">
<stop stop-color="white"/>
<stop offset="1" stop-color="#999999"/>
</linearGradient>
<linearGradient id="paint12_linear_2036_11" x1="63.9349" y1="61.1484" x2="63.9349" y2="113.988" gradientUnits="userSpaceOnUse">
<stop stop-color="white"/>
<stop offset="1" stop-color="#999999"/>
</linearGradient>
<linearGradient id="paint13_linear_2036_11" x1="14.3837" y1="0.0205078" x2="14.3837" y2="51.9216" gradientUnits="userSpaceOnUse">
<stop stop-color="white"/>
<stop offset="1" stop-color="#999999"/>
</linearGradient>
<linearGradient id="paint14_linear_2036_11" x1="168.334" y1="0.0205078" x2="168.334" y2="51.9201" gradientUnits="userSpaceOnUse">
<stop stop-color="white"/>
<stop offset="1" stop-color="#999999"/>
</linearGradient>
<linearGradient id="paint15_linear_2036_11" x1="276.245" y1="61.2085" x2="276.245" y2="113.924" gradientUnits="userSpaceOnUse">
<stop stop-color="white"/>
<stop offset="1" stop-color="#999999"/>
</linearGradient>
<linearGradient id="paint16_linear_2036_11" x1="37.4088" y1="61.1421" x2="37.4088" y2="113.918" gradientUnits="userSpaceOnUse">
<stop stop-color="white"/>
<stop offset="1" stop-color="#999999"/>
</linearGradient>
<linearGradient id="paint17_linear_2036_11" x1="43.488" y1="0.0170898" x2="43.488" y2="51.8625" gradientUnits="userSpaceOnUse">
<stop stop-color="white"/>
<stop offset="1" stop-color="#999999"/>
</linearGradient>
<linearGradient id="paint18_linear_2036_11" x1="275.717" y1="0.0776367" x2="275.717" y2="51.8405" gradientUnits="userSpaceOnUse">
<stop stop-color="white"/>
<stop offset="1" stop-color="#999999"/>
</linearGradient>
<linearGradient id="paint19_linear_2036_11" x1="196.2" y1="0.0776367" x2="196.2" y2="51.8632" gradientUnits="userSpaceOnUse">
<stop stop-color="white"/>
<stop offset="1" stop-color="#999999"/>
</linearGradient>
<linearGradient id="paint20_linear_2036_11" x1="12.0625" y1="61.105" x2="12.0625" y2="113.925" gradientUnits="userSpaceOnUse">
<stop stop-color="white"/>
<stop offset="1" stop-color="#999999"/>
</linearGradient>
<linearGradient id="paint21_linear_2036_11" x1="181.129" y1="61.2051" x2="181.129" y2="113.977" gradientUnits="userSpaceOnUse">
<stop stop-color="white"/>
<stop offset="1" stop-color="#999999"/>
</linearGradient>
<linearGradient id="paint22_linear_2036_11" x1="250.227" y1="0.0288086" x2="250.227" y2="51.9424" gradientUnits="userSpaceOnUse">
<stop stop-color="white"/>
<stop offset="1" stop-color="#999999"/>
</linearGradient>
<linearGradient id="paint23_linear_2036_11" x1="127.38" y1="0.0922852" x2="127.38" y2="51.8627" gradientUnits="userSpaceOnUse">
<stop stop-color="white"/>
<stop offset="1" stop-color="#999999"/>
</linearGradient>
<linearGradient id="paint24_linear_2036_11" x1="257.155" y1="61.2026" x2="257.155" y2="113.911" gradientUnits="userSpaceOnUse">
<stop stop-color="white"/>
<stop offset="1" stop-color="#999999"/>
</linearGradient>
</defs>
</svg>
