<svg width="85" height="170" viewBox="0 0 85 170" fill="none" xmlns="http://www.w3.org/2000/svg">
<path d="M81.26 21.6371C72.207 21.6371 63.4712 21.6371 54.3677 21.6371C54.3677 71.066 54.3677 120.332 54.3677 169.763C46.0784 169.763 38.155 169.763 30.2245 169.763C30.1522 169.698 30.0671 169.632 29.9975 169.555C29.9308 169.481 29.8447 169.401 29.8291 169.314C29.7764 169.019 29.7198 168.72 29.7196 168.423C29.6894 119.696 29.6641 70.9694 29.6321 22.2428C29.6321 22.1605 29.5348 22.0782 29.2687 21.6558C19.7158 21.6558 9.93874 21.6558 0 21.6558C0 14.6486 0 7.97885 0 1.30197C2.35965 0.661727 76.1455 0.368173 84.0943 0.973236C84.7365 3.05279 84.9401 16.2251 84.3786 21.4571C83.4789 21.5149 82.5281 21.576 81.26 21.6371Z" fill="#3B6F97"/>
</svg>
