<svg width="96" height="146" viewBox="0 0 96 146" fill="none" xmlns="http://www.w3.org/2000/svg">
<path d="M48.2682 1.5721C57.9097 -1.7422 65.3418 0.944389 67.8526 2.70197C67.8526 2.70197 63.7097 2.32535 59.1903 3.83185C54.6708 5.33834 52.0344 10.2345 52.0344 14.0007C52.0344 17.7669 55.6751 27.4336 58.0604 30.9488C61.1989 35.5938 69.5219 45.8258 75.432 53.3777C81.1853 60.7292 90.2042 73.5143 92.7098 81.4164C94.3418 86.5636 96.8527 99.871 93.8397 111.923C90.8267 123.975 82.029 134.563 76.1383 137.91C70.6145 141.049 60.4708 146.422 64.0864 142.806C67.702 139.191 69.9984 136.277 70.8656 131.507C72.3615 123.28 71.9161 118.582 71.2422 112.676C70.3999 105.294 65.3692 97.4711 61.9791 92.1991L61.8266 91.9619C59.1149 87.7437 50.1513 76.3947 46.0084 71.2476C42.9954 67.7324 35.9902 58.2164 32.0733 48.2735C28.1564 38.3306 28.7665 26.5291 30.9435 20.7799C32.701 15.7583 38.6266 4.88639 48.2682 1.5721Z" fill="white"/>
<path d="M29.8136 143.936C5.70962 134.294 0.562425 112.049 0.0602598 100.248C0.0602598 100.248 -0.316364 93.845 0.813508 88.5723C1.94338 83.2995 10.1538 60.0995 21.9045 56.1826C21.5278 57.6891 21.1512 58.0657 20.7746 61.832C20.398 65.5982 20.398 67.8579 21.1512 70.4943C22.1445 73.9708 22.2811 77.2736 31.3201 88.5723C36.9694 94.9749 49.172 109.362 52.7876 115.689C55.6187 120.644 59.8871 132.694 52.0344 140.546C48.6448 143.936 38.0993 147.25 29.8136 143.936Z" fill="white"/>
</svg>
