<svg width="186" height="85" viewBox="0 0 186 85" fill="none" xmlns="http://www.w3.org/2000/svg">
<g clip-path="url(#clip0_587_1261)">
<path d="M186.075 23.516C185.349 23.5403 184.623 23.5367 183.896 23.5322C183.571 23.5303 183.568 23.5308 183.45 23.2109C182.593 20.876 181.737 18.5405 180.88 16.2055C180.686 15.6791 180.489 15.154 180.291 14.6209C179.75 14.6209 179.228 14.6209 178.652 14.6209C178.637 15.0428 178.647 15.4638 178.645 15.8842C178.643 16.2978 178.645 16.7114 178.645 17.125C178.645 17.5512 178.645 17.9773 178.645 18.4034C178.645 18.8296 178.645 19.2557 178.645 19.6819C178.645 20.108 178.645 20.5342 178.645 20.9603C178.645 21.3739 178.645 21.7875 178.645 22.2011C178.645 22.6266 178.645 23.0521 178.645 23.5048C177.867 23.5048 177.11 23.5048 176.35 23.5048C176.274 23.2535 176.254 3.17824 176.339 2.71983C176.454 2.71983 176.576 2.71983 176.698 2.71983C178.978 2.71983 181.258 2.72291 183.538 2.71531C183.781 2.7145 183.963 2.76985 184.13 2.95519C184.398 3.25267 184.689 3.5306 184.978 3.80822C185.103 3.92809 185.165 4.05188 185.165 4.2326C185.16 7.19053 185.16 10.1485 185.165 13.1064C185.165 13.2854 185.108 13.4112 184.982 13.5318C184.674 13.8263 184.371 14.1264 184.078 14.4357C183.955 14.5659 183.824 14.6149 183.648 14.6085C183.349 14.5975 183.048 14.6054 182.707 14.6054C182.766 14.7882 182.81 14.9508 182.871 15.1069C183.784 17.4611 184.701 19.8141 185.614 22.1684C185.758 22.5409 185.889 22.9188 186.05 23.3064C186.075 23.375 186.075 23.4314 186.075 23.516ZM182.704 5.75563C182.704 5.49707 182.704 5.23852 182.704 4.9805C181.329 4.9805 179.999 4.9805 178.672 4.9805C178.596 5.74269 178.628 12.1162 178.705 12.3778C180.028 12.3778 181.349 12.3778 182.704 12.3778C182.704 10.1813 182.704 8.00595 182.704 5.75563Z" fill="url(#paint0_linear_587_1261)"/>
<path d="M31.8839 75.2747C32.719 75.7104 33.6281 77.0028 33.1911 78.3351C32.952 79.0641 32.5595 79.6935 32.0708 80.2693C31.0779 81.4389 29.8544 82.3207 28.5285 83.0694C26.9368 83.9681 25.238 84.5749 23.4411 84.903C23.1104 84.9634 22.7726 84.9843 22.4212 85.0493C21.726 85.0752 21.0478 85.0752 20.3344 85.0752C20.0604 85.0299 19.8228 84.977 19.5826 84.9407C18.6528 84.8004 17.7781 84.4972 16.9495 84.0219C17.6744 84.0944 18.3931 84.2576 19.1197 84.3076C20.1154 84.3763 21.1208 84.3626 22.1034 84.1549C24.2794 83.695 26.1858 82.7084 27.7889 81.1551C28.0743 80.8785 28.3638 80.6046 28.6293 80.3097C28.9961 79.9022 29.3728 79.4979 29.6897 79.0526C30.1883 78.3522 30.6667 77.6342 31.1037 76.894C31.4072 76.3799 31.6268 75.8162 31.8839 75.2747Z" fill="url(#paint1_linear_587_1261)"/>
<path d="M21.1376 13.4639C20.9287 12.6159 20.9189 11.7587 21.0226 10.897C21.3264 8.37283 22.4966 6.25382 24.1014 4.34305C25.2373 2.99068 26.5495 1.842 28.1021 0.986772C28.8941 0.550484 29.7228 0.207009 30.6556 0.0986932C30.8525 0.0751953 31.0307 0.0751953 31.2423 0.0751953C31.2834 0.0851171 31.29 0.102741 31.2988 0.10387C32.5085 0.259457 33.1369 1.0521 33.4788 2.15074C33.236 2.2042 33.0262 2.2278 32.817 2.25604C31.8652 2.38447 30.9339 2.603 30.0169 2.88712C29.011 3.19877 28.05 3.61538 27.1208 4.10861C26.1453 4.62637 25.2532 5.26062 24.4627 6.03191C24.1863 6.30157 23.9316 6.59456 23.6791 6.88741C23.0217 7.64993 22.5018 8.50114 22.1104 9.42673C21.7157 10.3601 21.4411 11.3321 21.2955 12.3352C21.2404 12.7145 21.247 13.1027 21.2254 13.4868C21.2254 13.4868 21.2113 13.4885 21.1972 13.48C21.168 13.469 21.1528 13.4665 21.1376 13.4639Z" fill="url(#paint2_linear_587_1261)"/>
<path d="M0.0751953 50.3481C0.146138 49.9758 0.220587 49.6294 0.287405 49.2814C0.550467 47.9114 1.14547 46.7031 2.05886 45.6525C3.26739 44.2626 4.78324 43.405 6.59188 43.0699C7.05164 42.9847 7.51678 42.9275 8.01594 42.9551C7.98144 43.0148 7.97013 43.0496 7.94698 43.0723C7.05575 43.9443 6.34544 44.9612 5.6251 45.9704C4.92661 46.9489 4.23442 47.9329 3.36815 48.7762C2.45887 49.6614 1.41531 50.2933 0.106324 50.4764C0.0751953 50.44 0.0751953 50.4066 0.0751953 50.3481Z" fill="url(#paint3_linear_587_1261)"/>
<path d="M9.05775 76.795C9.05216 76.7624 9.04656 76.7299 9.06216 76.647C9.1124 75.873 9.15876 75.1495 9.16623 74.4256C9.17617 73.462 9.31292 72.5152 9.46371 71.567C9.6882 70.1553 10.0722 68.7941 10.6285 67.4756C11.2811 65.9284 12.1571 64.5203 13.2741 63.278C13.9752 62.4984 14.7421 61.7688 15.5402 61.0881C16.4213 60.3367 17.3744 59.6701 18.2917 58.9606C19.4555 58.0605 20.6496 57.195 21.7639 56.2369C22.5385 55.571 23.2496 54.8147 23.9023 54.0268C24.9866 52.7178 25.7792 51.2309 26.3342 49.6184C26.6111 48.814 26.8424 47.9972 26.9698 47.1589C27.0874 46.3846 27.1594 45.6012 27.2056 44.8191C27.2319 44.3738 27.1531 43.9233 27.1451 43.4747C27.134 42.8486 27.0308 42.2366 26.9218 41.6227C26.6272 39.9627 26.0916 38.382 25.3366 36.88C24.9667 36.1442 24.5427 35.4337 24.1091 34.7329C23.9788 34.5224 23.8686 34.265 23.6128 34.1484C23.5904 34.0674 23.5346 33.9791 23.5505 33.9066C23.7175 33.147 23.6496 32.3819 23.5781 31.624C23.5143 30.9475 23.5945 30.3021 23.7981 29.6629C24.4284 27.6833 25.1099 25.7219 25.9105 23.8042C26.2928 22.8887 26.6229 21.9607 26.7864 20.967C26.8479 21.521 26.9023 22.0803 26.9086 22.6402C26.9168 23.3773 26.9596 24.1099 27.0625 24.8394C27.1876 25.7253 27.287 26.6157 27.4412 27.4965C27.7746 29.4019 28.3583 31.2266 29.2771 32.937C29.8122 33.9331 30.4691 34.8425 31.2508 35.6549C31.6386 36.058 32.0788 36.4119 32.5059 36.7757C33.6605 37.7594 34.9933 38.444 36.3805 39.0229C37.8543 39.6379 39.3541 40.1911 40.8229 40.8177C42.4997 41.5329 44.1586 42.2907 45.818 43.0462C47.0463 43.6054 48.2653 44.1853 49.4837 44.7659C50.4434 45.2232 51.3964 45.6946 52.3514 46.1617C52.7449 46.3542 53.1333 46.5573 53.5292 46.7446C53.6495 46.8014 53.7873 46.8213 53.9171 46.8581C54.871 47.9779 55.5305 49.2552 55.9463 50.6619C56.3472 52.018 56.4913 53.4049 56.3686 54.8105C56.2264 56.439 55.7221 57.9568 54.8658 59.3532C54.8608 59.3614 54.8429 59.3617 54.801 59.3757C54.7675 59.0904 54.7451 58.8094 54.7001 58.532C54.4051 56.7173 53.5229 55.2264 52.1742 54.001C51.4296 53.3246 50.6048 52.7681 49.6911 52.3354C49.3342 52.1664 49.0265 51.8939 48.6318 51.7921C48.5475 51.7703 48.4627 51.7502 48.3437 51.6873C47.3493 51.2777 46.3658 51.1094 45.3429 51.3131C44.1423 51.5523 43.2269 52.2409 42.4843 53.1779C42.0174 53.767 41.6555 54.4202 41.3534 55.1125C40.9444 56.0494 40.6831 57.0276 40.615 58.0361C40.5445 59.0802 40.568 60.1289 40.8178 61.165C41.1799 62.667 41.8444 64.0026 42.8939 65.1346C43.4852 65.7723 44.2012 66.2616 44.9762 66.6456C46.088 67.1965 47.2899 67.4133 48.5189 67.4643C48.99 67.4839 49.4693 67.4529 49.9364 67.3859C50.7236 67.273 51.514 67.1633 52.2736 66.9051C52.4056 66.8603 52.5561 66.8697 52.698 66.854C51.8957 67.2998 51.1772 67.8646 50.448 68.4169C49.1783 69.3785 47.8428 70.2429 46.4501 71.0157C44.3723 72.1686 42.143 72.5979 39.7842 72.3738C39.6674 72.3628 39.5472 72.3038 39.4446 72.2409C38.4381 71.6237 37.5216 70.8899 36.6738 70.0699C35.7468 69.1733 34.8435 68.2512 33.896 67.377C32.7187 66.2906 31.3209 65.6242 29.7386 65.3595C28.9721 65.2312 28.1963 65.1884 27.4228 65.2349C26.0022 65.3203 24.6328 65.6337 23.3459 66.2613C23.1652 66.3495 22.9905 66.4001 22.7771 66.3984C17.2988 66.353 11.3923 69.8631 9.43936 75.9237C9.35113 76.1975 9.2738 76.4748 9.1607 76.7743C9.10607 76.7935 9.08199 76.7925 9.05775 76.795Z" fill="url(#paint4_linear_587_1261)"/>
<path d="M109.553 32.56C110.45 35.3948 111.34 38.2005 112.229 41.0063C112.253 41.0017 112.276 40.9972 112.3 40.9926C112.3 36.4283 112.3 31.864 112.3 27.3076C112.585 27.2276 114.423 27.2125 114.871 27.282C114.871 34.3168 114.871 41.3546 114.871 48.4115C113.944 48.4115 113.033 48.4115 112.09 48.4115C110.635 43.8169 109.177 39.211 107.718 34.6051C107.7 34.6074 107.681 34.6096 107.662 34.6119C107.662 39.1988 107.662 43.7858 107.662 48.3631C107.367 48.4439 105.685 48.4661 105.068 48.4032C105.068 41.369 105.068 34.3319 105.068 27.2684C105.988 27.2684 106.908 27.2684 107.869 27.2684C108.425 29.0125 108.985 30.7717 109.553 32.56Z" fill="url(#paint5_linear_587_1261)"/>
<path d="M50.7604 24.8189C51.1261 25.3808 51.319 26.0128 51.4878 26.652C51.5211 26.7783 51.511 26.9285 51.4798 27.0576C50.6438 30.5145 47.756 33.1877 44.2577 33.6788C41.3463 34.0875 38.8215 33.2414 36.6995 31.1312C36.4596 30.04 36.4845 29.0004 36.6592 27.9587C36.7589 27.364 36.9664 26.8069 37.1986 26.252C37.5762 25.3496 38.141 24.5746 38.8189 23.8924C39.272 23.4363 39.7805 23.0301 40.347 22.6999C41.5252 22.013 42.795 21.6589 44.1478 21.5949C44.4807 21.5792 44.8169 21.6427 45.152 21.6603C46.0633 21.7083 46.9105 21.9846 47.7284 22.3706C48.8214 22.8865 49.7252 23.6376 50.4837 24.5729C50.5251 24.6238 50.6089 24.6403 50.6729 24.6728C50.6729 24.6728 50.6724 24.6726 50.672 24.6961C50.7012 24.7528 50.7308 24.7858 50.7604 24.8189Z" fill="url(#paint6_linear_587_1261)"/>
<path d="M144.65 27.242C145.176 27.242 145.665 27.2472 146.153 27.2389C146.303 27.2364 146.414 27.278 146.519 27.3855C146.877 27.7539 147.239 28.118 147.607 28.4766C147.705 28.5717 147.759 28.6691 147.746 28.8053C147.74 28.8674 147.745 28.9306 147.745 28.9932C147.745 34.8852 147.743 40.7772 147.751 46.6691C147.751 46.9393 147.692 47.1405 147.485 47.3258C147.159 47.6182 146.856 47.9368 146.553 48.2535C146.431 48.3803 146.304 48.4346 146.126 48.4341C143.946 48.4287 141.766 48.4291 139.586 48.4336C139.423 48.434 139.304 48.388 139.19 48.2711C138.851 47.92 138.507 47.5718 138.153 47.2353C138.013 47.1025 137.966 46.9629 137.967 46.7733C137.975 45.5574 137.971 44.3414 137.971 43.1254C137.971 38.4243 137.973 33.7233 137.965 29.0223C137.964 28.7361 138.037 28.5279 138.252 28.3374C138.542 28.0802 138.816 27.8026 139.075 27.5137C139.257 27.3112 139.449 27.2327 139.726 27.2351C141.355 27.2491 142.984 27.242 144.65 27.242ZM144.963 38.1748C144.963 35.4093 144.963 32.6438 144.963 29.879C143.538 29.879 142.157 29.879 140.776 29.879C140.776 35.2031 140.776 40.4989 140.776 45.7947C142.182 45.7947 143.564 45.7947 144.963 45.7947C144.963 43.2617 144.963 40.7559 144.963 38.1748Z" fill="url(#paint7_linear_587_1261)"/>
<path d="M118.209 48.2948C117.869 47.9563 117.563 47.6233 117.227 47.3233C117.018 47.1367 116.963 46.9334 116.965 46.6652C116.976 45.0863 116.97 43.5073 116.97 41.9283C116.97 37.6173 116.973 33.3064 116.964 28.9955C116.964 28.7219 117.033 28.526 117.236 28.3418C117.569 28.0388 117.881 27.7111 118.195 27.3876C118.299 27.2808 118.408 27.2386 118.559 27.2389C120.751 27.2434 122.943 27.2437 125.135 27.2386C125.299 27.2382 125.416 27.2892 125.528 27.4048C125.859 27.7467 126.191 28.0887 126.539 28.4138C126.7 28.5649 126.75 28.7252 126.749 28.9408C126.741 30.6702 126.744 32.3996 126.744 34.129C126.744 38.3146 126.742 42.5002 126.75 46.6858C126.751 46.9454 126.684 47.1318 126.492 47.307C126.169 47.6024 125.864 47.919 125.56 48.2351C125.432 48.3688 125.302 48.4365 125.105 48.4357C122.938 48.4275 120.772 48.4305 118.605 48.4306C118.468 48.4306 118.325 48.4501 118.209 48.2948ZM123.962 45.0177C123.962 39.9706 123.962 34.9236 123.962 29.8784C122.533 29.8784 121.15 29.8784 119.775 29.8784C119.775 35.2026 119.775 40.499 119.775 45.7931C120.425 45.8609 123.673 45.8361 123.962 45.758C123.962 45.5401 123.962 45.316 123.962 45.0177Z" fill="url(#paint8_linear_587_1261)"/>
<path d="M158.736 27.7282C158.994 27.9866 159.24 28.2195 159.468 28.4694C159.544 28.5532 159.617 28.6801 159.617 28.7875C159.623 30.3665 159.617 31.9455 159.613 33.5245C159.613 33.5366 159.607 33.5487 159.597 33.5865C158.698 33.5865 157.791 33.5865 156.856 33.5865C156.856 32.354 156.856 31.1305 156.856 29.8792C155.434 29.8792 154.04 29.8792 152.627 29.8792C152.627 35.1788 152.627 40.4751 152.627 45.7964C154.012 45.7964 155.397 45.7964 156.786 45.7964C156.857 45.5516 156.885 39.8689 156.81 39.1923C155.967 39.1923 155.12 39.1923 154.283 39.1923C154.193 38.9041 154.167 37.4279 154.228 36.6299C154.49 36.5538 158.944 36.5272 159.603 36.6011C159.61 36.6914 159.623 36.7871 159.623 36.8828C159.624 40.1793 159.622 43.4759 159.628 46.7725C159.629 46.9775 159.569 47.1238 159.422 47.2635C159.086 47.5823 158.76 47.9128 158.438 48.2462C158.318 48.3702 158.196 48.4352 158.015 48.4347C155.822 48.4286 153.63 48.4287 151.438 48.4346C151.257 48.435 151.134 48.3741 151.013 48.2491C150.701 47.9241 150.386 47.6002 150.055 47.2936C149.892 47.1424 149.845 46.9795 149.846 46.7652C149.852 45.048 149.85 43.3308 149.85 41.6135C149.85 37.427 149.853 33.2405 149.842 29.054C149.841 28.7359 149.927 28.5134 150.161 28.3066C150.46 28.0411 150.745 27.7553 151.011 27.4561C151.171 27.2757 151.347 27.2375 151.572 27.2382C153.677 27.2443 155.782 27.2463 157.886 27.2361C158.146 27.2348 158.347 27.2898 158.507 27.4953C158.568 27.5738 158.647 27.6383 158.736 27.7282Z" fill="url(#paint9_linear_587_1261)"/>
<path d="M185.99 28.5611C186.002 30.1885 186.001 31.795 185.999 33.4366C185.111 33.4717 184.224 33.4717 183.292 33.4717C183.292 32.2792 183.292 31.0862 183.292 29.8724C181.867 29.8724 180.487 29.8724 179.089 29.8724C179.089 32.0219 179.089 34.1574 179.089 36.3439C179.222 36.3439 179.354 36.3439 179.486 36.3439C181.1 36.3439 182.714 36.3479 184.328 36.3396C184.568 36.3384 184.75 36.3914 184.92 36.5755C185.258 36.9435 185.623 37.2878 185.99 37.6629C186.003 40.7971 186.003 43.9103 186.008 47.0589C185.612 47.5069 185.216 47.9246 184.806 48.3276C184.738 48.3948 184.606 48.4261 184.504 48.4264C182.299 48.4318 180.093 48.4287 177.888 48.4341C177.722 48.4345 177.606 48.381 177.494 48.2659C177.145 47.9065 176.791 47.5519 176.433 47.2012C176.337 47.1078 176.286 47.0136 176.287 46.875C176.291 45.3708 176.29 43.8664 176.292 42.3621C176.292 42.3263 176.306 42.2906 176.318 42.2334C177.214 42.2334 178.112 42.2334 179.06 42.2334C179.088 43.4086 179.058 44.592 179.077 45.7978C180.476 45.7978 181.858 45.7978 183.261 45.7978C183.261 43.5248 183.261 41.2623 183.261 38.9527C183.12 38.9527 182.986 38.9527 182.853 38.9527C181.236 38.9527 179.62 38.9476 178.004 38.9581C177.758 38.9597 177.581 38.8925 177.415 38.712C177.127 38.3986 176.826 38.095 176.512 37.808C176.338 37.6491 176.284 37.4799 176.284 37.2497C176.292 34.9055 176.289 32.5613 176.289 30.2171C176.289 29.7658 176.296 29.3143 176.285 28.8633C176.281 28.6853 176.337 28.558 176.464 28.436C176.816 28.0969 177.161 27.7503 177.501 27.3994C177.614 27.2824 177.735 27.2385 177.898 27.2389C180.078 27.2436 182.258 27.244 184.438 27.2384C184.617 27.2379 184.742 27.2946 184.863 27.4204C185.229 27.7989 185.605 28.1676 185.99 28.5611Z" fill="url(#paint10_linear_587_1261)"/>
<path d="M102.987 38.4381C102.987 41.7807 102.987 45.0858 102.987 48.4107C102.064 48.4107 101.178 48.4107 100.239 48.4107C100.219 47.8982 100.233 47.3775 100.23 46.8576C100.228 46.3312 100.23 45.8048 100.23 45.2784C100.23 44.7395 100.23 44.2006 100.23 43.6617C100.23 43.1353 100.23 42.6089 100.23 42.0825C100.23 41.5562 100.23 41.0298 100.23 40.5034C100.23 39.9809 100.23 39.4583 100.23 38.9199C98.804 38.9199 97.42 38.9199 95.9968 38.9199C95.9968 42.0881 95.9968 45.239 95.9968 48.4102C95.0868 48.4102 94.2157 48.4102 93.345 48.4102C93.2701 48.1223 93.2343 28.2229 93.3065 27.2994C93.5619 27.2284 95.4464 27.2091 95.9885 27.2776C95.9885 30.284 95.9885 33.296 95.9885 36.3257C97.4145 36.3257 98.799 36.3257 100.225 36.3257C100.225 33.3073 100.225 30.2952 100.225 27.2627C101.161 27.2627 102.055 27.2627 102.987 27.2627C102.987 30.9882 102.987 34.6943 102.987 38.4381Z" fill="url(#paint11_linear_587_1261)"/>
<path d="M154.135 3.16778C154.132 9.94665 154.129 16.689 154.125 23.4314C154.125 23.4528 154.105 23.4741 154.085 23.5139C153.285 23.5139 152.475 23.5139 151.642 23.5139C150.091 18.6144 148.539 13.7125 146.987 8.81056C146.963 8.81466 146.94 8.81877 146.916 8.82288C146.916 13.7116 146.916 18.6004 146.916 23.5107C146.164 23.5107 145.442 23.5107 144.721 23.5107C144.645 23.2386 144.609 3.60433 144.683 2.7791C144.948 2.70456 146.465 2.68181 147.178 2.74564C148.736 7.65778 150.299 12.584 151.861 17.5103C151.88 17.5079 151.899 17.5056 151.918 17.5032C151.918 12.5933 151.918 7.68341 151.918 2.74671C152.658 2.74671 153.365 2.74671 154.118 2.74671C154.123 2.8683 154.129 2.9998 154.135 3.16778Z" fill="url(#paint12_linear_587_1261)"/>
<path d="M93.214 3.09206C93.4724 3.35029 93.7078 3.59339 93.9523 3.82704C94.0686 3.93822 94.14 4.05612 94.1175 4.2221C94.1091 4.28362 94.1161 4.34723 94.1161 4.40989C94.1161 10.2248 94.1143 16.0398 94.1218 21.8547C94.1221 22.1392 94.0555 22.3515 93.839 22.5425C93.5578 22.7907 93.2978 23.0641 93.0402 23.3377C92.9113 23.4747 92.7778 23.5376 92.5832 23.537C90.4539 23.53 88.3245 23.5308 86.1952 23.5359C86.0191 23.5363 85.8879 23.4905 85.7655 23.3618C85.4806 23.0623 85.1927 22.7643 84.8874 22.4863C84.7126 22.3271 84.6616 22.1557 84.6619 21.9257C84.6683 18.0783 84.6665 14.2309 84.6665 10.3836C84.6665 8.39093 84.672 6.39828 84.6604 4.40573C84.6587 4.10632 84.7342 3.88694 84.9635 3.68797C85.2561 3.4341 85.52 3.14653 85.7899 2.86731C85.893 2.76067 86.0028 2.71631 86.1536 2.71662C88.308 2.72102 90.4624 2.72515 92.6168 2.71314C92.9114 2.7115 93.018 2.92939 93.214 3.09206ZM91.6585 10.1173C91.6585 8.40531 91.6585 6.69335 91.6585 4.98707C91.026 4.91365 87.3594 4.93869 87.0969 5.01222C87.0969 10.4322 87.0969 15.8518 87.0969 21.2998C88.6279 21.2959 90.135 21.3059 91.6585 21.2937C91.6585 17.5587 91.6585 13.8756 91.6585 10.1173Z" fill="url(#paint13_linear_587_1261)"/>
<path d="M105.469 10.1549C105.469 11.1323 105.46 12.0723 105.474 13.0119C105.478 13.2601 105.404 13.4345 105.224 13.5989C104.938 13.8609 104.665 14.1381 104.401 14.4226C104.269 14.5647 104.128 14.6176 103.938 14.6092C103.639 14.5961 103.338 14.6057 102.974 14.6057C104.125 17.5806 105.264 20.5208 106.403 23.4637C106.102 23.5482 104.569 23.5715 103.85 23.5071C102.767 20.5577 101.678 17.5938 100.587 14.6251C100.032 14.6251 99.4994 14.6251 98.9265 14.6251C98.9265 17.5941 98.9265 20.544 98.9265 23.5131C98.1268 23.5131 97.3672 23.5131 96.6071 23.5131C96.5217 23.2285 96.479 3.97859 96.5637 2.75118C96.6518 2.7411 96.746 2.721 96.8402 2.72093C99.2073 2.71919 101.574 2.72119 103.942 2.71625C104.118 2.71588 104.248 2.76333 104.371 2.89162C104.664 3.19993 104.962 3.50508 105.274 3.79459C105.427 3.93657 105.473 4.08921 105.472 4.29035C105.466 6.23264 105.469 8.17496 105.469 10.1549ZM103.011 8.53762C103.011 7.35239 103.011 6.16715 103.011 4.97098C101.633 4.97098 100.299 4.97098 98.9507 4.97098C98.9507 7.44772 98.9507 9.9065 98.9507 12.3792C100.306 12.3792 101.639 12.3792 103.011 12.3792C103.011 11.1109 103.011 9.86189 103.011 8.53762Z" fill="url(#paint14_linear_587_1261)"/>
<path d="M81.3588 43.6283C81.3588 38.7533 81.3618 33.9159 81.3518 29.0786C81.3512 28.7756 81.4332 28.5618 81.6553 28.3617C81.9807 28.0687 82.2853 27.7516 82.5871 27.4337C82.7174 27.2966 82.8513 27.2369 83.0449 27.2376C85.1993 27.2444 87.3537 27.2437 89.5081 27.2385C89.6848 27.238 89.8137 27.287 89.9365 27.4143C90.2929 27.784 90.6589 28.1446 91.0248 28.505C91.1274 28.6061 91.1874 28.709 91.1869 28.8636C91.1812 30.5679 91.1829 32.2723 91.1816 33.9767C91.1816 34.0128 91.1695 34.0489 91.1583 34.1114C90.2539 34.1114 89.3485 34.1114 88.412 34.1114C88.412 32.7067 88.412 31.3086 88.412 29.9194C88.1107 29.8346 85.005 29.8044 84.1687 29.8724C84.1687 35.1742 84.1687 40.4783 84.1687 45.802C85.573 45.802 86.9685 45.802 88.3925 45.802C88.3925 44.3845 88.3925 42.9849 88.3925 41.5597C89.3269 41.5597 90.233 41.5597 91.1638 41.5597C91.1707 41.6631 91.1827 41.7596 91.1827 41.856C91.1839 43.4852 91.1799 45.1144 91.1879 46.7435C91.189 46.9611 91.13 47.1175 90.9694 47.2672C90.6305 47.583 90.3069 47.9157 89.9859 48.25C89.8654 48.3755 89.7413 48.4349 89.5618 48.4344C87.3698 48.4286 85.1778 48.4287 82.9859 48.4342C82.8079 48.4346 82.6815 48.3805 82.56 48.2539C82.2303 47.9106 81.8967 47.5703 81.5498 47.2447C81.3976 47.1018 81.3541 46.9483 81.3555 46.7488C81.3627 45.7212 81.3588 44.6935 81.3588 43.6283Z" fill="url(#paint15_linear_587_1261)"/>
<path d="M71.2849 20.4602C71.2848 21.0116 71.2803 21.5256 71.2875 22.0393C71.2898 22.2007 71.2469 22.322 71.127 22.4363C70.8099 22.739 70.502 23.0515 70.1971 23.3666C70.0859 23.4816 69.9702 23.5364 69.8042 23.5359C67.6497 23.5306 65.4951 23.5305 63.3406 23.5361C63.1737 23.5365 63.0592 23.4791 62.9484 23.3649C62.6432 23.0501 62.334 22.739 62.0191 22.4339C61.9133 22.3313 61.8589 22.227 61.8595 22.0746C61.8655 20.6459 61.8646 19.2172 61.8665 17.7885C61.8665 17.7649 61.8772 17.7412 61.8893 17.6911C62.6655 17.6911 63.4485 17.6911 64.2863 17.6911C64.3037 18.8695 64.2838 20.0637 64.2973 21.2779C65.826 21.2779 67.3239 21.2779 68.8229 21.2779C68.8926 21.0163 68.9112 14.5689 68.837 14.0546C68.7098 14.0546 68.5754 14.0546 68.4409 14.0546C66.7749 14.0546 65.1089 14.05 63.443 14.0598C63.2102 14.0612 63.043 14.0002 62.8865 13.8277C62.6342 13.5496 62.3672 13.2834 62.0899 13.0303C61.9184 12.8738 61.8551 12.7076 61.8567 12.4734C61.8675 10.9445 61.8623 9.41549 61.8623 7.88649C61.8623 6.69587 61.8696 5.50518 61.8564 4.31471C61.8537 4.06617 61.9283 3.89195 62.1069 3.72751C62.3924 3.46469 62.6655 3.18732 62.9301 2.90333C63.0614 2.76244 63.2018 2.71549 63.3916 2.71603C65.5085 2.72201 67.6255 2.72241 69.7424 2.71564C69.947 2.71499 70.0944 2.77258 70.2339 2.92106C70.5254 3.23137 70.8392 3.5208 71.1301 3.83167C71.2073 3.91415 71.2776 4.04313 71.2782 4.15117C71.2864 5.59231 71.2816 7.03352 71.2789 8.47471C71.2789 8.49726 71.264 8.51979 71.2479 8.56505C70.4757 8.56505 69.6955 8.56505 68.8803 8.56505C68.8803 7.36233 68.8803 6.1778 68.8803 4.97336C67.3473 4.97336 65.8492 4.97336 64.3508 4.97336C64.2793 5.2293 64.2575 11.2565 64.333 11.7972C64.4587 11.7972 64.5921 11.7972 64.7255 11.7972C66.3789 11.7972 68.0324 11.8012 69.6858 11.7927C69.9271 11.7915 70.1113 11.8437 70.2778 12.0306C70.5274 12.3108 70.7969 12.5748 71.0735 12.8288C71.235 12.9771 71.2897 13.1373 71.2891 13.3542C71.2823 15.7103 71.2848 18.0664 71.2849 20.4602Z" fill="url(#paint16_linear_587_1261)"/>
<path d="M1.91041 51.1149C3.14493 50.7335 4.1987 50.0805 5.14303 49.2682C6.16753 48.387 7.13964 47.4448 8.13576 46.5305C8.48631 46.2087 8.84358 45.8943 9.19208 45.5703C9.92008 44.8936 10.8115 44.594 11.769 44.4555C12.5478 44.3429 12.5586 44.3407 13.1416 44.8556C14.6657 46.2021 15.5777 47.8773 15.7981 49.9107C15.8343 50.2448 15.8311 50.5831 15.8529 50.9191C15.8634 51.0806 15.8107 51.1996 15.6953 51.3179C15.3195 51.7032 14.884 51.9921 14.3678 52.1371C13.5374 52.3703 12.6996 52.5774 11.8674 52.8048C10.6973 53.1245 9.53248 53.4637 8.35996 53.7741C7.16442 54.0906 6.23544 54.7585 5.58608 55.8096C5.27036 56.3207 4.96933 56.8409 4.66341 57.3579C4.58106 57.4971 4.50515 57.6401 4.42708 57.7799C2.13476 56.7656 0.326159 54.1494 0.161255 51.4329C0.735258 51.3306 1.30869 51.2283 1.91041 51.1149Z" fill="url(#paint17_linear_587_1261)"/>
<path d="M123.06 8.72565C123.06 7.22134 123.064 5.75461 123.056 4.28795C123.055 4.07161 123.109 3.91051 123.27 3.76105C123.573 3.47997 123.861 3.18254 124.148 2.8851C124.26 2.76986 124.376 2.71591 124.542 2.71631C126.697 2.72158 128.852 2.72093 131.007 2.71735C131.155 2.71711 131.267 2.75296 131.372 2.86252C131.684 3.18776 132.004 3.50667 132.328 3.82013C132.435 3.9233 132.486 4.02901 132.486 4.18054C132.481 5.79766 132.483 7.4148 132.482 9.03194C132.482 9.09101 132.467 9.15008 132.458 9.22331C131.667 9.22331 130.896 9.22331 130.093 9.22331C130.093 7.80986 130.093 6.41106 130.093 4.9578C128.555 4.94743 127.047 4.95523 125.515 4.95246C125.515 10.401 125.515 15.8223 125.515 21.2715C127.023 21.2715 128.529 21.2715 130.067 21.2715C130.067 19.8676 130.067 18.4688 130.067 17.079C130.361 16.9978 131.973 16.9813 132.463 17.0498C132.469 17.1536 132.482 17.2625 132.482 17.3714C132.483 18.9008 132.479 20.4302 132.487 21.9595C132.488 22.1748 132.438 22.3379 132.276 22.4878C131.974 22.7691 131.686 23.0669 131.398 23.3636C131.288 23.4773 131.174 23.5367 131.006 23.5362C128.851 23.5304 126.696 23.5306 124.541 23.5359C124.375 23.5363 124.259 23.4816 124.148 23.3666C123.861 23.0692 123.573 22.7718 123.27 22.4906C123.109 22.3411 123.056 22.1797 123.056 21.9635C123.063 19.9327 123.06 17.9019 123.06 15.8711C123.06 13.5018 123.06 11.1325 123.06 8.72565Z" fill="url(#paint18_linear_587_1261)"/>
<path d="M166.54 43.4027C166.542 38.0255 166.545 32.686 166.549 27.3464C166.549 27.3249 166.568 27.3033 166.589 27.2618C169.293 27.2618 172.007 27.2618 174.723 27.2618C174.803 27.5159 174.83 28.9702 174.764 29.8441C174.326 29.8593 173.88 29.8487 173.435 29.8506C172.984 29.8526 172.533 29.8511 172.082 29.8511C171.631 29.8511 171.18 29.8511 170.729 29.8511C170.279 29.8511 169.828 29.8511 169.35 29.8511C169.35 32.0409 169.35 34.2119 169.35 36.4135C170.734 36.4135 172.107 36.4135 173.506 36.4135C173.506 37.2744 173.506 38.1053 173.506 38.9664C172.13 38.9664 170.757 38.9664 169.394 38.9664C169.306 39.258 169.278 45.1295 169.357 45.8215C170.248 45.8215 171.145 45.8215 172.043 45.8215C172.942 45.8215 173.841 45.8215 174.763 45.8215C174.763 46.6987 174.763 47.5431 174.763 48.4092C172.027 48.4092 169.304 48.4092 166.54 48.4092C166.54 46.7418 166.54 45.091 166.54 43.4027Z" fill="url(#paint19_linear_587_1261)"/>
<path d="M74.418 31.8186C74.418 33.3592 74.418 34.8622 74.418 36.4075C75.8162 36.4075 77.1985 36.4075 78.6042 36.4075C78.6042 37.2706 78.6042 38.0919 78.6042 38.9683C78.1582 38.988 77.7008 38.9746 77.2443 38.977C76.7808 38.9794 76.3172 38.9775 75.8537 38.9775C75.3923 38.9775 74.9309 38.9775 74.4439 38.9775C74.4439 41.2633 74.4439 43.523 74.4439 45.8156C76.2346 45.8156 78.0199 45.8156 79.8303 45.8156C79.8303 46.6931 79.8303 47.5381 79.8303 48.407C77.1183 48.407 74.4061 48.407 71.6932 48.407C71.6169 48.1257 71.5796 28.2511 71.6542 27.2992C71.9123 27.2279 79.3606 27.2091 79.8365 27.2815C79.8365 28.1235 79.8365 28.9685 79.8365 29.8457C78.0329 29.8457 76.2472 29.8457 74.418 29.8457C74.418 30.5116 74.418 31.1463 74.418 31.8186Z" fill="url(#paint20_linear_587_1261)"/>
<path d="M73.7411 14.292C73.7411 10.422 73.7411 6.58967 73.7411 2.71983C73.9032 2.71983 74.0252 2.71983 74.1472 2.71983C76.4026 2.71983 78.658 2.72283 80.9134 2.71546C81.1552 2.71467 81.3389 2.7678 81.5063 2.95409C81.7739 3.25203 82.0648 3.52968 82.3539 3.80749C82.4785 3.92723 82.542 4.05056 82.5417 4.23162C82.5364 7.32816 82.5364 10.4247 82.5417 13.5212C82.542 13.7025 82.4778 13.8255 82.3534 13.9452C82.0554 14.2318 81.7583 14.5204 81.478 14.8241C81.3281 14.9866 81.1653 15.0374 80.9503 15.0363C79.5094 15.0288 78.0684 15.0324 76.6275 15.0324C76.4914 15.0324 76.3554 15.0324 76.1745 15.0324C76.1745 17.8719 76.1745 20.6842 76.1745 23.5136C75.3469 23.5136 74.5643 23.5136 73.7411 23.5136C73.7411 20.4399 73.7411 17.3848 73.7411 14.292ZM76.1714 8.83849C76.1765 10.1524 76.1816 11.4664 76.1877 12.7803C76.1877 12.7898 76.2023 12.7992 76.2103 12.8085C76.2184 12.8179 76.2268 12.8272 76.2271 12.8275C77.5086 12.8275 78.78 12.8275 80.0564 12.8275C80.0564 10.1955 80.0564 7.58671 80.0564 4.98055C79.3823 4.91117 76.4585 4.93757 76.1714 5.01893C76.1714 6.26281 76.1714 7.51304 76.1714 8.83849Z" fill="url(#paint21_linear_587_1261)"/>
<path d="M53.7562 75.664C53.7066 75.6389 53.657 75.6138 53.566 75.5678C54.1387 75.3982 54.6615 75.2512 55.1793 75.0886C56.5295 74.6645 57.8252 74.1095 59.0807 73.4569C60.3707 72.7863 61.6002 72.0212 62.7624 71.1474C64.5207 69.8254 66.0815 68.3015 67.441 66.5715C68.4013 65.3494 69.5185 64.3072 70.8856 63.5481C71.6936 63.0994 72.5489 62.785 73.475 62.7571C74.1314 62.7373 74.7617 62.9081 75.3074 63.3099C75.2438 63.3897 75.1767 63.4328 75.1461 63.4942C75.0625 63.6613 75.0021 63.84 74.9189 64.0074C74.1787 65.4971 73.3544 66.9386 72.3631 68.2759C71.8444 68.9758 71.306 69.6673 70.7159 70.3066C69.9797 71.1042 69.2076 71.87 68.3522 72.5487C67.499 73.2257 66.6034 73.8354 65.6441 74.3463C64.2147 75.1075 62.7054 75.6387 61.1049 75.9238C60.207 76.0837 59.3036 76.1626 58.3986 76.1855C57.7555 76.2017 57.1081 76.1145 56.4651 76.0491C55.8848 75.99 55.307 75.9035 54.7297 75.8179C54.4241 75.7726 54.1338 75.6223 53.8122 75.6853C53.8122 75.6853 53.8224 75.6843 53.8196 75.6743C53.7966 75.6642 53.7764 75.6641 53.7562 75.664Z" fill="url(#paint22_linear_587_1261)"/>
<path d="M47.1435 16.1002C46.6361 17.0378 45.804 17.5201 44.8021 17.7474C43.8393 17.9659 42.8676 17.9319 41.8982 17.7902C40.6511 17.608 39.4839 17.176 38.3422 16.6551C36.3648 15.7529 34.2952 15.1526 32.1503 14.8068C31.1395 14.6439 30.1256 14.5198 29.1001 14.5039C28.5759 14.4958 28.0512 14.4452 27.528 14.4596C25.8043 14.5072 24.0919 14.6624 22.4128 15.0837C22.3659 15.0955 22.3179 15.1029 22.2119 15.124C22.2729 15.0025 22.3129 14.9227 22.3902 14.8464C22.4821 14.8383 22.5492 14.8429 22.5893 14.8123C22.7478 14.6914 22.8966 14.558 23.0511 14.4318C24.1487 13.5357 25.3333 12.7808 26.6182 12.1777C27.5148 11.7569 28.4328 11.4094 29.3937 11.1676C30.6318 10.856 31.8855 10.6739 33.1629 10.6849C33.6361 10.6889 34.1087 10.7427 34.5821 10.7526C35.3838 10.7693 36.1685 10.9199 36.9442 11.0884C38.746 11.4798 40.4602 12.1342 42.1123 12.9481C42.5938 13.1853 43.0575 13.4595 43.5246 13.7251C44.6656 14.3739 45.755 15.0997 46.7815 15.9197C46.8845 16.002 47.022 16.0411 47.1435 16.1002Z" fill="url(#paint23_linear_587_1261)"/>
<path d="M172.24 11.8723C172.55 11.8722 172.823 11.8722 173.113 11.8722C173.113 12.6196 173.113 13.3274 173.113 14.0688C171.725 14.0688 170.353 14.0688 168.99 14.0688C168.908 14.3694 168.884 20.7042 168.959 21.2993C169.851 21.2993 170.748 21.2993 171.646 21.2993C172.547 21.2993 173.449 21.2993 174.38 21.2993C174.38 22.0384 174.38 22.7573 174.38 23.5044C171.776 23.5044 169.167 23.5044 166.536 23.5044C166.536 16.5838 166.536 9.67139 166.536 2.73932C169.154 2.73932 171.755 2.73932 174.383 2.73932C174.383 3.46444 174.383 4.18342 174.383 4.93424C172.581 4.93424 170.782 4.93424 168.993 4.93424C168.907 5.2216 168.876 11.1629 168.953 11.8723C170.032 11.8723 171.118 11.8723 172.24 11.8723Z" fill="url(#paint24_linear_587_1261)"/>
<path d="M134.939 22.0398C134.942 15.6097 134.944 9.21718 134.948 2.82468C134.948 2.80286 134.967 2.78106 134.986 2.7395C137.564 2.7395 140.15 2.7395 142.76 2.7395C142.76 3.47235 142.76 4.19164 142.76 4.94586C140.963 4.94586 139.177 4.94586 137.369 4.94586C137.369 7.26545 137.369 9.55031 137.369 11.8667C138.76 11.8667 140.133 11.8667 141.531 11.8667C141.531 12.6055 141.531 13.3133 141.531 14.0679C140.151 14.0679 138.77 14.0679 137.367 14.0679C137.367 16.4904 137.367 18.8666 137.367 21.2911C139.157 21.2911 140.951 21.2911 142.761 21.2911C142.761 22.0587 142.761 22.7779 142.761 23.5136C140.153 23.5136 137.566 23.5136 134.939 23.5136C134.939 23.0228 134.939 22.5501 134.939 22.0398Z" fill="url(#paint25_linear_587_1261)"/>
<path d="M70.0538 29.851C69.0288 29.851 68.0398 29.851 67.0091 29.851C67.0091 36.044 67.0091 42.2166 67.0091 48.4099C66.0705 48.4099 65.1734 48.4099 64.2756 48.4099C64.2674 48.4017 64.2577 48.3935 64.2498 48.3838C64.2423 48.3745 64.2325 48.3644 64.2308 48.3536C64.2248 48.3166 64.2184 48.2792 64.2184 48.2419C64.215 42.1369 64.2121 36.0319 64.2085 29.9269C64.2085 29.9166 64.1975 29.9063 64.1673 29.8534C63.0857 29.8534 61.9788 29.8534 60.8535 29.8534C60.8535 28.9754 60.8535 28.1398 60.8535 27.3032C61.1207 27.223 69.4748 27.1862 70.3747 27.262C70.4474 27.5226 70.4705 29.1729 70.4069 29.8285C70.305 29.8357 70.1974 29.8434 70.0538 29.851Z" fill="url(#paint26_linear_587_1261)"/>
<path d="M53.9099 46.8335C53.7874 46.8213 53.6496 46.8014 53.5293 46.7446C53.1333 46.5573 52.7449 46.3542 52.3515 46.1617C51.3965 45.6946 50.4435 45.2232 49.4838 44.7659C48.2653 44.1853 47.0463 43.6054 45.8181 43.0462C44.1587 42.2907 42.4998 41.5329 40.823 40.8177C39.3542 40.1912 37.8544 39.6379 36.3805 39.0229C34.9934 38.444 33.6606 37.7594 32.5059 36.7757C32.0789 36.4119 31.6387 36.058 31.2509 35.6549C30.4692 34.8425 29.8123 33.9331 29.2772 32.937C28.3584 31.2266 27.7747 29.4019 27.4413 27.4965C27.2871 26.6157 27.1876 25.7253 27.0626 24.8394C26.9597 24.1099 26.9169 23.3773 26.9087 22.6402C26.9024 22.0803 26.848 21.521 26.795 20.9377C26.8047 20.365 26.8343 19.816 26.8639 19.267C26.8753 19.2608 26.8867 19.2546 26.898 19.2484C26.9481 19.3897 27.0133 19.5276 27.0456 19.6728C27.214 20.4283 27.3219 21.1914 27.3904 21.9642C27.4386 22.5075 27.5686 23.0472 27.7021 23.5785C28.0932 25.1341 28.644 26.6326 29.3735 28.063C30.2699 29.8208 31.3748 31.4335 32.7047 32.8939C34.6047 34.9803 36.8248 36.6331 39.3441 37.8985C41.2652 38.8634 43.1677 39.8655 45.0855 40.8373C45.8871 41.2435 46.7048 41.6184 47.5188 41.9998C49.0545 42.7192 50.478 43.6157 51.7893 44.6904C52.5643 45.3256 53.2758 46.0251 53.9099 46.8335Z" fill="url(#paint27_linear_587_1261)"/>
<path d="M133.222 48.4304C131.759 48.4304 130.333 48.4304 128.913 48.4304C128.836 48.1433 128.817 27.7137 128.891 27.2607C129.77 27.2607 130.653 27.2607 131.575 27.2607C131.575 33.4424 131.575 39.6114 131.575 45.8193C133.36 45.8193 135.106 45.8193 136.873 45.8193C136.873 46.7024 136.873 47.5465 136.873 48.4304C135.657 48.4304 134.458 48.4304 133.222 48.4304Z" fill="url(#paint28_linear_587_1261)"/>
<path d="M159.686 2.71939C161.44 2.71939 163.156 2.71939 164.924 2.71939C164.951 3.08828 164.934 3.44695 164.937 3.8041C164.94 4.16674 164.938 4.52942 164.938 4.94387C163.813 4.96799 162.706 4.94054 161.569 4.95933C161.569 11.144 161.569 17.3064 161.569 23.4591C161.282 23.5484 159.865 23.574 159.101 23.5072C159.091 23.044 159.098 22.573 159.097 22.1024C159.095 21.626 159.096 21.1496 159.096 20.6732C159.096 20.1969 159.096 19.7205 159.096 19.2441C159.096 18.7677 159.096 18.2913 159.096 17.815C159.096 17.3386 159.096 16.8622 159.096 16.3858C159.096 15.9094 159.096 15.4331 159.096 14.9567C159.096 14.4928 159.096 14.029 159.096 13.5652C159.096 13.0888 159.096 12.6124 159.096 12.136C159.096 11.6596 159.096 11.1833 159.096 10.7069C159.096 10.2305 159.096 9.75412 159.096 9.27774C159.096 8.80136 159.096 8.32498 159.096 7.84861C159.096 7.37223 159.096 6.89585 159.096 6.41947C159.096 5.94557 159.096 5.47167 159.096 4.96215C157.959 4.96215 156.851 4.96215 155.716 4.96215C155.716 4.20721 155.716 3.48771 155.716 2.71939C157.026 2.71939 158.338 2.71939 159.686 2.71939Z" fill="url(#paint29_linear_587_1261)"/>
<path d="M112.71 18.8805C112.71 20.4433 112.71 21.9684 112.71 23.5128C111.889 23.5128 111.107 23.5128 110.282 23.5128C110.282 17.3293 110.282 11.1602 110.282 4.95896C109.144 4.95896 108.048 4.95896 106.924 4.95896C106.924 4.2082 106.924 3.48901 106.924 2.74472C109.958 2.74472 112.995 2.74472 116.063 2.74472C116.063 3.4591 116.063 4.1781 116.063 4.94131C114.967 4.94131 113.86 4.94131 112.71 4.94131C112.71 9.60431 112.71 14.2236 112.71 18.8805Z" fill="url(#paint30_linear_587_1261)"/>
<path d="M53.8254 75.7079C54.1338 75.6223 54.4241 75.7726 54.7297 75.8179C55.307 75.9035 55.8848 75.99 56.4651 76.0491C57.1081 76.1145 57.7555 76.2017 58.3986 76.1855C59.3036 76.1626 60.207 76.0837 61.1049 75.9238C62.7054 75.6387 64.2147 75.1075 65.6441 74.3463C66.6034 73.8354 67.4989 73.2257 68.3522 72.5487C69.2076 71.87 69.9797 71.1042 70.7159 70.3066C71.306 69.6673 71.8443 68.9758 72.3631 68.2759C73.3544 66.9386 74.1787 65.4971 74.9189 64.0074C75.0021 63.84 75.0625 63.6613 75.1461 63.4941C75.1767 63.4328 75.2438 63.3897 75.3214 63.3322C75.7326 63.5281 76.0278 63.8325 76.2874 64.1703C76.7809 64.8127 77.1871 65.4967 77.2218 66.3383C77.2497 67.0147 77.0909 67.6559 76.8195 68.2671C76.4094 69.191 75.8268 70.0014 75.1344 70.734C72.6515 73.3611 69.5953 75.0531 66.208 76.2004C64.6768 76.719 63.1036 77.0506 61.4915 77.1763C60.882 77.2238 60.2673 77.2546 59.6571 77.2325C57.6104 77.1584 55.6476 76.7371 53.8254 75.7079Z" fill="url(#paint31_linear_587_1261)"/>
<path d="M47.1631 16.0827C47.022 16.0411 46.8845 16.002 46.7815 15.9197C45.7551 15.0997 44.6657 14.3739 43.5247 13.7251C43.0576 13.4595 42.5939 13.1853 42.1124 12.9481C40.4603 12.1342 38.7461 11.4799 36.9443 11.0884C36.1686 10.9199 35.3838 10.7693 34.5821 10.7526C34.1088 10.7427 33.6362 10.6889 33.163 10.6849C31.8856 10.6739 30.6319 10.856 29.3937 11.1676C28.4329 11.4094 27.5149 11.7569 26.6183 12.1777C25.3334 12.7808 24.1487 13.5357 23.0511 14.4318C22.8966 14.558 22.7478 14.6914 22.5894 14.8123C22.5492 14.8429 22.4822 14.8383 22.4131 14.8308C22.8834 14.0133 23.513 13.3358 24.2026 12.7177C26.3726 10.7725 28.9589 9.672 31.7676 9.03826C32.8758 8.78823 33.9959 8.60327 35.1333 8.56616C36.1439 8.53318 37.1583 8.47414 38.166 8.52512C40.1551 8.62576 42.1053 8.9642 43.9665 9.71453C44.9011 10.0913 45.7784 10.5682 46.5175 11.2588C47.2457 11.9392 47.7327 12.7651 47.7177 13.7909C47.7062 14.5796 47.5759 15.3579 47.1631 16.0827Z" fill="url(#paint32_linear_587_1261)"/>
<path d="M161.704 32.7212C161.704 30.882 161.704 29.0804 161.704 27.2605C162.638 27.2605 163.535 27.2605 164.459 27.2605C164.459 34.3045 164.459 41.3419 164.459 48.4049C163.553 48.4049 162.647 48.4049 161.704 48.4049C161.704 43.1817 161.704 37.9703 161.704 32.7212Z" fill="url(#paint33_linear_587_1261)"/>
<path d="M58.1437 71.95C58.5159 71.2421 58.915 70.547 59.2547 69.8238C60.0131 68.2095 60.5348 66.5152 60.8196 64.7547C60.9388 64.0175 60.9997 63.2694 61.0546 62.5238C61.0985 61.9263 61.1169 61.3247 61.1031 60.7259C61.0899 60.1533 61.0113 59.5826 60.978 59.0101C60.9053 57.7571 61.0805 56.5406 61.5785 55.3834C61.8983 54.6402 62.3683 54.0189 63.1316 53.6752C63.29 53.6039 63.4613 53.5612 63.6552 53.5354C64.0753 54.8006 64.4338 56.0454 64.6181 57.3304C64.731 58.1171 64.832 58.9091 64.8698 59.702C64.9013 60.3599 64.8379 61.0228 64.8062 61.683C64.7882 62.0558 64.7826 62.4339 64.714 62.7988C64.4269 64.3252 64.0001 65.8031 63.2052 67.1589C62.7037 68.0144 62.128 68.8089 61.4403 69.5195C61.111 69.8598 60.7539 70.174 60.4 70.4895C59.793 71.0306 59.1226 71.4855 58.4255 71.9007C58.3489 71.9463 58.2384 71.9349 58.1437 71.95Z" fill="url(#paint34_linear_587_1261)"/>
<path d="M23.6114 34.1766C23.8686 34.265 23.9789 34.5224 24.1091 34.7329C24.5428 35.4337 24.9667 36.1441 25.3366 36.88C26.0917 38.382 26.6272 39.9627 26.9219 41.6227C27.0308 42.2366 27.134 42.8486 27.1451 43.4747C27.1531 43.9233 27.2319 44.3738 27.2056 44.8191C27.1594 45.6012 27.0874 46.3846 26.9698 47.1589C26.8424 47.9972 26.6111 48.814 26.3343 49.6184C25.7792 51.2309 24.9867 52.7178 23.9023 54.0268C23.2496 54.8147 22.5386 55.5709 21.764 56.2369C20.6496 57.195 19.4555 58.0604 18.2917 58.9606C17.3745 59.67 16.4214 60.3366 15.5403 61.0881C14.7421 61.7688 13.9752 62.4983 13.2741 63.278C12.1572 64.5202 11.2812 65.9283 10.6285 67.4756C10.0723 68.7941 9.68822 70.1553 9.46373 71.567C9.31295 72.5152 9.1762 73.462 9.16626 74.4256C9.15879 75.1495 9.11243 75.873 9.06663 76.6224C8.98602 75.9791 8.89013 75.3112 8.86662 74.6407C8.839 73.8532 8.83272 73.0605 8.8892 72.2752C9.18103 68.2179 10.5311 64.5763 13.226 61.4858C14.6778 59.8209 16.3982 58.4811 18.309 57.38C19.7067 56.5747 20.9537 55.5759 22.0406 54.3857C23.3289 52.9749 24.2874 51.357 24.9532 49.5682C25.4872 48.1336 25.8326 46.6529 25.9464 45.1244C26.0066 44.3161 26.0793 43.5045 26.0633 42.696C26.045 41.7758 26.0123 40.8465 25.7914 39.9469C25.6641 39.4281 25.4703 38.9232 25.2764 38.4237C24.7292 37.0142 24.1665 35.6107 23.6114 34.1766Z" fill="url(#paint35_linear_587_1261)"/>
<path d="M31.8703 75.2521C31.6267 75.8162 31.4071 76.3799 31.1036 76.894C30.6666 77.6341 30.1882 78.3522 29.6896 79.0526C29.3727 79.4978 28.996 79.9022 28.6292 80.3096C28.3637 80.6046 28.0742 80.8785 27.7888 81.1551C26.1858 82.7084 24.2793 83.695 22.1033 84.1549C21.1207 84.3626 20.1153 84.3763 19.1196 84.3076C18.393 84.2576 17.6743 84.0944 16.9341 84.0007C16.8669 83.9928 16.8177 83.9658 16.7087 83.9062C16.9464 83.837 17.1195 83.7857 17.2931 83.7361C19.8216 83.015 22.068 81.7717 24.0718 80.0769C24.9828 79.3064 25.7834 78.4317 26.5228 77.4985C27.2471 76.5844 28.104 75.8324 29.1638 75.3277C29.63 75.1056 30.1153 74.9525 30.636 74.9323C31.0713 74.9154 31.4767 75.0201 31.8703 75.2521Z" fill="url(#paint36_linear_587_1261)"/>
<path d="M52.7608 69.7133C54.2257 69.2994 55.6699 69.3166 57.1497 69.584C56.9167 70.1467 56.6031 70.6137 56.2415 71.0427C54.7139 72.8552 52.8566 74.1747 50.5429 74.7935C49.5073 75.0705 48.4494 75.132 47.3848 75.0704C45.5032 74.9614 43.7309 74.4289 42.0255 73.6498C41.7758 73.5358 41.5299 73.4135 41.2835 73.2925C41.2647 73.2832 41.2561 73.253 41.2323 73.2166C41.6031 73.0187 41.9959 73.024 42.3912 73.0723C42.6515 73.1041 42.9094 73.1558 43.1686 73.1974C43.9137 73.3171 44.6455 73.2075 45.3581 73.0109C46.3216 72.7452 47.2755 72.443 48.2267 72.1353C49.0574 71.8665 49.7922 71.4139 50.4744 70.8745C51.1504 70.3399 51.8982 69.9472 52.7608 69.7133Z" fill="url(#paint37_linear_587_1261)"/>
<path d="M21.247 13.4735C21.2469 13.1027 21.2403 12.7145 21.2954 12.3353C21.441 11.3321 21.7157 10.3602 22.1103 9.42676C22.5017 8.50118 23.0217 7.64996 23.679 6.88744C23.9315 6.5946 24.1862 6.30161 24.4626 6.03195C25.2531 5.26066 26.1452 4.6264 27.1207 4.10865C28.05 3.61542 29.0109 3.19881 30.0168 2.88716C30.9338 2.60304 31.8652 2.38451 32.8169 2.25607C33.0261 2.22784 33.2359 2.20423 33.4773 2.17804C33.7357 2.9453 33.4714 3.60799 33.0402 4.21706C32.4869 4.99875 31.7411 5.56876 30.899 6.0032C30.4006 6.26029 29.8751 6.46693 29.3547 6.67867C27.3987 7.47446 25.6607 8.60414 24.1131 10.0401C23.0156 11.0585 22.0632 12.1923 21.247 13.4735Z" fill="url(#paint38_linear_587_1261)"/>
<path d="M20.1846 68.4924C19.486 69.2125 18.8537 69.9852 18.3173 70.8351C17.5705 72.0183 16.9834 73.2711 16.729 74.6548C16.5418 75.6728 16.4101 76.701 16.2373 77.7218C15.9913 79.1747 15.7549 80.6316 15.2185 82.0151C15.1151 82.2817 14.9726 82.5341 14.8361 82.7866C14.4401 83.5192 13.7976 83.693 13.0503 83.5405C12.351 83.3978 11.8041 82.9807 11.3092 82.4907C11.187 82.3697 11.0877 82.2254 10.9752 82.0885C11.5172 81.2183 12.0625 80.3664 12.5797 79.4979C12.7375 79.2327 12.8376 78.9276 12.9302 78.6302C13.265 77.5549 13.5722 76.471 13.9139 75.398C14.6396 73.119 15.8853 71.1894 17.7963 69.7208C18.4949 69.1839 19.2565 68.7538 20.1209 68.4524C20.1606 68.4656 20.1846 68.4924 20.1846 68.4924Z" fill="url(#paint39_linear_587_1261)"/>
<path d="M22.9248 27.9039C22.8043 28.3943 22.6713 28.8517 22.5838 29.3177C22.4986 29.7711 22.4601 30.2334 22.3509 30.7037C22.1927 30.2164 22.0252 29.7319 21.8779 29.2412C21.4438 27.7946 21.0575 26.3362 20.7866 24.8483C20.5415 23.5022 20.4303 22.1467 20.543 20.784C20.6254 19.7886 20.8775 18.8296 21.5715 18.0638C22.2007 17.3696 23.0024 16.9606 23.9068 16.7433C24.6364 17.568 24.9962 18.5028 25.0234 19.5687C25.0585 20.945 24.7963 22.2805 24.467 23.6069C24.2311 24.5567 23.8812 25.466 23.5067 26.368C23.3007 26.8641 23.1227 27.372 22.9248 27.9039Z" fill="url(#paint40_linear_587_1261)"/>
<path d="M58.1441 71.9514C58.2385 71.9349 58.349 71.9463 58.4255 71.9007C59.1226 71.4855 59.7931 71.0306 60.4 70.4895C60.7539 70.174 61.1111 69.8598 61.4403 69.5195C62.128 68.8089 62.7038 68.0144 63.2053 67.1589C64.0001 65.8031 64.4269 64.3252 64.714 62.7988C64.7826 62.4339 64.7883 62.0558 64.8062 61.683C64.838 61.0228 64.9013 60.3599 64.8699 59.702C64.832 58.9091 64.731 58.1171 64.6182 57.3304C64.4338 56.0454 64.0754 54.8006 63.6825 53.5379C64.4287 53.3924 65.156 53.475 65.8397 53.7932C66.3278 54.0203 66.6808 54.4116 66.9423 54.8824C67.4222 55.7466 67.5778 56.6909 67.5974 57.6603C67.6483 60.1839 67.0013 62.5505 65.9493 64.8214C65.2891 66.2467 64.4639 67.5671 63.4238 68.7477C62.1464 70.1976 60.6427 71.3231 58.797 71.952C58.6202 72.0122 58.4378 72.0561 58.2177 72.0707C58.1657 72.0075 58.154 71.9812 58.1422 71.9548C58.1422 71.9548 58.1444 71.9529 58.1441 71.9514Z" fill="url(#paint41_linear_587_1261)"/>
<path d="M52.724 66.8501C52.5561 66.8697 52.4057 66.8602 52.2736 66.9051C51.5141 67.1633 50.7236 67.273 49.9364 67.3859C49.4693 67.4529 48.99 67.4839 48.519 67.4643C47.29 67.4133 46.0881 67.1965 44.9763 66.6456C44.2012 66.2616 43.4853 65.7722 42.894 65.1346C41.8444 64.0026 41.18 62.667 40.8179 61.165C40.5681 60.1289 40.5446 59.0802 40.6151 58.0361C40.6832 57.0276 40.9445 56.0494 41.3534 55.1125C41.6556 54.4202 42.0174 53.767 42.4844 53.1779C43.227 52.2409 44.1424 51.5523 45.343 51.3131C46.3658 51.1094 47.3493 51.2777 48.3229 51.6694C47.763 51.6755 47.1918 51.6276 46.6177 51.734C45.8369 51.8787 45.1472 52.2075 44.5286 52.6924C43.7369 53.313 43.147 54.0821 42.7646 55.023C42.2447 56.3025 41.8367 57.6077 41.7386 58.9916C41.6086 60.8262 42.1201 62.4792 43.2315 63.9358C44.5257 65.6316 46.262 66.5795 48.3655 66.851C49.0736 66.9425 49.7882 66.8897 50.4942 66.7828C51.5532 66.6225 52.6105 66.4505 53.7066 66.313C53.7479 66.3608 53.751 66.3792 53.7541 66.3976C53.4194 66.5471 53.0846 66.6967 52.724 66.8501Z" fill="url(#paint42_linear_587_1261)"/>
<path d="M17.8374 82.3064C17.7378 82.3335 17.6382 82.3605 17.4797 82.4036C17.7887 81.9225 18.0746 81.5157 18.321 81.0862C19.1123 79.7072 19.6216 78.2303 19.7812 76.6436C19.831 76.1486 19.835 75.6489 19.8598 75.1514C19.8969 74.4098 20.0236 73.6875 20.3889 73.0314C20.6695 72.5276 21.0257 72.1009 21.6925 72.0769C21.7302 72.1717 21.7256 72.237 21.7434 72.2955C22.0028 73.1489 22.0104 74.0371 22.0941 74.9134C22.1208 75.1933 22.0588 75.4827 22.0283 75.7667C21.9846 76.1737 21.9582 76.5848 21.8797 76.9853C21.4978 78.9349 20.5159 80.4976 18.8465 81.6018C18.535 81.8078 18.207 81.9889 17.8877 82.1831C17.8441 82.2096 17.7485 82.2226 17.8374 82.3064Z" fill="url(#paint43_linear_587_1261)"/>
<path d="M9.60958 58.5148C9.24493 58.5658 8.9133 58.6257 8.579 58.6555C8.33439 58.6774 8.08627 58.6598 7.83506 58.6598C7.83506 58.5917 7.82425 58.5511 7.83663 58.5197C8.21841 57.5498 8.74803 56.6787 9.56784 56.0147C10.6653 55.1258 11.8507 54.3953 13.221 53.9934C13.9655 53.7751 14.6952 53.5115 15.3643 53.1059C15.3936 53.0881 15.433 53.0868 15.5141 53.0658C15.4325 53.4582 15.2896 53.8017 15.1271 54.1337C14.023 56.3892 12.2671 57.8493 9.82206 58.4616C9.76156 58.4768 9.70164 58.4943 9.60958 58.5148Z" fill="url(#paint44_linear_587_1261)"/>
<path d="M50.6722 24.6463C50.6089 24.6403 50.5251 24.6239 50.4837 24.5729C49.7252 23.6376 48.8214 22.8865 47.7284 22.3706C46.9105 21.9846 46.0633 21.7083 45.152 21.6603C44.8168 21.6427 44.4807 21.5792 44.1478 21.595C42.795 21.6589 41.5251 22.013 40.347 22.6999C39.7805 23.0301 39.272 23.4363 38.8188 23.8924C38.141 24.5746 37.5762 25.3496 37.1986 26.2521C36.9664 26.8069 36.7589 27.364 36.6592 27.9588C36.4845 29.0004 36.4596 30.04 36.6891 31.1082C36.3981 30.9525 36.253 30.6814 36.1856 30.345C35.6845 27.8461 36.1565 25.5722 37.7649 23.5722C39.0187 22.0133 40.6567 21.0645 42.6257 20.7828C45.5446 20.3652 47.9938 21.3058 49.9267 23.5406C50.2109 23.8692 50.4249 24.2585 50.6722 24.6463Z" fill="url(#paint45_linear_587_1261)"/>
<path d="M38.8329 34.4817C39.5917 34.8426 40.37 35.1423 41.1991 35.3067C45.9569 36.2501 50.4416 33.2325 51.5006 28.6809C51.5586 28.4315 51.6099 28.1805 51.6836 27.9352C51.8298 30.1328 51.2205 32.0892 49.7642 33.7448C48.4682 35.2181 46.8342 36.097 44.8789 36.3441C42.6021 36.6319 40.5781 36.0305 38.8044 34.548C38.8089 34.5105 38.8329 34.4817 38.8329 34.4817Z" fill="url(#paint46_linear_587_1261)"/>
<path d="M50.0619 57.7591C50.4401 56.4958 50.7011 55.2461 50.5744 53.8563C50.7 53.9731 50.7625 54.0231 50.8155 54.0817C51.921 55.304 52.4461 56.7591 52.5227 58.388C52.5681 59.3525 52.1923 60.1972 51.7269 61.0087C51.6879 61.0768 51.569 61.1382 51.488 61.1371C50.56 61.1251 49.7511 60.6464 49.75 59.5503C49.7494 58.939 49.8517 58.3582 50.0619 57.7591Z" fill="url(#paint47_linear_587_1261)"/>
<path d="M17.8673 82.3067C17.7485 82.2226 17.8441 82.2096 17.8877 82.1831C18.2071 81.9889 18.5351 81.8078 18.8466 81.6018C20.516 80.4976 21.4978 78.9348 21.8797 76.9853C21.9582 76.5847 21.9847 76.1736 22.0284 75.7667C22.0589 75.4826 22.1209 75.1933 22.0941 74.9134C22.0105 74.0371 22.0028 73.1489 21.7434 72.2955C21.7257 72.237 21.7303 72.1716 21.7226 72.0773C22.5299 71.8851 23.3728 72.4174 23.6137 73.2441C23.8253 73.9698 23.7792 74.7028 23.641 75.4307C23.3072 77.1889 22.5272 78.741 21.3711 80.0927C20.5316 81.0743 19.5299 81.853 18.2606 82.2223C18.1413 82.257 18.0184 82.2791 17.8673 82.3067Z" fill="url(#paint48_linear_587_1261)"/>
<path d="M53.7803 66.3955C53.751 66.3792 53.7479 66.3608 53.7393 66.315C53.9096 66.2502 54.0854 66.2129 54.3277 66.1614C54.1128 66.2571 53.9597 66.3253 53.7803 66.3955Z" fill="url(#paint49_linear_587_1261)"/>
<path d="M9.05383 76.8166C9.08203 76.7925 9.10611 76.7935 9.14809 76.7997C9.16298 76.8574 9.15983 76.9136 9.15312 77.0328C9.10006 76.9329 9.07497 76.8856 9.05383 76.8166Z" fill="url(#paint50_linear_587_1261)"/>
<path d="M58.1239 71.968C58.1539 71.9812 58.1657 72.0075 58.1869 72.0761C58.1517 72.1226 58.1071 72.1268 58.0625 72.1311C58.0769 72.0811 58.0913 72.0311 58.1239 71.968Z" fill="url(#paint51_linear_587_1261)"/>
<path d="M50.7578 24.7964C50.7307 24.7859 50.7011 24.7528 50.672 24.6958C50.7 24.7059 50.7276 24.7399 50.7578 24.7964Z" fill="url(#paint52_linear_587_1261)"/>
<path d="M20.1488 68.4519C20.1732 68.4252 20.2093 68.4123 20.2453 68.3993C20.2353 68.4229 20.2253 68.4464 20.1999 68.4812C20.1846 68.4924 20.1605 68.4656 20.1488 68.4519Z" fill="url(#paint53_linear_587_1261)"/>
<path d="M38.5524 34.4009C38.6017 34.4027 38.6511 34.4044 38.7095 34.429C38.7187 34.4518 38.7225 34.4484 38.7225 34.4484C38.6781 34.437 38.6338 34.4257 38.5714 34.4047C38.5534 34.395 38.5524 34.4009 38.5524 34.4009Z" fill="url(#paint54_linear_587_1261)"/>
<path d="M21.1348 13.4826C21.1528 13.4665 21.168 13.469 21.2043 13.4812C21.2035 13.5169 21.1817 13.543 21.1599 13.5691C21.1505 13.5465 21.1412 13.5238 21.1348 13.4826Z" fill="url(#paint55_linear_587_1261)"/>
<path d="M38.5508 34.3947C38.5478 34.3936 38.5605 34.3836 38.5605 34.3836C38.5605 34.3836 38.5448 34.3915 38.5487 34.3967C38.5526 34.4019 38.5538 34.3957 38.5508 34.3947Z" fill="url(#paint56_linear_587_1261)"/>
<path d="M53.7704 75.6751C53.7765 75.6641 53.7969 75.6641 53.8186 75.6792C53.8198 75.6942 53.7846 75.6861 53.7704 75.6751Z" fill="url(#paint57_linear_587_1261)"/>
<path d="M38.717 34.4538C38.7431 34.4555 38.7708 34.4551 38.8157 34.4682C38.8329 34.4816 38.8089 34.5105 38.7958 34.524C38.7596 34.522 38.7365 34.5065 38.7179 34.4697C38.7225 34.4484 38.7186 34.4518 38.717 34.4538Z" fill="url(#paint58_linear_587_1261)"/>
</g>
<defs>
<linearGradient id="paint0_linear_587_1261" x1="181.179" y1="2.7153" x2="181.179" y2="23.5355" gradientUnits="userSpaceOnUse">
<stop stop-color="white"/>
<stop offset="1" stop-color="#999999"/>
</linearGradient>
<linearGradient id="paint1_linear_587_1261" x1="25.127" y1="75.2747" x2="25.127" y2="85.0752" gradientUnits="userSpaceOnUse">
<stop stop-color="white"/>
<stop offset="1" stop-color="#999999"/>
</linearGradient>
<linearGradient id="paint2_linear_587_1261" x1="27.2185" y1="0.0751953" x2="27.2185" y2="13.487" gradientUnits="userSpaceOnUse">
<stop stop-color="white"/>
<stop offset="1" stop-color="#999999"/>
</linearGradient>
<linearGradient id="paint3_linear_587_1261" x1="4.04557" y1="42.9481" x2="4.04557" y2="50.4764" gradientUnits="userSpaceOnUse">
<stop stop-color="white"/>
<stop offset="1" stop-color="#999999"/>
</linearGradient>
<linearGradient id="paint4_linear_587_1261" x1="32.7315" y1="20.967" x2="32.7315" y2="76.7949" gradientUnits="userSpaceOnUse">
<stop stop-color="white"/>
<stop offset="1" stop-color="#999999"/>
</linearGradient>
<linearGradient id="paint5_linear_587_1261" x1="109.97" y1="27.2377" x2="109.97" y2="48.4396" gradientUnits="userSpaceOnUse">
<stop stop-color="white"/>
<stop offset="1" stop-color="#999999"/>
</linearGradient>
<linearGradient id="paint6_linear_587_1261" x1="44.0161" y1="21.5925" x2="44.0161" y2="33.7786" gradientUnits="userSpaceOnUse">
<stop stop-color="white"/>
<stop offset="1" stop-color="#999999"/>
</linearGradient>
<linearGradient id="paint7_linear_587_1261" x1="142.858" y1="27.235" x2="142.858" y2="48.4341" gradientUnits="userSpaceOnUse">
<stop stop-color="white"/>
<stop offset="1" stop-color="#999999"/>
</linearGradient>
<linearGradient id="paint8_linear_587_1261" x1="121.857" y1="27.2386" x2="121.857" y2="48.4357" gradientUnits="userSpaceOnUse">
<stop stop-color="white"/>
<stop offset="1" stop-color="#999999"/>
</linearGradient>
<linearGradient id="paint9_linear_587_1261" x1="154.735" y1="27.2361" x2="154.735" y2="48.4347" gradientUnits="userSpaceOnUse">
<stop stop-color="white"/>
<stop offset="1" stop-color="#999999"/>
</linearGradient>
<linearGradient id="paint10_linear_587_1261" x1="181.146" y1="27.2384" x2="181.146" y2="48.4341" gradientUnits="userSpaceOnUse">
<stop stop-color="white"/>
<stop offset="1" stop-color="#999999"/>
</linearGradient>
<linearGradient id="paint11_linear_587_1261" x1="98.1272" y1="27.235" x2="98.1272" y2="48.4107" gradientUnits="userSpaceOnUse">
<stop stop-color="white"/>
<stop offset="1" stop-color="#999999"/>
</linearGradient>
<linearGradient id="paint12_linear_587_1261" x1="149.389" y1="2.70837" x2="149.389" y2="23.5139" gradientUnits="userSpaceOnUse">
<stop stop-color="white"/>
<stop offset="1" stop-color="#999999"/>
</linearGradient>
<linearGradient id="paint13_linear_587_1261" x1="89.3911" y1="2.71313" x2="89.3911" y2="23.537" gradientUnits="userSpaceOnUse">
<stop stop-color="white"/>
<stop offset="1" stop-color="#999999"/>
</linearGradient>
<linearGradient id="paint14_linear_587_1261" x1="101.46" y1="2.71625" x2="101.46" y2="23.544" gradientUnits="userSpaceOnUse">
<stop stop-color="white"/>
<stop offset="1" stop-color="#999999"/>
</linearGradient>
<linearGradient id="paint15_linear_587_1261" x1="86.2699" y1="27.2375" x2="86.2699" y2="48.4344" gradientUnits="userSpaceOnUse">
<stop stop-color="white"/>
<stop offset="1" stop-color="#999999"/>
</linearGradient>
<linearGradient id="paint16_linear_587_1261" x1="66.5727" y1="2.71564" x2="66.5727" y2="23.5361" gradientUnits="userSpaceOnUse">
<stop stop-color="white"/>
<stop offset="1" stop-color="#999999"/>
</linearGradient>
<linearGradient id="paint17_linear_587_1261" x1="8.00773" y1="44.3947" x2="8.00773" y2="57.7799" gradientUnits="userSpaceOnUse">
<stop stop-color="white"/>
<stop offset="1" stop-color="#999999"/>
</linearGradient>
<linearGradient id="paint18_linear_587_1261" x1="127.772" y1="2.71631" x2="127.772" y2="23.5362" gradientUnits="userSpaceOnUse">
<stop stop-color="white"/>
<stop offset="1" stop-color="#999999"/>
</linearGradient>
<linearGradient id="paint19_linear_587_1261" x1="170.67" y1="27.2618" x2="170.67" y2="48.4092" gradientUnits="userSpaceOnUse">
<stop stop-color="white"/>
<stop offset="1" stop-color="#999999"/>
</linearGradient>
<linearGradient id="paint20_linear_587_1261" x1="75.7251" y1="27.2356" x2="75.7251" y2="48.407" gradientUnits="userSpaceOnUse">
<stop stop-color="white"/>
<stop offset="1" stop-color="#999999"/>
</linearGradient>
<linearGradient id="paint21_linear_587_1261" x1="78.1414" y1="2.71545" x2="78.1414" y2="23.5136" gradientUnits="userSpaceOnUse">
<stop stop-color="white"/>
<stop offset="1" stop-color="#999999"/>
</linearGradient>
<linearGradient id="paint22_linear_587_1261" x1="64.4367" y1="62.7555" x2="64.4367" y2="76.1875" gradientUnits="userSpaceOnUse">
<stop stop-color="white"/>
<stop offset="1" stop-color="#999999"/>
</linearGradient>
<linearGradient id="paint23_linear_587_1261" x1="34.6777" y1="10.6844" x2="34.6777" y2="17.9039" gradientUnits="userSpaceOnUse">
<stop stop-color="white"/>
<stop offset="1" stop-color="#999999"/>
</linearGradient>
<linearGradient id="paint24_linear_587_1261" x1="170.46" y1="2.73932" x2="170.46" y2="23.5044" gradientUnits="userSpaceOnUse">
<stop stop-color="white"/>
<stop offset="1" stop-color="#999999"/>
</linearGradient>
<linearGradient id="paint25_linear_587_1261" x1="138.85" y1="2.7395" x2="138.85" y2="23.5136" gradientUnits="userSpaceOnUse">
<stop stop-color="white"/>
<stop offset="1" stop-color="#999999"/>
</linearGradient>
<linearGradient id="paint26_linear_587_1261" x1="65.6487" y1="27.2206" x2="65.6487" y2="48.4099" gradientUnits="userSpaceOnUse">
<stop stop-color="white"/>
<stop offset="1" stop-color="#999999"/>
</linearGradient>
<linearGradient id="paint27_linear_587_1261" x1="40.3524" y1="19.2484" x2="40.3524" y2="46.8335" gradientUnits="userSpaceOnUse">
<stop stop-color="white"/>
<stop offset="1" stop-color="#999999"/>
</linearGradient>
<linearGradient id="paint28_linear_587_1261" x1="132.858" y1="27.2607" x2="132.858" y2="48.4304" gradientUnits="userSpaceOnUse">
<stop stop-color="white"/>
<stop offset="1" stop-color="#999999"/>
</linearGradient>
<linearGradient id="paint29_linear_587_1261" x1="160.328" y1="2.71939" x2="160.328" y2="23.5449" gradientUnits="userSpaceOnUse">
<stop stop-color="white"/>
<stop offset="1" stop-color="#999999"/>
</linearGradient>
<linearGradient id="paint30_linear_587_1261" x1="111.493" y1="2.74472" x2="111.493" y2="23.5128" gradientUnits="userSpaceOnUse">
<stop stop-color="white"/>
<stop offset="1" stop-color="#999999"/>
</linearGradient>
<linearGradient id="paint31_linear_587_1261" x1="65.5252" y1="63.3322" x2="65.5252" y2="77.2398" gradientUnits="userSpaceOnUse">
<stop stop-color="white"/>
<stop offset="1" stop-color="#999999"/>
</linearGradient>
<linearGradient id="paint32_linear_587_1261" x1="35.0656" y1="8.50519" x2="35.0656" y2="16.0827" gradientUnits="userSpaceOnUse">
<stop stop-color="white"/>
<stop offset="1" stop-color="#999999"/>
</linearGradient>
<linearGradient id="paint33_linear_587_1261" x1="163.081" y1="27.2605" x2="163.081" y2="48.4049" gradientUnits="userSpaceOnUse">
<stop stop-color="white"/>
<stop offset="1" stop-color="#999999"/>
</linearGradient>
<linearGradient id="paint34_linear_587_1261" x1="61.511" y1="53.5354" x2="61.511" y2="71.95" gradientUnits="userSpaceOnUse">
<stop stop-color="white"/>
<stop offset="1" stop-color="#999999"/>
</linearGradient>
<linearGradient id="paint35_linear_587_1261" x1="18.0285" y1="34.1766" x2="18.0285" y2="76.6224" gradientUnits="userSpaceOnUse">
<stop stop-color="white"/>
<stop offset="1" stop-color="#999999"/>
</linearGradient>
<linearGradient id="paint36_linear_587_1261" x1="24.2895" y1="74.9305" x2="24.2895" y2="84.3447" gradientUnits="userSpaceOnUse">
<stop stop-color="white"/>
<stop offset="1" stop-color="#999999"/>
</linearGradient>
<linearGradient id="paint37_linear_587_1261" x1="49.191" y1="69.3914" x2="49.191" y2="75.0923" gradientUnits="userSpaceOnUse">
<stop stop-color="white"/>
<stop offset="1" stop-color="#999999"/>
</linearGradient>
<linearGradient id="paint38_linear_587_1261" x1="27.413" y1="2.17804" x2="27.413" y2="13.4735" gradientUnits="userSpaceOnUse">
<stop stop-color="white"/>
<stop offset="1" stop-color="#999999"/>
</linearGradient>
<linearGradient id="paint39_linear_587_1261" x1="15.5799" y1="68.4524" x2="15.5799" y2="83.5913" gradientUnits="userSpaceOnUse">
<stop stop-color="white"/>
<stop offset="1" stop-color="#999999"/>
</linearGradient>
<linearGradient id="paint40_linear_587_1261" x1="22.7627" y1="16.7433" x2="22.7627" y2="30.7037" gradientUnits="userSpaceOnUse">
<stop stop-color="white"/>
<stop offset="1" stop-color="#999999"/>
</linearGradient>
<linearGradient id="paint41_linear_587_1261" x1="62.8712" y1="53.4685" x2="62.8712" y2="72.0707" gradientUnits="userSpaceOnUse">
<stop stop-color="white"/>
<stop offset="1" stop-color="#999999"/>
</linearGradient>
<linearGradient id="paint42_linear_587_1261" x1="47.1673" y1="51.2261" x2="47.1673" y2="67.4701" gradientUnits="userSpaceOnUse">
<stop stop-color="white"/>
<stop offset="1" stop-color="#999999"/>
</linearGradient>
<linearGradient id="paint43_linear_587_1261" x1="19.7902" y1="72.0769" x2="19.7902" y2="82.4036" gradientUnits="userSpaceOnUse">
<stop stop-color="white"/>
<stop offset="1" stop-color="#999999"/>
</linearGradient>
<linearGradient id="paint44_linear_587_1261" x1="11.6724" y1="53.0658" x2="11.6724" y2="58.6665" gradientUnits="userSpaceOnUse">
<stop stop-color="white"/>
<stop offset="1" stop-color="#999999"/>
</linearGradient>
<linearGradient id="paint45_linear_587_1261" x1="43.3335" y1="20.6863" x2="43.3335" y2="31.1082" gradientUnits="userSpaceOnUse">
<stop stop-color="white"/>
<stop offset="1" stop-color="#999999"/>
</linearGradient>
<linearGradient id="paint46_linear_587_1261" x1="45.2546" y1="27.9352" x2="45.2546" y2="36.414" gradientUnits="userSpaceOnUse">
<stop stop-color="white"/>
<stop offset="1" stop-color="#999999"/>
</linearGradient>
<linearGradient id="paint47_linear_587_1261" x1="51.1382" y1="53.8563" x2="51.1382" y2="61.1371" gradientUnits="userSpaceOnUse">
<stop stop-color="white"/>
<stop offset="1" stop-color="#999999"/>
</linearGradient>
<linearGradient id="paint48_linear_587_1261" x1="20.7843" y1="72.038" x2="20.7843" y2="82.3067" gradientUnits="userSpaceOnUse">
<stop stop-color="white"/>
<stop offset="1" stop-color="#999999"/>
</linearGradient>
<linearGradient id="paint49_linear_587_1261" x1="54.0335" y1="66.1614" x2="54.0335" y2="66.3955" gradientUnits="userSpaceOnUse">
<stop stop-color="white"/>
<stop offset="1" stop-color="#999999"/>
</linearGradient>
<linearGradient id="paint50_linear_587_1261" x1="9.10628" y1="76.796" x2="9.10628" y2="77.0328" gradientUnits="userSpaceOnUse">
<stop stop-color="white"/>
<stop offset="1" stop-color="#999999"/>
</linearGradient>
<linearGradient id="paint51_linear_587_1261" x1="58.1247" y1="71.968" x2="58.1247" y2="72.1311" gradientUnits="userSpaceOnUse">
<stop stop-color="white"/>
<stop offset="1" stop-color="#999999"/>
</linearGradient>
<linearGradient id="paint52_linear_587_1261" x1="50.7149" y1="24.6958" x2="50.7149" y2="24.7964" gradientUnits="userSpaceOnUse">
<stop stop-color="white"/>
<stop offset="1" stop-color="#999999"/>
</linearGradient>
<linearGradient id="paint53_linear_587_1261" x1="20.1971" y1="68.3993" x2="20.1971" y2="68.4838" gradientUnits="userSpaceOnUse">
<stop stop-color="white"/>
<stop offset="1" stop-color="#999999"/>
</linearGradient>
<linearGradient id="paint54_linear_587_1261" x1="38.6374" y1="34.3991" x2="38.6374" y2="34.4486" gradientUnits="userSpaceOnUse">
<stop stop-color="white"/>
<stop offset="1" stop-color="#999999"/>
</linearGradient>
<linearGradient id="paint55_linear_587_1261" x1="21.1695" y1="13.4713" x2="21.1695" y2="13.5691" gradientUnits="userSpaceOnUse">
<stop stop-color="white"/>
<stop offset="1" stop-color="#999999"/>
</linearGradient>
<linearGradient id="paint56_linear_587_1261" x1="38.5543" y1="34.3836" x2="38.5543" y2="34.3988" gradientUnits="userSpaceOnUse">
<stop stop-color="white"/>
<stop offset="1" stop-color="#999999"/>
</linearGradient>
<linearGradient id="paint57_linear_587_1261" x1="53.7945" y1="75.6673" x2="53.7945" y2="75.6874" gradientUnits="userSpaceOnUse">
<stop stop-color="white"/>
<stop offset="1" stop-color="#999999"/>
</linearGradient>
<linearGradient id="paint58_linear_587_1261" x1="38.7694" y1="34.4523" x2="38.7694" y2="34.524" gradientUnits="userSpaceOnUse">
<stop stop-color="white"/>
<stop offset="1" stop-color="#999999"/>
</linearGradient>
<clipPath id="clip0_587_1261">
<rect width="186" height="85" fill="white"/>
</clipPath>
</defs>
</svg>
