<svg width="517" height="129" viewBox="0 0 517 129" fill="none" xmlns="http://www.w3.org/2000/svg">
<path d="M3.90533 9.80289L2.09961 18.446L0.895803 27.1773L0.379883 35.9967V44.8162L0.98179 53.6357L2.1856 62.367L3.99132 71.0101L6.31296 79.4768L8.63459 71.0101L10.3543 62.367L11.5581 53.6357L12.16 44.8162V35.9967L11.5581 27.2655L10.3543 18.5342L8.63459 9.89108L6.22697 1.33617L3.90533 9.80289ZM19.2109 9.80289L17.4052 18.446L16.2014 27.1773L15.5995 35.9086V44.7281L16.2014 53.5475L17.4052 62.2788L19.2109 70.9219L21.5326 79.3886L23.8542 70.9219L25.574 62.2788L26.7778 53.5475L27.3797 44.7281V35.9967L26.7778 27.2655L25.574 18.5342L23.8542 9.89108L21.5326 1.33617L19.2109 9.80289ZM34.3446 9.80289L32.6249 18.446L31.421 27.1773L30.8191 35.9086V44.7281L31.421 53.5475L32.6249 62.2788L34.3446 70.9219L36.6662 79.3886L38.9879 70.9219L40.7936 62.2788L41.9974 53.5475L42.5993 44.7281V35.9967L41.9974 27.2655L40.7936 18.5342L38.9879 9.89108L36.7522 1.33617L34.3446 9.80289ZM49.6502 9.80289L47.9305 18.446L46.7266 27.1773L46.1247 35.9086V44.7281L46.7266 53.5475L47.9305 62.2788L49.6502 70.9219L51.9718 79.3886L54.2935 70.9219L56.0992 62.2788L57.303 53.5475L57.9049 44.7281V35.9967L57.303 27.2655L56.0992 18.5342L54.2935 9.89108L51.9718 1.33617L49.6502 9.80289ZM64.9558 9.80289L63.1501 18.446L61.9463 27.1773L61.3444 35.9086V44.7281L61.9463 53.5475L63.1501 62.2788L64.9558 70.9219L67.2774 79.3886L69.5991 70.9219L71.4048 62.2788L72.6086 53.5475L73.2105 44.7281V35.9967L72.6086 27.2655L71.4048 18.5342L69.5991 9.80289L67.2774 1.33617L64.9558 9.80289ZM148.105 1.33617L138.56 44.1107L129.016 1.33617H87.3983V79.7414H110.529V24.7078L125.834 79.7414H151.286L166.592 24.7078V79.7414H189.722V1.33617H148.105ZM233.06 64.0427L231.34 63.3371L229.878 62.1906L228.76 60.6913L228.072 58.9274L227.814 57.0753V23.8259L228.072 21.9738L228.76 20.2981L229.878 18.7987L231.34 17.6522L233.06 16.9467L234.865 16.6821L236.671 16.9467L238.391 17.6522L239.853 18.7987L240.97 20.2981L241.658 21.9738L241.916 23.8259V57.1635L241.658 59.0156L240.97 60.7795L239.853 62.2788L238.391 63.4254L236.671 64.1309L234.865 64.3955L233.06 64.0427ZM227.9 1.33617L223.945 1.60076L220.076 2.48271L216.292 3.89382L212.767 5.83412L209.585 8.30356L206.748 11.214L204.34 14.4772L202.448 18.0932L201.073 21.8856L200.213 25.9425L199.955 29.9995V51.1663L200.213 55.2232L201.073 59.192L202.448 63.0726L204.34 66.6886L206.748 69.9518L209.585 72.8622L212.767 75.3316L216.292 77.272L220.076 78.6831L223.945 79.565L227.9 79.8296H241.744L245.7 79.565L249.655 78.6831L253.352 77.272L256.878 75.3316L260.059 72.8622L262.897 69.9518L265.305 66.6886L267.196 63.0726L268.572 59.192L269.432 55.2232L269.69 51.1663V29.8231L269.432 25.7662L268.572 21.7092L267.196 17.9168L265.305 14.3008L262.897 11.0376L260.059 8.12719L256.878 5.65772L253.352 3.71743L249.655 2.30632L245.7 1.42437L241.83 1.15979H227.9V1.33617ZM335.642 1.33617V56.2816L320.336 1.33617H280.008V79.7414H303.139V24.7078L318.53 79.7414H358.858V1.33617H335.642ZM394.8 16.6821H401.679L403.485 16.9467L405.205 17.6522L406.666 18.7987L407.784 20.2981L408.472 21.9738L408.73 23.8259V57.1635L408.472 59.0156L407.784 60.7795L406.666 62.2788L405.205 63.4254L403.485 64.1309L401.679 64.3955H394.8V16.6821ZM369.348 1.33617V79.7414H408.73L412.686 79.4768L416.555 78.5949L420.252 77.1838L423.778 75.2435L426.959 72.774L429.797 69.8636L432.204 66.6004L434.096 62.9844L435.472 59.1038L436.332 55.135L436.59 51.0781V29.6467L436.332 25.5898L435.472 21.5328L434.096 17.7404L432.204 14.1244L429.797 10.8612L426.959 7.95079L423.778 5.48133L420.252 3.54104L416.555 2.12992L412.686 1.24797L408.644 0.983398H369.348V1.33617ZM479.755 64.0427L478.035 63.3371L476.574 62.1906L475.456 60.6913L474.768 58.9274L474.51 57.0753V23.8259L474.768 21.9738L475.456 20.2981L476.574 18.7987L478.035 17.6522L479.755 16.9467L481.561 16.6821L483.366 16.9467L485.086 17.6522L486.548 18.7987L487.666 20.2981L488.354 21.9738L488.612 23.8259V57.0753L488.354 58.9274L487.666 60.6913L486.548 62.1906L485.086 63.3371L483.366 64.0427L481.561 64.3073L479.755 64.0427ZM474.682 1.33617L470.727 1.60076L466.857 2.48271L463.074 3.89382L459.548 5.83412L456.367 8.30356L453.529 11.214L451.121 14.4772L449.23 18.0932L447.854 21.8856L446.994 25.9425L446.736 29.9995V51.1663L446.994 55.2232L447.854 59.192L449.23 63.0726L451.121 66.6886L453.529 69.9518L456.367 72.8622L459.548 75.3316L463.074 77.272L466.857 78.6831L470.727 79.565L474.682 79.8296H488.526L492.481 79.565L496.436 78.6831L500.134 77.272L503.659 75.3316L506.841 72.8622L509.678 69.9518L512.086 66.6886L513.978 63.0726L515.354 59.192L516.213 55.2232L516.471 51.1663V29.8231L516.213 25.7662L515.354 21.7092L513.978 17.9168L512.086 14.3008L509.678 11.0376L506.841 8.12719L503.659 5.65772L500.134 3.71743L496.436 2.30632L492.481 1.42437L488.526 1.15979H474.682V1.33617ZM9.32249 98.9679C13.7078 98.9679 15.9435 101.702 15.9435 106.288V107.17H11.6441V105.935C11.6441 103.819 10.7843 103.025 9.40847 103.025C7.9467 103.025 7.17282 103.819 7.17282 105.935C7.17282 112.021 15.9435 113.079 15.9435 121.458C15.9435 126.132 13.6218 128.778 9.2365 128.778C4.85119 128.778 2.52955 126.044 2.52955 121.458V119.605H6.82888V121.722C6.82888 123.839 7.68874 124.544 9.15051 124.544C10.6123 124.544 11.4722 123.751 11.4722 121.722C11.4722 115.637 2.70152 114.578 2.70152 106.2C2.78751 101.526 5.02316 98.9679 9.32249 98.9679ZM54.2935 106.464V110.257C54.2935 114.931 52.0578 117.401 47.5865 117.401H45.4369V128.337H40.9655V99.0561H47.5865C52.0578 99.3207 54.2935 101.79 54.2935 106.464ZM45.5228 103.378V113.255H47.6725C49.1343 113.255 49.9081 112.55 49.9081 110.521V106.112C49.9081 103.995 49.1343 103.378 47.6725 103.378H45.5228ZM78.6277 106.288C78.6277 101.614 81.0353 98.9679 85.4206 98.9679C89.8059 98.9679 92.2135 101.702 92.2135 106.288V121.546C92.2135 126.22 89.8059 128.866 85.4206 128.866C81.0353 128.866 78.6277 126.132 78.6277 121.546V106.288ZM83.099 121.81C83.099 123.927 83.9588 124.721 85.4206 124.721C86.8824 124.721 87.7422 123.927 87.7422 121.81V106.023C87.7422 103.907 86.7964 103.113 85.4206 103.113C83.9588 103.113 83.099 103.907 83.099 106.023V121.81ZM126.952 128.513C126.694 127.719 126.522 127.278 126.522 124.897V120.311C126.522 117.577 125.662 116.607 123.599 116.607H122.051V128.513H117.58V99.2325H124.373C129.016 99.2325 131.079 101.437 131.079 106.023V108.317C131.079 111.315 130.134 113.344 128.156 114.314C130.392 115.284 131.165 117.489 131.165 120.576V125.162C131.165 126.573 131.165 127.631 131.681 128.778H126.952V128.513ZM121.965 103.378V112.373H123.771C125.49 112.373 126.436 111.58 126.436 109.287V106.376C126.436 104.26 125.748 103.378 124.115 103.378H121.965ZM155.07 99.3207H168.914V103.466H164.184V128.601H159.713V103.466H154.984V99.3207H155.07ZM250.687 111.492H256.534V115.725H250.687V127.808H246.13V98.5269H257.996V102.76H250.687V111.492ZM280.524 98.5269H284.995V123.574H292.39V127.808H280.524V98.5269ZM314.403 105.494C314.403 100.82 316.811 98.1741 321.196 98.1741C325.581 98.1741 327.989 100.908 327.989 105.494V120.752C327.989 125.426 325.581 128.072 321.196 128.072C316.725 128.072 314.403 125.338 314.403 120.752V105.494ZM318.874 121.017C318.874 123.133 319.734 123.927 321.196 123.927C322.658 123.927 323.517 123.133 323.517 121.017V105.23C323.517 103.113 322.658 102.319 321.196 102.319C319.734 102.319 318.874 103.113 318.874 105.23V121.017ZM350.861 105.494C350.861 100.82 353.269 98.1741 357.654 98.1741C362.039 98.1741 364.447 100.908 364.447 105.494V120.752C364.447 125.426 362.039 128.072 357.654 128.072C353.269 128.072 350.861 125.338 350.861 120.752V105.494ZM355.332 121.017C355.332 123.133 356.192 123.927 357.654 123.927C359.116 123.927 359.976 123.133 359.976 121.017V105.23C359.976 103.113 359.116 102.319 357.654 102.319C356.192 102.319 355.332 103.113 355.332 105.23V121.017ZM397.122 127.808C396.864 127.014 396.692 126.573 396.692 124.192V119.605C396.692 116.871 395.832 115.901 393.768 115.901H392.221V127.808H387.749V98.5269H394.542C399.186 98.5269 401.249 100.732 401.249 105.318V107.611C401.249 110.61 400.303 112.638 398.326 113.608C400.561 114.578 401.335 116.783 401.335 119.87V124.456C401.335 125.867 401.335 126.926 401.851 128.072H397.122V127.808ZM392.221 102.672V111.668H394.026C395.746 111.668 396.692 110.874 396.692 108.581V105.671C396.692 103.554 396.004 102.672 394.37 102.672H392.221ZM424.552 98.5269H429.023V127.808H424.552V98.5269ZM456.539 106.553V127.719H452.497V98.4387H458.172L462.816 115.989V98.4387H466.857V127.719H462.214L456.539 106.553ZM497.038 111.492H503.315V120.752C503.315 125.426 500.994 128.072 496.608 128.072C492.223 128.072 489.901 125.338 489.901 120.752V105.494C489.901 100.82 492.223 98.1741 496.608 98.1741C501.08 98.1741 503.315 100.908 503.315 105.494V108.317H499.016V105.142C499.016 103.025 498.156 102.231 496.694 102.231C495.233 102.231 494.373 103.025 494.373 105.142V120.928C494.373 123.045 495.233 123.751 496.694 123.751C498.156 123.751 499.016 122.957 499.016 120.928V115.46H496.952L497.038 111.492ZM510.28 123.31H514.666V127.808H510.28V123.31ZM221.193 126.837H214.83C214.314 126.308 213.627 125.603 212.853 124.809C210.703 126.485 208.295 127.278 205.802 127.278C203.308 127.278 201.245 126.573 199.611 125.25C197.977 123.927 197.203 121.987 197.203 119.517C197.203 117.665 197.719 116.166 198.751 114.931C199.783 113.696 201.159 112.638 202.878 111.756C201.76 109.551 201.159 107.611 201.159 105.935C201.159 104.083 201.846 102.584 203.308 101.349C204.684 100.114 206.49 99.497 208.639 99.497C210.531 99.497 212.165 100.026 213.541 101.085C214.83 102.143 215.518 103.466 215.518 105.23C215.518 106.2 215.346 107.082 215.002 107.876C214.658 108.669 214.143 109.375 213.455 109.904C212.767 110.521 212.079 110.962 211.477 111.315C210.875 111.668 210.015 112.109 209.069 112.55C209.671 113.344 210.445 114.314 211.305 115.46C211.563 115.813 211.993 116.342 212.509 116.96C213.025 117.577 213.369 118.018 213.455 118.194C214.486 116.519 215.26 114.843 215.862 112.991L219.904 114.843C218.786 117.312 217.582 119.429 216.292 121.281C217.926 123.398 219.56 125.25 221.193 126.837ZM206.576 123.31C207.866 123.31 209.069 122.869 210.359 121.987C209.069 120.487 208.123 119.341 207.436 118.547C206.49 117.401 205.63 116.254 204.77 115.019C203.222 116.078 202.534 117.489 202.534 119.165C202.534 120.399 202.964 121.458 203.738 122.251C204.512 122.957 205.458 123.31 206.576 123.31ZM206.06 106.288C206.06 107.258 206.404 108.405 207.178 109.904C208.467 109.287 209.413 108.669 210.101 108.052C210.789 107.435 211.133 106.641 211.133 105.759C211.133 105.053 210.875 104.524 210.445 104.083C210.015 103.642 209.413 103.466 208.811 103.466C208.037 103.466 207.35 103.73 206.834 104.26C206.318 104.789 206.06 105.494 206.06 106.288Z" fill="url(#paint0_linear_664_1335)"/>
<defs>
<linearGradient id="paint0_linear_664_1335" x1="258.426" y1="0.983398" x2="258.426" y2="128.866" gradientUnits="userSpaceOnUse">
<stop stop-color="#37B5C7"/>
<stop offset="1" stop-color="#1B5861"/>
</linearGradient>
</defs>
</svg>
