<svg width="124" height="31" viewBox="0 0 124 31" fill="none" xmlns="http://www.w3.org/2000/svg">
<path d="M0.847051 2.13793L0.413196 4.2331L0.123959 6.34965L0 8.48758V10.6255L0.144619 12.7634L0.433856 14.88L0.867711 16.9752L1.42552 19.0276L1.98334 16.9752L2.39653 14.88L2.68577 12.7634L2.83039 10.6255V8.48758L2.68577 6.37103L2.39653 4.25448L1.98334 2.15931L1.40487 0.0855159L0.847051 2.13793ZM4.52449 2.13793L4.09064 4.2331L3.8014 6.34965L3.65678 8.46621V10.6041L3.8014 12.7421L4.09064 14.8586L4.52449 16.9538L5.08231 19.0062L5.64012 16.9538L6.05332 14.8586L6.34255 12.7421L6.48717 10.6041V8.48758L6.34255 6.37103L6.05332 4.25448L5.64012 2.15931L5.08231 0.0855159L4.52449 2.13793ZM8.16061 2.13793L7.74742 4.2331L7.45818 6.34965L7.31356 8.46621V10.6041L7.45818 12.7421L7.74742 14.8586L8.16061 16.9538L8.71843 19.0062L9.27624 16.9538L9.7101 14.8586L9.99933 12.7421L10.144 10.6041V8.48758L9.99933 6.37103L9.7101 4.25448L9.27624 2.15931L8.73909 0.0855159L8.16061 2.13793ZM11.8381 2.13793L11.4249 4.2331L11.1356 6.34965L10.991 8.46621V10.6041L11.1356 12.7421L11.4249 14.8586L11.8381 16.9538L12.3959 19.0062L12.9537 16.9538L13.3875 14.8586L13.6768 12.7421L13.8214 10.6041V8.48758L13.6768 6.37103L13.3875 4.25448L12.9537 2.15931L12.3959 0.0855159L11.8381 2.13793ZM15.5155 2.13793L15.0816 4.2331L14.7924 6.34965L14.6478 8.46621V10.6041L14.7924 12.7421L15.0816 14.8586L15.5155 16.9538L16.0733 19.0062L16.6311 16.9538L17.065 14.8586L17.3542 12.7421L17.4988 10.6041V8.48758L17.3542 6.37103L17.065 4.25448L16.6311 2.13793L16.0733 0.0855159L15.5155 2.13793ZM35.4935 0.0855159L33.2003 10.4545L30.907 0.0855159H20.9077V19.0917H26.4652V5.75103L30.1426 19.0917H36.2579L39.9354 5.75103V19.0917H45.4928V0.0855159H35.4935ZM55.9054 15.2862L55.4922 15.1152L55.141 14.8372L54.8724 14.4738L54.7071 14.0462L54.6451 13.5972V5.53724L54.7071 5.08827L54.8724 4.68207L55.141 4.31862L55.4922 4.04069L55.9054 3.86966L56.3392 3.80551L56.7731 3.86966L57.1863 4.04069L57.5375 4.31862L57.8061 4.68207L57.9713 5.08827L58.0333 5.53724V13.6186L57.9713 14.0676L57.8061 14.4952L57.5375 14.8586L57.1863 15.1365L56.7731 15.3076L56.3392 15.3717L55.9054 15.2862ZM54.6658 0.0855159L53.7154 0.149655L52.7857 0.363448L51.8767 0.705515L51.0297 1.17586L50.2653 1.77448L49.5835 2.48L49.005 3.27103L48.5505 4.14758L48.2199 5.06689L48.0133 6.05034L47.9514 7.03379V12.1648L48.0133 13.1483L48.2199 14.1103L48.5505 15.051L49.005 15.9276L49.5835 16.7186L50.2653 17.4241L51.0297 18.0228L51.8767 18.4931L52.7857 18.8352L53.7154 19.049L54.6658 19.1131H57.992L58.9424 19.049L59.8927 18.8352L60.7811 18.4931L61.6281 18.0228L62.3925 17.4241L63.0743 16.7186L63.6528 15.9276L64.1073 15.051L64.4379 14.1103L64.6445 13.1483L64.7064 12.1648V6.99103L64.6445 6.00759L64.4379 5.02414L64.1073 4.10482L63.6528 3.22828L63.0743 2.43724L62.3925 1.73173L61.6281 1.1331L60.7811 0.662757L59.8927 0.32069L58.9424 0.106897L58.0127 0.042758H54.6658V0.0855159ZM80.5525 0.0855159V13.4048L76.8751 0.0855159H67.1856V19.0917H72.7431V5.75103L76.4412 19.0917H86.1306V0.0855159H80.5525ZM94.7664 3.80551H96.4192L96.8531 3.86966L97.2663 4.04069L97.6175 4.31862L97.886 4.68207L98.0513 5.08827L98.1133 5.53724V13.6186L98.0513 14.0676L97.886 14.4952L97.6175 14.8586L97.2663 15.1365L96.8531 15.3076L96.4192 15.3717H94.7664V3.80551ZM88.6511 0.0855159V19.0917H98.1133L99.0637 19.0276L99.9933 18.8138L100.882 18.4717L101.729 18.0014L102.493 17.4028L103.175 16.6972L103.753 15.9062L104.208 15.0297L104.539 14.089L104.745 13.1269L104.807 12.1434V6.94828L104.745 5.96483L104.539 4.98138L104.208 4.06207L103.753 3.18552L103.175 2.39448L102.493 1.68896L101.729 1.09034L100.882 0.619999L99.9933 0.277928L99.0637 0.0641353L98.0927 0H88.6511V0.0855159ZM115.178 15.2862L114.765 15.1152L114.414 14.8372L114.145 14.4738L113.98 14.0462L113.918 13.5972V5.53724L113.98 5.08827L114.145 4.68207L114.414 4.31862L114.765 4.04069L115.178 3.86966L115.612 3.80551L116.046 3.86966L116.459 4.04069L116.81 4.31862L117.079 4.68207L117.244 5.08827L117.306 5.53724V13.5972L117.244 14.0462L117.079 14.4738L116.81 14.8372L116.459 15.1152L116.046 15.2862L115.612 15.3503L115.178 15.2862ZM113.959 0.0855159L113.009 0.149655L112.079 0.363448L111.17 0.705515L110.323 1.17586L109.559 1.77448L108.877 2.48L108.299 3.27103L107.844 4.14758L107.513 5.06689L107.307 6.05034L107.245 7.03379V12.1648L107.307 13.1483L107.513 14.1103L107.844 15.051L108.299 15.9276L108.877 16.7186L109.559 17.4241L110.323 18.0228L111.17 18.4931L112.079 18.8352L113.009 19.049L113.959 19.1131H117.286L118.236 19.049L119.186 18.8352L120.075 18.4931L120.922 18.0228L121.686 17.4241L122.368 16.7186L122.946 15.9276L123.401 15.051L123.731 14.1103L123.938 13.1483L124 12.1648V6.99103L123.938 6.00759L123.731 5.02414L123.401 4.10482L122.946 3.22828L122.368 2.43724L121.686 1.73173L120.922 1.1331L120.075 0.662757L119.186 0.32069L118.236 0.106897L117.286 0.042758H113.959V0.0855159ZM2.14862 23.7524C3.20227 23.7524 3.73942 24.4152 3.73942 25.5269V25.7407H2.70643V25.4414C2.70643 24.9283 2.49983 24.7359 2.16928 24.7359C1.81806 24.7359 1.63212 24.9283 1.63212 25.4414C1.63212 26.9166 3.73942 27.1731 3.73942 29.2041C3.73942 30.3372 3.18161 30.9786 2.12796 30.9786C1.07431 30.9786 0.516495 30.3159 0.516495 29.2041V28.7552H1.54948V29.2683C1.54948 29.7814 1.75608 29.9524 2.1073 29.9524C2.45851 29.9524 2.66511 29.76 2.66511 29.2683C2.66511 27.7931 0.557814 27.5365 0.557814 25.5055C0.578474 24.3724 1.11563 23.7524 2.14862 23.7524ZM12.9537 25.5697V26.489C12.9537 27.6221 12.4165 28.2207 11.3422 28.2207H10.8257V30.8717H9.75142V23.7738H11.3422C12.4165 23.8379 12.9537 24.4366 12.9537 25.5697ZM10.8464 24.8214V27.2159H11.3629C11.7141 27.2159 11.9 27.0448 11.9 26.5531V25.4841C11.9 24.971 11.7141 24.8214 11.3629 24.8214H10.8464ZM18.8004 25.5269C18.8004 24.3938 19.3789 23.7524 20.4325 23.7524C21.4862 23.7524 22.0646 24.4152 22.0646 25.5269V29.2255C22.0646 30.3586 21.4862 31 20.4325 31C19.3789 31 18.8004 30.3372 18.8004 29.2255V25.5269ZM19.8747 29.2897C19.8747 29.8028 20.0813 29.9952 20.4325 29.9952C20.7837 29.9952 20.9903 29.8028 20.9903 29.2897V25.4628C20.9903 24.9497 20.7631 24.7572 20.4325 24.7572C20.0813 24.7572 19.8747 24.9497 19.8747 25.4628V29.2897ZM30.4112 30.9145C30.3492 30.7221 30.3079 30.6152 30.3079 30.0379V28.9262C30.3079 28.2634 30.1013 28.0283 29.6055 28.0283H29.2336V30.9145H28.1593V23.8165H29.7914C30.907 23.8165 31.4029 24.351 31.4029 25.4628V26.0186C31.4029 26.7455 31.1756 27.2372 30.7004 27.4724C31.2376 27.7076 31.4235 28.2421 31.4235 28.9903V30.1021C31.4235 30.4441 31.4235 30.7007 31.5475 30.9786H30.4112V30.9145ZM29.2129 24.8214V27.0021H29.6468C30.06 27.0021 30.2872 26.8097 30.2872 26.2538V25.5483C30.2872 25.0352 30.122 24.8214 29.7294 24.8214H29.2129ZM37.167 23.8379H40.4932V24.8428H39.3569V30.9359H38.2826V24.8428H37.1463V23.8379H37.167ZM60.1406 26.7883H61.5455V27.8145H60.1406V30.7434H59.0457V23.6455H61.8967V24.6717H60.1406V26.7883ZM67.3096 23.6455H68.3839V29.7172H70.1606V30.7434H67.3096V23.6455ZM75.4495 25.3345C75.4495 24.2014 76.028 23.56 77.0816 23.56C78.1353 23.56 78.7138 24.2228 78.7138 25.3345V29.0331C78.7138 30.1662 78.1353 30.8076 77.0816 30.8076C76.0073 30.8076 75.4495 30.1448 75.4495 29.0331V25.3345ZM76.5238 29.0972C76.5238 29.6103 76.7304 29.8028 77.0816 29.8028C77.4329 29.8028 77.6395 29.6103 77.6395 29.0972V25.2703C77.6395 24.7572 77.4329 24.5648 77.0816 24.5648C76.7304 24.5648 76.5238 24.7572 76.5238 25.2703V29.0972ZM84.2093 25.3345C84.2093 24.2014 84.7877 23.56 85.8414 23.56C86.895 23.56 87.4735 24.2228 87.4735 25.3345V29.0331C87.4735 30.1662 86.895 30.8076 85.8414 30.8076C84.7877 30.8076 84.2093 30.1448 84.2093 29.0331V25.3345ZM85.2836 29.0972C85.2836 29.6103 85.4902 29.8028 85.8414 29.8028C86.1926 29.8028 86.3992 29.6103 86.3992 29.0972V25.2703C86.3992 24.7572 86.1926 24.5648 85.8414 24.5648C85.4902 24.5648 85.2836 24.7572 85.2836 25.2703V29.0972ZM95.3242 30.7434C95.2623 30.551 95.2209 30.4441 95.2209 29.8669V28.7552C95.2209 28.0924 95.0143 27.8572 94.5185 27.8572H94.1466V30.7434H93.0723V23.6455H94.7044C95.8201 23.6455 96.3159 24.18 96.3159 25.2917V25.8476C96.3159 26.5745 96.0887 27.0662 95.6135 27.3014C96.1506 27.5365 96.3366 28.071 96.3366 28.8193V29.931C96.3366 30.2731 96.3366 30.5297 96.4605 30.8076H95.3242V30.7434ZM94.1466 24.6503V26.831H94.5805C94.9937 26.831 95.2209 26.6386 95.2209 26.0828V25.3772C95.2209 24.8641 95.0557 24.6503 94.6631 24.6503H94.1466ZM101.915 23.6455H102.989V30.7434H101.915V23.6455ZM109.6 25.591V30.7221H108.629V23.6241H109.993L111.108 27.8786V23.6241H112.079V30.7221H110.964L109.6 25.591ZM119.331 26.7883H120.839V29.0331C120.839 30.1662 120.281 30.8076 119.228 30.8076C118.174 30.8076 117.616 30.1448 117.616 29.0331V25.3345C117.616 24.2014 118.174 23.56 119.228 23.56C120.302 23.56 120.839 24.2228 120.839 25.3345V26.0186H119.806V25.249C119.806 24.7359 119.599 24.5434 119.248 24.5434C118.897 24.5434 118.69 24.7359 118.69 25.249V29.0759C118.69 29.589 118.897 29.76 119.248 29.76C119.599 29.76 119.806 29.5676 119.806 29.0759V27.7503H119.31L119.331 26.7883ZM122.513 29.6531H123.566V30.7434H122.513V29.6531ZM53.0543 30.5083H51.5255C51.4015 30.38 51.2363 30.209 51.0503 30.0166C50.5338 30.4228 49.9554 30.6152 49.3562 30.6152C48.7571 30.6152 48.2613 30.4441 47.8687 30.1234C47.4762 29.8028 47.2902 29.3324 47.2902 28.7338C47.2902 28.2848 47.4142 27.9214 47.6621 27.6221C47.91 27.3228 48.2406 27.0662 48.6538 26.8524C48.3852 26.3179 48.2406 25.8476 48.2406 25.4414C48.2406 24.9924 48.4059 24.629 48.7571 24.3297C49.0876 24.0303 49.5215 23.8807 50.038 23.8807C50.4925 23.8807 50.885 24.009 51.2156 24.2655C51.5255 24.5221 51.6908 24.8428 51.6908 25.2703C51.6908 25.5055 51.6495 25.7193 51.5668 25.9117C51.4842 26.1041 51.3602 26.2752 51.1949 26.4034C51.0297 26.5531 50.8644 26.66 50.7198 26.7455C50.5751 26.831 50.3685 26.9379 50.1413 27.0448C50.2859 27.2372 50.4719 27.4724 50.6784 27.7503C50.7404 27.8359 50.8437 27.9641 50.9677 28.1138C51.0916 28.2634 51.1743 28.3703 51.1949 28.4131C51.4429 28.0069 51.6288 27.6007 51.7734 27.1517L52.7444 27.6007C52.4758 28.1993 52.1866 28.7124 51.8767 29.1614C52.2692 29.6745 52.6618 30.1234 53.0543 30.5083ZM49.5422 29.6531C49.8521 29.6531 50.1413 29.5462 50.4512 29.3324C50.1413 28.969 49.914 28.691 49.7488 28.4986C49.5215 28.2207 49.3149 27.9428 49.1083 27.6434C48.7364 27.9 48.5711 28.2421 48.5711 28.6483C48.5711 28.9476 48.6744 29.2041 48.8604 29.3966C49.0463 29.5676 49.2736 29.6531 49.5422 29.6531ZM49.4182 25.5269C49.4182 25.7621 49.5008 26.04 49.6868 26.4034C49.9967 26.2538 50.2239 26.1041 50.3892 25.9545C50.5545 25.8048 50.6371 25.6124 50.6371 25.3986C50.6371 25.2276 50.5751 25.0993 50.4719 24.9924C50.3686 24.8855 50.2239 24.8428 50.0793 24.8428C49.8934 24.8428 49.7281 24.9069 49.6041 25.0352C49.4802 25.1634 49.4182 25.3345 49.4182 25.5269Z" fill="url(#paint0_linear_587_1223)"/>
<defs>
<linearGradient id="paint0_linear_587_1223" x1="0" y1="15.5" x2="124" y2="15.5" gradientUnits="userSpaceOnUse">
<stop stop-color="white"/>
<stop offset="1" stop-color="#999999"/>
</linearGradient>
</defs>
</svg>
