<svg width="92" height="31" viewBox="0 0 92 31" fill="none" xmlns="http://www.w3.org/2000/svg">
<path d="M48.9706 20.9761V21.8888C48.9706 22.4395 48.6487 22.6284 48.2502 22.6284H47.5758C47.1773 22.6284 46.8554 22.4553 46.8554 21.8888V21.0233C46.8554 21.0233 47.3919 10.307 41.3683 5.58624C32.3252 -1.51072 23.1442 4.31162 22.8683 4.50045C22.9909 4.5634 23.1288 4.64207 23.2515 4.70502C23.466 4.81517 23.65 4.94106 23.8645 5.06694C24.6616 5.5705 25.4126 6.18421 26.041 6.90806L26.2709 7.17558L26.4855 7.45882C26.6235 7.66339 26.7614 7.86796 26.884 8.07253C27.1293 8.48167 27.3438 8.93801 27.4971 9.39435C27.819 10.3228 27.9263 11.3142 27.8343 12.2898C27.7883 12.7776 27.6964 13.2497 27.5584 13.7375L27.4511 14.0837L27.3285 14.4299L27.2059 14.7603L27.0526 15.1065C26.6541 15.972 26.1023 16.7903 25.4892 17.4984C25.336 17.6715 25.1827 17.8603 25.0141 18.0334L24.5236 18.537L24.0025 19.0248L23.4814 19.4812C22.7457 20.0791 21.9793 20.6142 21.167 21.102L20.5539 21.4482L19.9408 21.7629C19.5116 21.9832 19.0978 22.172 18.6686 22.3609C17.8103 22.7385 16.9366 23.0532 16.0323 23.3365C15.8177 23.3994 15.5878 23.4624 15.3579 23.5411C15.1433 23.604 14.9134 23.6669 14.6835 23.7142C14.2237 23.8243 13.7792 23.9187 13.3194 24.0131C12.4151 24.1862 11.4801 24.3121 10.5452 24.3751L9.8401 24.4223C9.71749 24.438 9.59487 24.4223 9.48758 24.438H9.13505H8.79785L8.44532 24.4223L8.10812 24.4065L7.7556 24.3751L7.40307 24.3436L7.06587 24.3121C6.83596 24.2807 6.60605 24.2492 6.37614 24.2177C6.13091 24.1862 5.901 24.139 5.67109 24.0918C5.44118 24.0446 5.21127 23.9817 4.98136 23.9345L4.30696 23.7614C4.07705 23.6984 3.84714 23.6355 3.61723 23.5568C3.17274 23.3994 2.72825 23.2106 2.29909 22.9746C1.44076 22.5182 0.6744 21.873 0.0766363 21.0705C0.0459818 21.0233 0.0153273 20.9603 0 20.8974C0.137945 21.0076 0.275891 21.1177 0.429164 21.2279C0.551782 21.3065 0.689727 21.401 0.827672 21.4954C0.965618 21.5741 1.11889 21.6685 1.25684 21.7471C1.33347 21.7786 1.41011 21.8258 1.47142 21.873C1.54805 21.9045 1.62469 21.9517 1.71665 21.9832C1.86993 22.0619 2.03853 22.1406 2.20713 22.2035C2.54433 22.3294 2.88153 22.4553 3.23405 22.5654C3.40265 22.6126 3.58658 22.6598 3.75518 22.707C3.92378 22.7543 4.10771 22.8015 4.27631 22.8329C4.44491 22.8644 4.62883 22.8959 4.79743 22.9116C5.5638 23.0375 6.89727 23.1004 7.29578 23.1162C7.587 23.1319 7.9242 23.1477 8.23074 23.1477H8.69056C8.84383 23.1477 9.01243 23.1319 9.1657 23.1319L9.64085 23.1004L9.76347 23.0847L9.87076 23.069L10.1007 23.0532C10.4072 23.0218 10.7291 22.9903 11.0356 22.9588C11.6487 22.8801 12.2618 22.7857 12.8749 22.6598C13.488 22.534 14.1011 22.3923 14.6988 22.2035L15.1433 22.0776L15.5878 21.9202C15.8944 21.8101 16.1703 21.7157 16.4768 21.6055C17.0592 21.3852 17.6417 21.1334 18.1935 20.8659C18.7606 20.5984 19.3124 20.2994 19.8488 19.9847C20.4159 19.6543 20.9064 19.3238 21.4275 18.9619C21.918 18.5999 22.4085 18.1908 22.8683 17.7659C23.3128 17.3253 23.7573 16.9004 24.1404 16.4126C24.5236 15.9248 24.8915 15.4213 25.1827 14.8862C25.244 14.7603 25.336 14.5873 25.3973 14.4771C25.4586 14.3512 25.5199 14.1938 25.5965 14.0522C25.6272 13.9735 25.6578 13.9106 25.6732 13.8477L25.7038 13.769L25.7345 13.6588C25.7958 13.5015 25.8264 13.3598 25.8724 13.2182L25.9797 12.7933L26.0104 12.636L26.0257 12.4944L26.041 12.337L26.0563 12.1954C26.0717 12.101 26.0717 12.0065 26.0717 11.9121C26.087 11.8177 26.0717 11.7076 26.0717 11.6131C26.0717 11.4243 26.0564 11.2197 26.0257 11.0309C25.995 10.8421 25.9644 10.6532 25.9031 10.4644L25.8877 10.4015L25.8724 10.3385L25.8264 10.1812C25.7958 10.071 25.7651 10.0081 25.7192 9.91365C25.6425 9.74055 25.5659 9.56745 25.4739 9.39435C25.3819 9.22126 25.2747 9.04817 25.1674 8.89081L24.9988 8.65476L24.8302 8.43446L24.6309 8.19842L24.4317 7.99385C24.2937 7.85222 24.1404 7.72634 24.0025 7.58471C23.8492 7.45882 23.696 7.33294 23.5274 7.22278L23.2821 7.04969L23.0369 6.89233L22.5004 6.57761L21.9793 6.3101L21.4275 6.05832L20.9524 5.86948C20.937 5.86948 20.937 5.86948 20.937 5.86948C20.8604 5.83801 20.7684 5.80654 20.6918 5.7908C20.6765 5.77507 20.6612 5.77507 20.6305 5.75933C20.5998 5.7436 20.5539 5.72786 20.5232 5.69639C20.3393 5.5705 20.186 5.3974 20.094 5.19284C20.0327 5.06695 20.0174 4.94106 20.0021 4.79943C20.0174 4.70502 20.0634 4.59487 20.1094 4.48471C20.1247 4.45324 20.14 4.42177 20.14 4.40603C20.4772 3.80806 21.3202 3.09994 22.4085 2.48624C26.6081 0.0943572 34.2564 -1.69955 41.4603 2.97405C49.8749 8.45019 48.9706 20.9761 48.9706 20.9761Z" fill="url(#paint0_linear_587_1224)"/>
<path d="M50.5493 0.676648C50.5493 0.157358 50.8405 0 51.2084 0H52.6032C53.0017 0 53.3082 0.141623 53.4462 0.645176L55.4694 7.80508H55.5L57.5999 0.645176C57.7531 0.141623 58.075 0 58.4582 0H59.8223C60.1902 0 60.4814 0.157358 60.4814 0.676648V9.75634C60.4814 10.2756 60.1902 10.433 59.8223 10.433H59.3318C58.964 10.433 58.6728 10.2756 58.6728 9.75634V2.51777H58.6421L56.5116 9.78781C56.4043 10.1655 56.2051 10.433 55.8066 10.433H55.2241C54.8256 10.433 54.6264 10.1655 54.5191 9.78781L52.3733 2.51777H52.3579V9.75634C52.3579 10.2756 52.0667 10.433 51.6989 10.433H51.2237C50.8559 10.433 50.5646 10.2756 50.5646 9.75634L50.5493 0.676648Z" fill="url(#paint1_linear_587_1224)"/>
<path d="M62.2594 11.739C63.1177 11.739 63.4243 11.4086 63.7002 10.5588L63.8075 10.2284L61.4011 3.5091C61.1865 2.92686 61.5084 2.86392 61.8456 2.86392H62.5506C62.9491 2.86392 63.1177 2.98981 63.271 3.5091L64.6198 7.91519H64.6505L65.9533 3.5091C66.1066 2.98981 66.2752 2.86392 66.6737 2.86392H67.3021C67.624 2.86392 67.9305 2.92686 67.7466 3.5091L65.5854 10.134C64.8344 12.4 64.2826 13.1238 62.5966 13.1238C62.382 13.1238 62.1828 13.1081 61.9989 13.0923C61.7076 13.0609 61.4317 13.0137 61.4317 12.6832V12.1167C61.4317 11.8492 61.6003 11.739 61.7996 11.739C61.9069 11.739 62.0142 11.739 62.2594 11.739Z" fill="url(#paint2_linear_587_1224)"/>
<path d="M68.6661 3.5563C68.6661 3.03702 68.9574 2.87965 69.3252 2.87965H69.5858C69.9536 2.87965 70.2448 3.03702 70.2448 3.5563V4.24869C70.766 3.22585 71.4097 2.7695 72.1914 2.69082C72.4826 2.65935 72.6052 2.7695 72.6052 3.02128V3.88676C72.6052 4.23295 72.36 4.2959 72.1301 4.34311C71.3331 4.469 70.8426 4.92534 70.3675 5.8223V9.72483C70.3675 10.2441 70.0762 10.4015 69.7084 10.4015H69.3252C68.9574 10.4015 68.6661 10.2441 68.6661 9.72483V3.5563Z" fill="url(#paint3_linear_587_1224)"/>
<path d="M74.5212 4.23292H74.092C73.7395 4.23292 73.4329 4.07556 73.4329 3.71363V3.39891C73.4329 3.03698 73.7241 2.87962 74.092 2.87962H74.5212V1.05424C74.5212 0.534955 74.8124 0.377594 75.1802 0.377594H75.5787C75.9466 0.377594 76.2378 0.534955 76.2378 1.05424V2.87962H77.0961C77.4487 2.87962 77.7552 3.03698 77.7552 3.39891V3.71363C77.7552 4.07556 77.464 4.23292 77.0961 4.23292H76.2378V8.21414C76.2378 8.82785 76.4524 9.07962 76.9582 9.07962C77.0961 9.07962 77.2494 9.06389 77.4333 9.06389C77.6326 9.06389 77.7552 9.12683 77.7552 9.45729V10.0081C77.7552 10.37 77.51 10.4644 77.1575 10.4959C76.9275 10.5273 76.6823 10.5431 76.4524 10.5431C75.0423 10.5431 74.5058 10.0238 74.5058 8.34003L74.5212 4.23292Z" fill="url(#paint4_linear_587_1224)"/>
<path d="M78.8588 0.676648C78.8588 0.157358 79.15 0 79.5178 0H79.901C80.2689 0 80.5601 0.157358 80.5601 0.676648V3.6665C81.3724 2.97411 82.0468 2.69086 82.8439 2.69086C83.7328 2.69086 84.3153 3.00558 84.6525 3.61929C84.913 4.02843 84.959 4.54772 84.959 5.58629V9.75634C84.959 10.2756 84.6678 10.433 84.2999 10.433H83.9014C83.5336 10.433 83.2424 10.2756 83.2424 9.75634V5.58629C83.2424 4.72081 83.0278 4.18579 82.2154 4.18579C81.6943 4.18579 81.1425 4.4533 80.5907 5.0198V9.75634C80.5907 10.2756 80.2995 10.433 79.9317 10.433H79.5485C79.1806 10.433 78.8894 10.2756 78.8894 9.75634L78.8588 0.676648Z" fill="url(#paint5_linear_587_1224)"/>
<path d="M87.0282 6.43596C87.7639 6.01109 88.8981 5.74357 90.2316 5.47606C90.3083 4.45322 89.971 4.02835 89.0208 4.02835C88.515 4.02835 88.1165 4.16997 87.7639 4.48469C87.4727 4.75221 87.3348 5.00398 86.9056 4.72073L86.645 4.54764C86.1546 4.23292 86.2925 3.93393 86.5377 3.68215C87.1662 2.9583 88.0705 2.67505 89.1434 2.67505C91.044 2.67505 91.9176 3.54053 91.9176 5.3187V9.03241L91.9943 9.772C92.0249 10.1339 91.9483 10.4014 91.3812 10.4014H90.86C90.3542 10.4014 90.3236 10.1025 90.2623 9.72479L90.2316 9.5517C89.5266 10.1654 88.7142 10.5431 87.8099 10.5431C86.5837 10.5431 85.8174 9.75627 85.8174 8.49738C85.802 7.55322 86.2159 6.89231 87.0282 6.43596ZM88.4843 9.23697C89.0974 9.23697 89.7411 8.93799 90.1703 8.4187V6.59332C89.1434 6.81363 88.5763 6.95525 88.1165 7.22276C87.7486 7.44307 87.5647 7.82073 87.5647 8.27708C87.5647 8.87505 87.9172 9.23697 88.4843 9.23697Z" fill="url(#paint6_linear_587_1224)"/>
<path d="M50.5493 12.8878C50.5493 12.3685 50.8405 12.2112 51.2084 12.2112H54.0439C56.6802 12.2112 57.9677 13.2655 57.9677 15.4056C57.9677 17.6401 56.527 18.663 54.0133 18.663H52.4959V21.9675C52.4959 22.4868 52.2047 22.6442 51.8368 22.6442H51.2084C50.8405 22.6442 50.5493 22.4868 50.5493 21.9675V12.8878ZM54.1052 17.0264C55.0095 17.0264 56.0211 16.7746 56.0211 15.4056C56.0211 14.3828 55.3621 13.8949 54.1819 13.8949H52.5112V17.0264H54.1052Z" fill="url(#paint7_linear_587_1224)"/>
<path d="M61.5697 14.9178C63.6082 14.9178 64.8497 16.397 64.8497 18.899C64.8497 21.3381 63.5929 22.833 61.5697 22.833C59.5158 22.833 58.2743 21.3539 58.2743 18.899C58.2896 16.397 59.5311 14.9178 61.5697 14.9178ZM63.1177 18.899C63.1177 17.4198 62.6732 16.3183 61.585 16.3183C60.4814 16.3183 60.0369 17.4356 60.0369 18.899C60.0369 20.4097 60.5121 21.4325 61.585 21.4325C62.6426 21.4325 63.1177 20.4097 63.1177 18.899Z" fill="url(#paint8_linear_587_1224)"/>
<path d="M69.0646 14.9178C71.1032 14.9178 72.3447 16.397 72.3447 18.899C72.3447 21.3381 71.0878 22.833 69.0646 22.833C67.0108 22.833 65.7693 21.3539 65.7693 18.899C65.7693 16.397 67.0108 14.9178 69.0646 14.9178ZM70.5974 18.899C70.5974 17.4198 70.1529 16.3183 69.0646 16.3183C67.9611 16.3183 67.5166 17.4356 67.5166 18.899C67.5166 20.4097 67.9917 21.4325 69.0646 21.4325C70.1222 21.4325 70.5974 20.4097 70.5974 18.899Z" fill="url(#paint9_linear_587_1224)"/>
<path d="M73.249 12.8878C73.249 12.3685 73.5402 12.2112 73.9081 12.2112H74.2913C74.6591 12.2112 74.9503 12.3685 74.9503 12.8878V21.9675C74.9503 22.4868 74.6591 22.6442 74.2913 22.6442H73.9081C73.5402 22.6442 73.249 22.4868 73.249 21.9675V12.8878Z" fill="url(#paint10_linear_587_1224)"/>
<path d="M76.1458 20.9446L76.4064 20.7715C76.8356 20.4726 77.0195 20.6929 77.2954 20.9604C77.6479 21.338 78.0311 21.5111 78.6289 21.5111C79.3952 21.5111 79.8091 21.1649 79.8091 20.6142C79.8091 18.9934 75.9159 20.0792 75.9159 17.168C75.9159 15.8304 77.0042 14.9335 78.5522 14.9335C79.5485 14.9335 80.2842 15.1852 80.8513 15.799C81.0966 16.0665 81.2345 16.3812 80.8207 16.633L80.4835 16.8375C80.1003 17.0736 80.0543 16.9634 79.6251 16.6015C79.3186 16.334 78.9661 16.2553 78.5522 16.2553C77.9238 16.2553 77.556 16.5543 77.556 17.0736C77.556 18.5213 81.4797 17.5614 81.4797 20.4883C81.4797 21.999 80.3149 22.8487 78.5982 22.8487C77.4487 22.8487 76.6976 22.5497 76.0539 21.8416C75.824 21.5583 75.7627 21.1964 76.1458 20.9446Z" fill="url(#paint11_linear_587_1224)"/>
<path d="M11.9706 27.9315C11.9706 27.9157 11.9706 27.9157 11.9706 27.9C11.9706 27.8371 12.0319 27.7741 12.0932 27.7741H12.2465C12.3384 27.7741 12.3844 27.8371 12.3997 27.9315L12.9362 30.2447H12.9515L13.4727 27.9315C13.488 27.8371 13.5493 27.7741 13.6413 27.7741H13.7639C13.8558 27.7741 13.9171 27.8371 13.9325 27.9315L14.4229 30.2289H14.4383L15.0054 27.9315C15.0207 27.8371 15.0667 27.7741 15.1587 27.7741H15.2813C15.3426 27.7741 15.4039 27.8371 15.4039 27.9C15.4039 27.9157 15.4039 27.9157 15.4039 27.9315L14.6682 30.7797C14.6375 30.8741 14.5762 30.9371 14.4843 30.9371H14.3616C14.2697 30.9371 14.2084 30.8741 14.193 30.7797L13.6872 28.5294H13.6719L13.1508 30.7797C13.1355 30.8741 13.0741 30.9371 12.9669 30.9371H12.8442C12.7523 30.9371 12.691 30.8741 12.6603 30.7797L11.9706 27.9315Z" fill="url(#paint12_linear_587_1224)"/>
<path d="M16.3848 30.7797L17.2432 27.9315C17.2738 27.8371 17.3658 27.7741 17.4577 27.7741H17.7183C17.8103 27.7741 17.9022 27.8371 17.9329 27.9315L18.7912 30.7797C18.7912 30.7954 18.7912 30.7954 18.7912 30.8112C18.7912 30.8741 18.7299 30.9371 18.6686 30.9371H18.5153C18.4234 30.9371 18.3774 30.8741 18.3467 30.7797L18.1168 29.9929H17.0133L16.7833 30.7797C16.7527 30.8741 16.7067 30.9371 16.6147 30.9371H16.4921C16.4308 30.9371 16.3695 30.8741 16.3695 30.8112C16.3848 30.8112 16.3848 30.7954 16.3848 30.7797ZM18.0095 29.631L17.565 28.136H17.5497L17.1052 29.631H18.0095Z" fill="url(#paint13_linear_587_1224)"/>
<path d="M20.5385 28.136H19.8181C19.7262 28.136 19.6495 28.0731 19.6495 27.9944V27.9157C19.6495 27.8213 19.7262 27.7741 19.8181 27.7741H21.6727C21.7647 27.7741 21.8413 27.8371 21.8413 27.9157V27.9944C21.8413 28.0888 21.7647 28.136 21.6727 28.136H20.9524V30.764C20.9524 30.8584 20.8757 30.9371 20.7838 30.9371H20.7071C20.6152 30.9371 20.5385 30.8584 20.5385 30.764V28.136Z" fill="url(#paint14_linear_587_1224)"/>
<path d="M23.1902 27.9472C23.1902 27.8528 23.2668 27.7741 23.3588 27.7741H24.8915C24.9835 27.7741 25.0601 27.8371 25.0601 27.9157V27.9944C25.0601 28.0888 24.9835 28.136 24.8915 28.136H23.604V29.1117H24.4777C24.5696 29.1117 24.6463 29.1746 24.6463 29.2533V29.3162C24.6463 29.4107 24.5696 29.4579 24.4777 29.4579H23.604V30.5437H24.9528C25.0448 30.5437 25.1214 30.6066 25.1214 30.6853V30.764C25.1214 30.8584 25.0448 30.9056 24.9528 30.9056H23.3588C23.2668 30.9056 23.1902 30.8269 23.1902 30.7325V27.9472Z" fill="url(#paint15_linear_587_1224)"/>
<path d="M26.5008 27.9472C26.5008 27.8528 26.5774 27.7741 26.6694 27.7741H27.4664C28.2634 27.7741 28.616 28.0731 28.616 28.6553C28.616 29.0959 28.3861 29.3477 28.0182 29.4736L28.6773 30.7954C28.6926 30.8112 28.6926 30.8269 28.6926 30.8426C28.6926 30.9056 28.6466 30.9528 28.5853 30.9528H28.3861C28.2788 30.9528 28.2328 30.8898 28.1868 30.7954L27.6044 29.5838H26.8993V30.7797C26.8993 30.8741 26.8227 30.9528 26.7307 30.9528H26.6541C26.5621 30.9528 26.4855 30.8741 26.4855 30.7797L26.5008 27.9472ZM27.4664 29.2061C27.727 29.2061 28.1868 29.1589 28.1868 28.6711C28.1868 28.199 27.8036 28.136 27.4817 28.136H26.8993V29.2061H27.4664Z" fill="url(#paint16_linear_587_1224)"/>
<path d="M30.0568 30.5909C30.0568 30.4964 30.1334 30.4178 30.2254 30.4178H30.3786C30.4706 30.4178 30.5472 30.4964 30.5472 30.5909V30.7639C30.5472 30.8584 30.4706 30.937 30.3786 30.937H30.2254C30.1334 30.937 30.0568 30.8584 30.0568 30.7639V30.5909Z" fill="url(#paint17_linear_587_1224)"/>
<path d="M32.6624 27.9315C32.6624 27.9157 32.6624 27.9157 32.6624 27.9C32.6624 27.8371 32.7237 27.7741 32.785 27.7741H32.9382C33.0302 27.7741 33.0762 27.8371 33.1068 27.9315L33.8272 30.3706H33.8426L34.6089 27.9315C34.6396 27.8371 34.6702 27.7741 34.7775 27.7741H34.9308C34.9921 27.7741 35.0534 27.8371 35.0534 27.9C35.0534 27.9157 35.0534 27.9315 35.0381 27.9315L34.1184 30.7797C34.0878 30.8741 33.9958 30.9371 33.9039 30.9371H33.7506C33.6433 30.9371 33.5667 30.8741 33.536 30.7797L32.6624 27.9315Z" fill="url(#paint18_linear_587_1224)"/>
<path d="M36.3257 27.9472C36.3257 27.8528 36.4023 27.7741 36.4943 27.7741H36.5709C36.6629 27.7741 36.7395 27.8528 36.7395 27.9472V30.7797C36.7395 30.8741 36.6629 30.9528 36.5709 30.9528H36.4943C36.4023 30.9528 36.3257 30.8741 36.3257 30.7797V27.9472Z" fill="url(#paint19_linear_587_1224)"/>
<path d="M38.1802 30.2604C38.1802 30.1974 38.2108 30.1345 38.2875 30.103L38.3948 30.0715C38.4714 30.0401 38.5327 30.0873 38.5787 30.1817C38.7013 30.4807 38.9159 30.6223 39.2531 30.6223C39.6363 30.6223 39.8815 30.4335 39.8815 30.0873C39.8815 29.3005 38.2415 29.6781 38.2415 28.5609C38.2415 28.0258 38.64 27.7111 39.1918 27.7111C39.6669 27.7111 39.9735 27.9157 40.1421 28.2619C40.1574 28.2776 40.1574 28.2934 40.1574 28.3248C40.1574 28.3878 40.1267 28.4507 40.0501 28.4664L39.9581 28.4979C39.8815 28.5294 39.8202 28.4822 39.7589 28.3878C39.6363 28.1675 39.4677 28.0573 39.1764 28.0573C38.8392 28.0573 38.594 28.2304 38.594 28.5451C38.594 29.269 40.2647 28.9228 40.2647 30.0558C40.2647 30.6695 39.8355 30.9842 39.2224 30.9842C38.7013 30.9842 38.3794 30.7796 38.1802 30.3076C38.1802 30.3076 38.1802 30.2918 38.1802 30.2604Z" fill="url(#paint20_linear_587_1224)"/>
<path d="M41.7208 27.9472C41.7208 27.8528 41.7975 27.7741 41.8894 27.7741H41.9661C42.058 27.7741 42.1347 27.8528 42.1347 27.9472V30.7797C42.1347 30.8741 42.058 30.9528 41.9661 30.9528H41.8894C41.7975 30.9528 41.7208 30.8741 41.7208 30.7797V27.9472Z" fill="url(#paint21_linear_587_1224)"/>
<path d="M43.5907 29.3635C43.5907 28.4193 44.0199 27.7269 44.8475 27.7269C45.6752 27.7269 46.1044 28.4193 46.1044 29.3635C46.1044 30.3706 45.6292 31 44.8475 31C44.0658 31 43.5907 30.3706 43.5907 29.3635ZM45.7059 29.3635C45.7059 28.5452 45.384 28.0731 44.8475 28.0731C44.3264 28.0731 43.9892 28.5452 43.9892 29.3635C43.9892 30.166 44.3264 30.6381 44.8475 30.6381C45.384 30.6381 45.7059 30.166 45.7059 29.3635Z" fill="url(#paint22_linear_587_1224)"/>
<path d="M47.5605 27.9472C47.5605 27.8527 47.6371 27.7741 47.7291 27.7741H47.9897C48.0969 27.7741 48.1889 27.837 48.2349 27.9157L49.4917 30.1659H49.5071V27.9314C49.5071 27.837 49.5837 27.7583 49.6757 27.7583H49.737C49.8289 27.7583 49.9056 27.837 49.9056 27.9314V30.7639C49.9056 30.8583 49.8289 30.937 49.737 30.937H49.599C49.4917 30.937 49.4457 30.8741 49.3998 30.7954L47.959 28.2776H47.9437V30.7639C47.9437 30.8583 47.867 30.937 47.7751 30.937H47.7138C47.6218 30.937 47.5452 30.8583 47.5452 30.7639L47.5605 27.9472Z" fill="url(#paint23_linear_587_1224)"/>
<path d="M51.4382 30.5909C51.4382 30.4964 51.5149 30.4178 51.6068 30.4178H51.7601C51.8521 30.4178 51.9287 30.4964 51.9287 30.5909V30.7639C51.9287 30.8584 51.8521 30.937 51.7601 30.937H51.6068C51.5149 30.937 51.4382 30.8584 51.4382 30.7639V30.5909Z" fill="url(#paint24_linear_587_1224)"/>
<path d="M54.4578 29.3477C54.4578 28.3249 54.9329 27.7269 55.6686 27.7269C56.1897 27.7269 56.5269 27.9472 56.7109 28.5137C56.7109 28.5294 56.7109 28.5452 56.7109 28.5609C56.7109 28.6239 56.6649 28.6868 56.5883 28.7025L56.5269 28.7183C56.3737 28.7497 56.343 28.6868 56.3124 28.5924C56.1744 28.2462 55.9598 28.1046 55.6533 28.1046C55.1628 28.1046 54.8563 28.5766 54.8563 29.3477C54.8563 30.1817 55.1168 30.6381 55.6533 30.6381C55.9905 30.6381 56.2204 30.4807 56.3583 30.103C56.389 30.0244 56.435 29.9614 56.5729 29.9772L56.6342 29.9929C56.6955 30.0086 56.7569 30.0716 56.7569 30.1345C56.7569 30.1503 56.7569 30.166 56.7415 30.1817C56.5423 30.7954 56.1438 31 55.638 31C54.8409 31 54.4578 30.3706 54.4578 29.3477Z" fill="url(#paint25_linear_587_1224)"/>
<path d="M58.213 27.9472C58.213 27.8528 58.2896 27.7741 58.3816 27.7741H59.1786C59.9756 27.7741 60.3282 28.0731 60.3282 28.6553C60.3282 29.0959 60.0983 29.3477 59.7304 29.4736L60.3895 30.7954C60.4048 30.8112 60.4048 30.8269 60.4048 30.8426C60.4048 30.9056 60.3588 30.9528 60.2975 30.9528H60.1136C60.0063 30.9528 59.9603 30.8898 59.9143 30.7954L59.3319 29.5838H58.6268V30.7797C58.6268 30.8741 58.5502 30.9528 58.4582 30.9528H58.3816C58.2896 30.9528 58.213 30.8741 58.213 30.7797V27.9472ZM59.1786 29.2061C59.4392 29.2061 59.899 29.1589 59.899 28.6711C59.899 28.199 59.5158 28.136 59.194 28.136H58.6115V29.2061H59.1786Z" fill="url(#paint26_linear_587_1224)"/>
<path d="M61.8762 27.9472C61.8762 27.8528 61.9529 27.7741 62.0448 27.7741H63.5775C63.6695 27.7741 63.7461 27.8371 63.7461 27.9157V27.9944C63.7461 28.0888 63.6695 28.136 63.5775 28.136H62.2901V29.1117H63.1637C63.2557 29.1117 63.3323 29.1746 63.3323 29.2533V29.3162C63.3323 29.4107 63.2557 29.4579 63.1637 29.4579H62.2901V30.5437H63.6389C63.7308 30.5437 63.8075 30.6066 63.8075 30.6853V30.764C63.8075 30.8584 63.7308 30.9056 63.6389 30.9056H62.0448C61.9529 30.9056 61.8762 30.8269 61.8762 30.7325V27.9472Z" fill="url(#paint27_linear_587_1224)"/>
<path d="M64.911 30.7797L65.7693 27.9315C65.7999 27.8371 65.8919 27.7741 65.9839 27.7741H66.2444C66.3364 27.7741 66.4284 27.8371 66.459 27.9315L67.3173 30.7797C67.3173 30.7954 67.3173 30.7954 67.3173 30.8112C67.3173 30.8741 67.256 30.9371 67.1947 30.9371H67.0414C66.9495 30.9371 66.9035 30.8741 66.8728 30.7797L66.6429 29.9929H65.5394L65.3095 30.7797C65.2788 30.8741 65.2328 30.9371 65.1409 30.9371H65.0182C64.9569 30.9371 64.8956 30.8741 64.8956 30.8112C64.911 30.8112 64.911 30.7954 64.911 30.7797ZM66.5663 29.631L66.1218 28.136H66.1065L65.662 29.631H66.5663Z" fill="url(#paint28_linear_587_1224)"/>
<path d="M69.0646 28.136H68.3443C68.2523 28.136 68.1757 28.0731 68.1757 27.9944V27.9157C68.1757 27.8213 68.2523 27.7741 68.3443 27.7741H70.1989C70.2908 27.7741 70.3675 27.8371 70.3675 27.9157V27.9944C70.3675 28.0888 70.2908 28.136 70.1989 28.136H69.4785V30.764C69.4785 30.8584 69.4018 30.9371 69.3099 30.9371H69.2332C69.1413 30.9371 69.0646 30.8584 69.0646 30.764V28.136Z" fill="url(#paint29_linear_587_1224)"/>
<path d="M71.7316 27.9472C71.7316 27.8528 71.8082 27.7741 71.9002 27.7741H71.9768C72.0688 27.7741 72.1454 27.8528 72.1454 27.9472V30.7797C72.1454 30.8741 72.0688 30.9528 71.9768 30.9528H71.9002C71.8082 30.9528 71.7316 30.8741 71.7316 30.7797V27.9472Z" fill="url(#paint30_linear_587_1224)"/>
<path d="M73.6016 29.3635C73.6016 28.4193 74.0307 27.7269 74.8737 27.7269C75.7014 27.7269 76.1306 28.4193 76.1306 29.3635C76.1306 30.3706 75.6554 31 74.8737 31C74.0614 31 73.6016 30.3706 73.6016 29.3635ZM75.7167 29.3635C75.7167 28.5452 75.3795 28.0731 74.8584 28.0731C74.3219 28.0731 74.0001 28.5452 74.0001 29.3635C74.0001 30.166 74.3373 30.6381 74.8584 30.6381C75.3949 30.6381 75.7167 30.166 75.7167 29.3635Z" fill="url(#paint31_linear_587_1224)"/>
<path d="M77.5713 27.9472C77.5713 27.8527 77.6479 27.7741 77.7399 27.7741H78.0005C78.1077 27.7741 78.1997 27.837 78.2457 27.9157L79.5025 30.1659H79.5178V27.9314C79.5178 27.837 79.5945 27.7583 79.6864 27.7583H79.7478C79.8397 27.7583 79.9164 27.837 79.9164 27.9314V30.7639C79.9164 30.8583 79.8397 30.937 79.7478 30.937H79.6251C79.5178 30.937 79.4719 30.8741 79.4259 30.7954L77.9851 28.2776H77.9698V30.7639C77.9698 30.8583 77.8932 30.937 77.8012 30.937H77.7399C77.6479 30.937 77.5713 30.8583 77.5713 30.7639V27.9472Z" fill="url(#paint32_linear_587_1224)"/>
<path d="M81.4491 30.5909C81.4491 30.4964 81.5257 30.4178 81.6177 30.4178H81.771C81.8629 30.4178 81.9396 30.4964 81.9396 30.5909V30.7639C81.9396 30.8584 81.8629 30.937 81.771 30.937H81.6177C81.5257 30.937 81.4491 30.8584 81.4491 30.7639V30.5909Z" fill="url(#paint33_linear_587_1224)"/>
<path d="M15.8024 9.67766C15.5725 9.67766 15.3579 9.70913 15.1587 9.78781C15.5112 9.50456 15.7718 9.09543 15.8791 8.62334C15.6798 8.90659 15.3579 9.1269 14.9901 9.1269C14.4077 9.1269 13.9478 8.62334 13.9478 8.05685C13.9478 7.45888 14.4077 6.95532 14.9901 6.95532C15.2507 6.95532 15.4959 7.06548 15.6951 7.22284C15.3579 6.54619 14.6989 6.10558 13.9172 6.10558C13.1202 6.10558 12.4458 6.57766 12.1086 7.25431C12.1239 7.17563 12.1239 7.09695 12.1239 7.00253C12.1239 6.60913 12.0166 6.2472 11.8173 5.93248C11.8327 5.99542 11.8327 6.05837 11.8327 6.13705C11.8327 6.73502 11.3729 7.2071 10.7904 7.2071C10.208 7.2071 9.74817 6.73502 9.74817 6.13705C9.74817 5.57055 10.1773 5.08273 10.7444 5.067C10.5452 4.98832 10.3459 4.95685 10.116 4.95685C8.99713 4.95685 8.10815 5.88528 8.10815 7.01827C8.10815 7.23858 8.13881 7.44314 8.20011 7.64771C7.9089 7.30152 7.52571 7.03401 7.0659 6.92385C7.35711 7.12842 7.55637 7.44314 7.55637 7.85228C7.55637 8.43451 7.0659 8.92233 6.51411 8.92233C5.93168 8.92233 5.47186 8.41878 5.47186 7.85228C5.47186 7.52182 5.60981 7.23857 5.80906 7.034C5.08868 7.34872 4.59821 8.08832 4.59821 8.93806C4.59821 9.75634 5.0427 10.4487 5.7171 10.7792C5.64046 10.7634 5.56382 10.7634 5.48719 10.7634C5.08868 10.7634 4.7055 10.8893 4.39895 11.0939C4.49092 11.0624 4.56755 11.0624 4.65952 11.0624C5.22662 11.0624 5.70177 11.5345 5.70177 12.1325C5.70177 12.7305 5.2113 13.2025 4.65952 13.2025C4.07708 13.2025 3.61726 12.7305 3.61726 12.1325C3.61726 12.0695 3.63259 12.0381 3.63259 12.0066C3.50997 12.2584 3.46399 12.5416 3.46399 12.8249C3.46399 13.9736 4.3683 14.8863 5.47186 14.8863C5.70177 14.8863 5.91635 14.8548 6.11561 14.7761C5.73242 15.0751 5.45653 15.5157 5.36457 16.0193C5.53317 15.6574 5.8857 15.4371 6.29953 15.4371C6.86664 15.4371 7.34179 15.9091 7.34179 16.5071C7.34179 17.0893 6.85132 17.5772 6.29953 17.5772C5.96233 17.5772 5.67112 17.4041 5.47186 17.1365C5.77841 17.9076 6.49879 18.4426 7.35712 18.4426C8.13881 18.4426 8.8132 17.9863 9.16573 17.2939C9.1504 17.3726 9.1504 17.4513 9.1504 17.5299C9.1504 17.9706 9.27302 18.364 9.50293 18.7101C9.47228 18.6 9.44162 18.4898 9.44162 18.3797C9.44162 17.7817 9.93209 17.3096 10.4839 17.3096C11.0663 17.3096 11.5261 17.7817 11.5261 18.3797C11.5261 18.9619 11.0663 19.4497 10.4839 19.4497C10.4532 19.4497 10.4226 19.434 10.4072 19.434C10.6371 19.5284 10.8977 19.5756 11.1583 19.5756C12.2772 19.5756 13.1661 18.6472 13.1661 17.5142C13.1661 17.2624 13.1202 17.0264 13.0435 16.8061H13.0589C13.3501 17.2152 13.7946 17.4985 14.285 17.5929C13.9632 17.4198 13.7179 17.0579 13.7179 16.6487C13.7179 16.0665 14.2084 15.5787 14.7602 15.5787C15.3426 15.5787 15.8024 16.0822 15.8024 16.6487C15.8024 16.9477 15.6951 17.231 15.4806 17.4198C16.155 17.0893 16.6301 16.3812 16.6301 15.5629C16.6301 14.7447 16.155 14.0208 15.4652 13.7061C15.5725 13.7218 15.6645 13.7376 15.7718 13.7376C16.1703 13.7376 16.5688 13.6274 16.8907 13.3914C16.7987 13.4228 16.7221 13.4228 16.6301 13.4228C16.0477 13.4228 15.5879 12.9193 15.5879 12.3528C15.5879 11.7548 16.0477 11.2827 16.6301 11.2827C17.1972 11.2827 17.657 11.7233 17.6724 12.3213C17.749 12.1167 17.7797 11.9122 17.7797 11.6761C17.795 10.6061 16.906 9.67766 15.8024 9.67766ZM14.9594 13.6274C14.8521 13.6117 14.7602 13.5959 14.6529 13.5959C13.5647 13.5959 12.645 14.5086 12.645 15.6416C12.645 15.8934 12.691 16.1294 12.7676 16.334C12.3998 15.8305 11.8173 15.5 11.1429 15.5C10.3613 15.5 9.68686 15.9563 9.33433 16.6487C9.34966 16.57 9.34966 16.4914 9.34966 16.4127C9.34966 15.264 8.44535 14.3513 7.34179 14.3513C7.12721 14.3513 6.91262 14.3827 6.71337 14.4614C7.18851 14.0838 7.47973 13.5015 7.47973 12.8406C7.47973 12.0223 7.03524 11.3299 6.36084 10.9838C6.43748 10.9995 6.51411 10.9995 6.59075 10.9995C7.70964 10.9995 8.62928 10.0868 8.62928 8.93806C8.62928 8.71776 8.59862 8.51319 8.53731 8.30862C8.90517 8.76497 9.47228 9.07969 10.1007 9.07969C10.8824 9.07969 11.5721 8.62334 11.9093 7.93096C11.894 8.00964 11.894 8.08832 11.894 8.167C11.894 9.31573 12.7983 10.2284 13.9019 10.2284C14.1318 10.2284 14.3463 10.1969 14.5609 10.1183C14.0858 10.4959 13.7792 11.0939 13.7792 11.7548C13.7792 12.5888 14.2697 13.297 14.9594 13.6274Z" fill="url(#paint34_linear_587_1224)"/>
<defs>
<linearGradient id="paint0_linear_587_1224" x1="24.4995" y1="0.0585022" x2="24.4995" y2="24.438" gradientUnits="userSpaceOnUse">
<stop stop-color="white"/>
<stop offset="1" stop-color="#999999"/>
</linearGradient>
<linearGradient id="paint1_linear_587_1224" x1="55.5153" y1="0" x2="55.5153" y2="10.433" gradientUnits="userSpaceOnUse">
<stop stop-color="white"/>
<stop offset="1" stop-color="#999999"/>
</linearGradient>
<linearGradient id="paint2_linear_587_1224" x1="64.5669" y1="2.86392" x2="64.5669" y2="13.1238" gradientUnits="userSpaceOnUse">
<stop stop-color="white"/>
<stop offset="1" stop-color="#999999"/>
</linearGradient>
<linearGradient id="paint3_linear_587_1224" x1="70.6357" y1="2.68558" x2="70.6357" y2="10.4015" gradientUnits="userSpaceOnUse">
<stop stop-color="white"/>
<stop offset="1" stop-color="#999999"/>
</linearGradient>
<linearGradient id="paint4_linear_587_1224" x1="75.5941" y1="0.377594" x2="75.5941" y2="10.5431" gradientUnits="userSpaceOnUse">
<stop stop-color="white"/>
<stop offset="1" stop-color="#999999"/>
</linearGradient>
<linearGradient id="paint5_linear_587_1224" x1="81.9089" y1="0" x2="81.9089" y2="10.433" gradientUnits="userSpaceOnUse">
<stop stop-color="white"/>
<stop offset="1" stop-color="#999999"/>
</linearGradient>
<linearGradient id="paint6_linear_587_1224" x1="88.9085" y1="2.67505" x2="88.9085" y2="10.5431" gradientUnits="userSpaceOnUse">
<stop stop-color="white"/>
<stop offset="1" stop-color="#999999"/>
</linearGradient>
<linearGradient id="paint7_linear_587_1224" x1="54.2585" y1="12.2112" x2="54.2585" y2="22.6442" gradientUnits="userSpaceOnUse">
<stop stop-color="white"/>
<stop offset="1" stop-color="#999999"/>
</linearGradient>
<linearGradient id="paint8_linear_587_1224" x1="61.562" y1="14.9178" x2="61.562" y2="22.833" gradientUnits="userSpaceOnUse">
<stop stop-color="white"/>
<stop offset="1" stop-color="#999999"/>
</linearGradient>
<linearGradient id="paint9_linear_587_1224" x1="69.057" y1="14.9178" x2="69.057" y2="22.833" gradientUnits="userSpaceOnUse">
<stop stop-color="white"/>
<stop offset="1" stop-color="#999999"/>
</linearGradient>
<linearGradient id="paint10_linear_587_1224" x1="74.0997" y1="12.2112" x2="74.0997" y2="22.6442" gradientUnits="userSpaceOnUse">
<stop stop-color="white"/>
<stop offset="1" stop-color="#999999"/>
</linearGradient>
<linearGradient id="paint11_linear_587_1224" x1="78.6748" y1="14.9335" x2="78.6748" y2="22.8487" gradientUnits="userSpaceOnUse">
<stop stop-color="white"/>
<stop offset="1" stop-color="#999999"/>
</linearGradient>
<linearGradient id="paint12_linear_587_1224" x1="13.6872" y1="27.7741" x2="13.6872" y2="30.9371" gradientUnits="userSpaceOnUse">
<stop stop-color="white"/>
<stop offset="1" stop-color="#999999"/>
</linearGradient>
<linearGradient id="paint13_linear_587_1224" x1="17.5804" y1="27.7741" x2="17.5804" y2="30.9371" gradientUnits="userSpaceOnUse">
<stop stop-color="white"/>
<stop offset="1" stop-color="#999999"/>
</linearGradient>
<linearGradient id="paint14_linear_587_1224" x1="20.7454" y1="27.7741" x2="20.7454" y2="30.9371" gradientUnits="userSpaceOnUse">
<stop stop-color="white"/>
<stop offset="1" stop-color="#999999"/>
</linearGradient>
<linearGradient id="paint15_linear_587_1224" x1="24.1558" y1="27.7741" x2="24.1558" y2="30.9056" gradientUnits="userSpaceOnUse">
<stop stop-color="white"/>
<stop offset="1" stop-color="#999999"/>
</linearGradient>
<linearGradient id="paint16_linear_587_1224" x1="27.589" y1="27.7741" x2="27.589" y2="30.9528" gradientUnits="userSpaceOnUse">
<stop stop-color="white"/>
<stop offset="1" stop-color="#999999"/>
</linearGradient>
<linearGradient id="paint17_linear_587_1224" x1="30.302" y1="30.4178" x2="30.302" y2="30.937" gradientUnits="userSpaceOnUse">
<stop stop-color="white"/>
<stop offset="1" stop-color="#999999"/>
</linearGradient>
<linearGradient id="paint18_linear_587_1224" x1="33.8579" y1="27.7741" x2="33.8579" y2="30.9371" gradientUnits="userSpaceOnUse">
<stop stop-color="white"/>
<stop offset="1" stop-color="#999999"/>
</linearGradient>
<linearGradient id="paint19_linear_587_1224" x1="36.5326" y1="27.7741" x2="36.5326" y2="30.9528" gradientUnits="userSpaceOnUse">
<stop stop-color="white"/>
<stop offset="1" stop-color="#999999"/>
</linearGradient>
<linearGradient id="paint20_linear_587_1224" x1="39.2224" y1="27.7111" x2="39.2224" y2="30.9842" gradientUnits="userSpaceOnUse">
<stop stop-color="white"/>
<stop offset="1" stop-color="#999999"/>
</linearGradient>
<linearGradient id="paint21_linear_587_1224" x1="41.9277" y1="27.7741" x2="41.9277" y2="30.9528" gradientUnits="userSpaceOnUse">
<stop stop-color="white"/>
<stop offset="1" stop-color="#999999"/>
</linearGradient>
<linearGradient id="paint22_linear_587_1224" x1="44.8475" y1="27.7269" x2="44.8475" y2="31" gradientUnits="userSpaceOnUse">
<stop stop-color="white"/>
<stop offset="1" stop-color="#999999"/>
</linearGradient>
<linearGradient id="paint23_linear_587_1224" x1="48.7254" y1="27.7583" x2="48.7254" y2="30.937" gradientUnits="userSpaceOnUse">
<stop stop-color="white"/>
<stop offset="1" stop-color="#999999"/>
</linearGradient>
<linearGradient id="paint24_linear_587_1224" x1="51.6835" y1="30.4178" x2="51.6835" y2="30.937" gradientUnits="userSpaceOnUse">
<stop stop-color="white"/>
<stop offset="1" stop-color="#999999"/>
</linearGradient>
<linearGradient id="paint25_linear_587_1224" x1="55.6073" y1="27.7269" x2="55.6073" y2="31" gradientUnits="userSpaceOnUse">
<stop stop-color="white"/>
<stop offset="1" stop-color="#999999"/>
</linearGradient>
<linearGradient id="paint26_linear_587_1224" x1="59.3089" y1="27.7741" x2="59.3089" y2="30.9528" gradientUnits="userSpaceOnUse">
<stop stop-color="white"/>
<stop offset="1" stop-color="#999999"/>
</linearGradient>
<linearGradient id="paint27_linear_587_1224" x1="62.8418" y1="27.7741" x2="62.8418" y2="30.9056" gradientUnits="userSpaceOnUse">
<stop stop-color="white"/>
<stop offset="1" stop-color="#999999"/>
</linearGradient>
<linearGradient id="paint28_linear_587_1224" x1="66.1065" y1="27.7741" x2="66.1065" y2="30.9371" gradientUnits="userSpaceOnUse">
<stop stop-color="white"/>
<stop offset="1" stop-color="#999999"/>
</linearGradient>
<linearGradient id="paint29_linear_587_1224" x1="69.2716" y1="27.7741" x2="69.2716" y2="30.9371" gradientUnits="userSpaceOnUse">
<stop stop-color="white"/>
<stop offset="1" stop-color="#999999"/>
</linearGradient>
<linearGradient id="paint30_linear_587_1224" x1="71.9385" y1="27.7741" x2="71.9385" y2="30.9528" gradientUnits="userSpaceOnUse">
<stop stop-color="white"/>
<stop offset="1" stop-color="#999999"/>
</linearGradient>
<linearGradient id="paint31_linear_587_1224" x1="74.8661" y1="27.7269" x2="74.8661" y2="31" gradientUnits="userSpaceOnUse">
<stop stop-color="white"/>
<stop offset="1" stop-color="#999999"/>
</linearGradient>
<linearGradient id="paint32_linear_587_1224" x1="78.7438" y1="27.7583" x2="78.7438" y2="30.937" gradientUnits="userSpaceOnUse">
<stop stop-color="white"/>
<stop offset="1" stop-color="#999999"/>
</linearGradient>
<linearGradient id="paint33_linear_587_1224" x1="81.6943" y1="30.4178" x2="81.6943" y2="30.937" gradientUnits="userSpaceOnUse">
<stop stop-color="white"/>
<stop offset="1" stop-color="#999999"/>
</linearGradient>
<linearGradient id="paint34_linear_587_1224" x1="10.6219" y1="4.95685" x2="10.6219" y2="19.5756" gradientUnits="userSpaceOnUse">
<stop stop-color="white"/>
<stop offset="1" stop-color="#999999"/>
</linearGradient>
</defs>
</svg>
