<svg width="470" height="155" viewBox="0 0 470 155" fill="none" xmlns="http://www.w3.org/2000/svg">
<path d="M250.176 104.881V109.444C250.176 112.198 248.532 113.142 246.496 113.142H243.05C241.015 113.142 239.37 112.277 239.37 109.444V105.117C239.37 105.117 242.111 51.5357 211.338 27.9316C165.14 -7.55312 118.237 21.5585 116.827 22.5027C117.453 22.8174 118.158 23.2108 118.785 23.5255C119.881 24.0763 120.82 24.7057 121.917 25.3352C125.988 27.8529 129.825 30.9215 133.036 34.5408L134.21 35.8783L135.306 37.2946C136.011 38.3174 136.716 39.3402 137.342 40.3631C138.595 42.4088 139.691 44.6905 140.474 46.9722C142.119 51.6143 142.667 56.5712 142.197 61.4494C141.962 63.8885 141.492 66.2489 140.788 68.688L140.239 70.4189L139.613 72.1499L138.987 73.8022L138.204 75.5331C136.168 79.8605 133.349 83.9519 130.217 87.4925C129.434 88.358 128.651 89.3022 127.789 90.1677L125.284 92.6854L122.621 95.1245L119.959 97.4062C116.201 100.396 112.286 103.071 108.136 105.51L105.003 107.241L101.871 108.815C99.6789 109.916 97.5647 110.861 95.3722 111.805C90.9873 113.693 86.5241 115.267 81.9042 116.683C80.808 116.998 79.6335 117.312 78.4589 117.706C77.3627 118.02 76.1882 118.335 75.0136 118.571C72.6646 119.122 70.3938 119.594 68.0447 120.066C63.4249 120.932 58.6484 121.561 53.872 121.876L50.2701 122.112C49.6437 122.19 49.0173 122.112 48.4691 122.19H46.6682H44.9455L43.1446 122.112L41.4219 122.033L39.621 121.876L37.82 121.718L36.0974 121.561C34.9228 121.404 33.7483 121.246 32.5738 121.089C31.3209 120.932 30.1464 120.696 28.9719 120.46C27.7973 120.223 26.6228 119.909 25.4483 119.673L22.003 118.807C20.8284 118.493 19.6539 118.178 18.4794 117.784C16.2086 116.998 13.9378 116.053 11.7453 114.873C7.36042 112.591 3.4453 109.366 0.391512 105.353C0.234907 105.117 0.0783023 104.802 0 104.487C0.704721 105.038 1.40944 105.589 2.19247 106.14C2.81888 106.533 3.52361 107.005 4.22833 107.477C4.93305 107.871 5.71607 108.343 6.42079 108.736C6.8123 108.894 7.20381 109.13 7.51702 109.366C7.90854 109.523 8.30005 109.759 8.76986 109.916C9.55289 110.31 10.4142 110.703 11.2755 111.018C12.9982 111.647 14.7208 112.277 16.5218 112.828C17.3831 113.064 18.3227 113.3 19.1841 113.536C20.0454 113.772 20.985 114.008 21.8464 114.165C22.7077 114.322 23.6473 114.48 24.5086 114.559C28.4237 115.188 35.236 115.503 37.2719 115.581C38.7597 115.66 40.4823 115.739 42.0484 115.739H44.3974C45.1804 115.739 46.0418 115.66 46.8248 115.66L49.2522 115.503L49.8786 115.424L50.4267 115.345L51.6012 115.267C53.1673 115.109 54.8116 114.952 56.3777 114.795C59.5098 114.401 62.6419 113.929 65.774 113.3C68.9061 112.67 72.0381 111.962 75.0919 111.018L77.3627 110.388L79.6335 109.602C81.1995 109.051 82.609 108.579 84.175 108.028C87.1505 106.927 90.126 105.668 92.9449 104.33C95.842 102.993 98.6609 101.498 101.402 99.924C104.299 98.2717 106.804 96.6194 109.467 94.8098C111.972 93.0001 114.478 90.9544 116.827 88.8301C119.098 86.627 121.369 84.5027 123.326 82.0636C125.284 79.6245 127.163 77.1067 128.651 74.4316C128.964 73.8022 129.434 72.9367 129.747 72.3859C130.06 71.7565 130.373 70.9697 130.765 70.2616C130.921 69.8682 131.078 69.5534 131.156 69.2387L131.313 68.8453L131.47 68.2946C131.783 67.5078 131.939 66.7996 132.174 66.0915L132.722 63.9671L132.879 63.1803L132.957 62.4722L133.036 61.6854L133.114 60.9773C133.192 60.5052 133.192 60.0331 133.192 59.5611C133.271 59.089 133.192 58.5382 133.192 58.0661C133.192 57.122 133.114 56.0991 132.957 55.155C132.801 54.2108 132.644 53.2667 132.331 52.3225L132.253 52.0078L132.174 51.693L131.939 50.9062C131.783 50.3555 131.626 50.0408 131.391 49.5687C131 48.7032 130.608 47.8377 130.138 46.9722C129.669 46.1067 129.121 45.2413 128.572 44.4545L127.711 43.2743L126.85 42.1727L125.832 40.9925L124.814 39.9697C124.109 39.2616 123.326 38.6321 122.621 37.924C121.838 37.2946 121.055 36.6651 120.194 36.1144L118.941 35.2489L117.688 34.4621L114.948 32.8885L112.286 31.5509L109.467 30.292L107.039 29.3479C106.961 29.3479 106.961 29.3479 106.961 29.3479C106.569 29.1905 106.1 29.0331 105.708 28.9545C105.63 28.8758 105.552 28.8758 105.395 28.7971C105.238 28.7184 105.003 28.6397 104.847 28.4824C103.907 27.8529 103.124 26.9875 102.654 25.9646C102.341 25.3352 102.263 24.7057 102.185 23.9976C102.263 23.5255 102.498 22.9748 102.733 22.424C102.811 22.2667 102.889 22.1093 102.889 22.0306C104.612 19.0408 108.919 15.5002 114.478 12.4316C135.933 0.472244 175.006 -8.49729 211.808 14.8707C254.796 42.2514 250.176 104.881 250.176 104.881Z" fill="url(#paint0_linear_2016_2980)"/>
<path d="M258.241 3.38324C258.241 0.786792 259.729 0 261.608 0H268.734C270.77 0 272.336 0.708114 273.04 3.22588L283.376 39.0254H283.533L294.26 3.22588C295.043 0.708114 296.688 0 298.645 0H305.614C307.493 0 308.981 0.786792 308.981 3.38324V48.7817C308.981 51.3782 307.493 52.1649 305.614 52.1649H303.108C301.229 52.1649 299.741 51.3782 299.741 48.7817V12.5888H299.585L288.701 48.9391C288.153 50.8274 287.135 52.1649 285.099 52.1649H282.123C280.088 52.1649 279.07 50.8274 278.522 48.9391L267.559 12.5888H267.481V48.7817C267.481 51.3782 265.993 52.1649 264.114 52.1649H261.687C259.807 52.1649 258.32 51.3782 258.32 48.7817L258.241 3.38324Z" fill="url(#paint1_linear_2016_2980)"/>
<path d="M318.064 58.6955C322.449 58.6955 324.015 57.0432 325.424 52.7944L325.973 51.1422L313.679 17.5457C312.583 14.6345 314.227 14.3198 315.95 14.3198H319.552C321.588 14.3198 322.449 14.9493 323.232 17.5457L330.123 39.5762H330.279L336.935 17.5457C337.718 14.9493 338.579 14.3198 340.615 14.3198H343.826C345.47 14.3198 347.036 14.6345 346.096 17.5457L335.056 50.6701C331.219 62 328.4 65.6193 319.787 65.6193C318.69 65.6193 317.673 65.5406 316.733 65.4619C315.245 65.3046 313.836 65.0686 313.836 63.4163V60.5838C313.836 59.2462 314.697 58.6955 315.715 58.6955C316.263 58.6955 316.811 58.6955 318.064 58.6955Z" fill="url(#paint2_linear_2016_2980)"/>
<path d="M350.794 17.7819C350.794 15.1854 352.282 14.3986 354.161 14.3986H355.493C357.372 14.3986 358.86 15.1854 358.86 17.7819V21.2438C361.522 16.1296 364.811 13.8479 368.804 13.4544C370.292 13.2971 370.918 13.8479 370.918 15.1067V19.4341C370.918 21.1651 369.665 21.4798 368.491 21.7159C364.419 22.3453 361.913 24.627 359.486 29.1118V48.6245C359.486 51.2209 357.998 52.0077 356.119 52.0077H354.161C352.282 52.0077 350.794 51.2209 350.794 48.6245V17.7819Z" fill="url(#paint3_linear_2016_2980)"/>
<path d="M380.706 21.1651H378.513C376.713 21.1651 375.146 20.3783 375.146 18.5686V16.995C375.146 15.1854 376.634 14.3986 378.513 14.3986H380.706V5.27168C380.706 2.67523 382.194 1.88843 384.073 1.88843H386.109C387.988 1.88843 389.476 2.67523 389.476 5.27168V14.3986H393.861C395.662 14.3986 397.228 15.1854 397.228 16.995V18.5686C397.228 20.3783 395.74 21.1651 393.861 21.1651H389.476V41.0711C389.476 44.1397 390.572 45.3986 393.156 45.3986C393.861 45.3986 394.644 45.3199 395.583 45.3199C396.601 45.3199 397.228 45.6346 397.228 47.2869V50.0407C397.228 51.8503 395.975 52.3224 394.174 52.4798C392.999 52.6371 391.747 52.7158 390.572 52.7158C383.368 52.7158 380.628 50.1194 380.628 41.7006L380.706 21.1651Z" fill="url(#paint4_linear_2016_2980)"/>
<path d="M402.865 3.38324C402.865 0.786792 404.353 0 406.232 0H408.19C410.069 0 411.557 0.786792 411.557 3.38324V18.3325C415.707 14.8705 419.152 13.4543 423.224 13.4543C427.766 13.4543 430.741 15.0279 432.464 18.0964C433.795 20.1421 434.03 22.7386 434.03 27.9315V48.7817C434.03 51.3782 432.542 52.1649 430.663 52.1649H428.627C426.748 52.1649 425.26 51.3782 425.26 48.7817V27.9315C425.26 23.6041 424.164 20.9289 420.014 20.9289C417.351 20.9289 414.533 22.2665 411.714 25.099V48.7817C411.714 51.3782 410.226 52.1649 408.347 52.1649H406.389C404.51 52.1649 403.022 51.3782 403.022 48.7817L402.865 3.38324Z" fill="url(#paint5_linear_2016_2980)"/>
<path d="M444.601 32.1803C448.359 30.0559 454.154 28.7184 460.966 27.3808C461.357 22.2666 459.635 20.1422 454.78 20.1422C452.196 20.1422 450.16 20.8503 448.359 22.424C446.871 23.7615 446.167 25.0204 443.974 23.6042L442.643 22.7387C440.137 21.1651 440.842 19.6701 442.095 18.4113C445.305 14.792 449.925 13.3757 455.406 13.3757C465.116 13.3757 469.579 17.7031 469.579 26.594V45.1625L469.971 48.8605C470.127 50.6701 469.736 52.0077 466.839 52.0077H464.176C461.592 52.0077 461.436 50.5128 461.122 48.6244L460.966 47.759C457.364 50.8275 453.214 52.7158 448.594 52.7158C442.33 52.7158 438.415 48.7818 438.415 42.4874C438.337 37.7666 440.451 34.462 444.601 32.1803ZM452.039 46.1853C455.171 46.1853 458.46 44.6904 460.653 42.094V32.9671C455.406 34.0686 452.509 34.7767 450.16 36.1143C448.281 37.2158 447.341 39.1042 447.341 41.3859C447.341 44.3757 449.142 46.1853 452.039 46.1853Z" fill="url(#paint6_linear_2016_2980)"/>
<path d="M258.241 64.4389C258.241 61.8425 259.729 61.0557 261.608 61.0557H276.094C289.562 61.0557 296.14 66.3272 296.14 77.0277C296.14 88.2003 288.779 93.3145 275.938 93.3145H268.186V109.837C268.186 112.434 266.698 113.221 264.819 113.221H261.608C259.729 113.221 258.241 112.434 258.241 109.837V64.4389ZM276.407 85.1318C281.027 85.1318 286.195 83.8729 286.195 77.0277C286.195 71.9135 282.828 69.4744 276.799 69.4744H268.264V85.1318H276.407Z" fill="url(#paint7_linear_2016_2980)"/>
<path d="M314.541 74.5889C324.955 74.5889 331.297 81.9848 331.297 94.495C331.297 106.69 324.876 114.165 314.541 114.165C304.048 114.165 297.706 106.769 297.706 94.495C297.784 81.9848 304.126 74.5889 314.541 74.5889ZM322.449 94.495C322.449 87.099 320.178 81.5914 314.619 81.5914C308.981 81.5914 306.71 87.1777 306.71 94.495C306.71 102.048 309.138 107.162 314.619 107.162C320.022 107.162 322.449 102.048 322.449 94.495Z" fill="url(#paint8_linear_2016_2980)"/>
<path d="M352.83 74.5889C363.245 74.5889 369.587 81.9848 369.587 94.495C369.587 106.69 363.166 114.165 352.83 114.165C342.338 114.165 335.995 106.769 335.995 94.495C335.995 81.9848 342.338 74.5889 352.83 74.5889ZM360.661 94.495C360.661 87.099 358.39 81.5914 352.83 81.5914C347.193 81.5914 344.922 87.1777 344.922 94.495C344.922 102.048 347.349 107.162 352.83 107.162C358.233 107.162 360.661 102.048 360.661 94.495Z" fill="url(#paint9_linear_2016_2980)"/>
<path d="M374.207 64.4389C374.207 61.8425 375.695 61.0557 377.574 61.0557H379.531C381.411 61.0557 382.898 61.8425 382.898 64.4389V109.837C382.898 112.434 381.411 113.221 379.531 113.221H377.574C375.695 113.221 374.207 112.434 374.207 109.837V64.4389Z" fill="url(#paint10_linear_2016_2980)"/>
<path d="M389.006 104.723L390.337 103.858C392.53 102.363 393.469 103.464 394.879 104.802C396.68 106.69 398.637 107.556 401.691 107.556C405.606 107.556 407.72 105.825 407.72 103.071C407.72 94.967 387.831 100.396 387.831 85.8401C387.831 79.1523 393.391 74.6675 401.299 74.6675C406.389 74.6675 410.148 75.9264 413.045 78.9949C414.298 80.3325 415.002 81.906 412.888 83.1649L411.166 84.1878C409.208 85.368 408.973 84.8172 406.781 83.0076C405.215 81.67 403.414 81.2766 401.299 81.2766C398.089 81.2766 396.21 82.7715 396.21 85.368C396.21 92.6066 416.255 87.8071 416.255 102.442C416.255 109.995 410.304 114.244 401.534 114.244C395.662 114.244 391.825 112.749 388.536 109.208C387.362 107.792 387.048 105.982 389.006 104.723Z" fill="url(#paint11_linear_2016_2980)"/>
<path d="M61.1541 139.657C61.1541 139.579 61.1541 139.579 61.1541 139.5C61.1541 139.185 61.4673 138.871 61.7805 138.871H62.5635C63.0333 138.871 63.2682 139.185 63.3465 139.657L66.0871 151.223H66.1654L68.8277 139.657C68.906 139.185 69.2192 138.871 69.689 138.871H70.3154C70.7852 138.871 71.0984 139.185 71.1767 139.657L73.6824 151.145H73.7607L76.6579 139.657C76.7362 139.185 76.9711 138.871 77.4409 138.871H78.0674C78.3806 138.871 78.6938 139.185 78.6938 139.5C78.6938 139.579 78.6938 139.579 78.6938 139.657L74.9353 153.899C74.7787 154.371 74.4655 154.685 73.9956 154.685H73.3692C72.8994 154.685 72.5862 154.371 72.5079 153.899L69.9239 142.647H69.8456L67.1833 153.899C67.105 154.371 66.7918 154.685 66.2437 154.685H65.6173C65.1475 154.685 64.8343 154.371 64.6777 153.899L61.1541 139.657Z" fill="url(#paint12_linear_2016_2980)"/>
<path d="M83.7053 153.899L88.0902 139.657C88.2468 139.185 88.7166 138.871 89.1864 138.871H90.5176C90.9874 138.871 91.4572 139.185 91.6138 139.657L95.9987 153.899C95.9987 153.977 95.9987 153.977 95.9987 154.056C95.9987 154.371 95.6855 154.685 95.3723 154.685H94.5893C94.1195 154.685 93.8846 154.371 93.728 153.899L92.5534 149.965H86.9157L85.7411 153.899C85.5845 154.371 85.3496 154.685 84.8798 154.685H84.2534C83.9402 154.685 83.627 154.371 83.627 154.056C83.7053 154.056 83.7053 153.977 83.7053 153.899ZM92.0053 148.155L89.7345 140.68H89.6562L87.3855 148.155H92.0053Z" fill="url(#paint13_linear_2016_2980)"/>
<path d="M104.925 140.68H101.245C100.775 140.68 100.384 140.366 100.384 139.972V139.579C100.384 139.107 100.775 138.871 101.245 138.871H110.719C111.189 138.871 111.581 139.185 111.581 139.579V139.972C111.581 140.444 111.189 140.68 110.719 140.68H107.039V153.82C107.039 154.292 106.648 154.685 106.178 154.685H105.786C105.317 154.685 104.925 154.292 104.925 153.82V140.68Z" fill="url(#paint14_linear_2016_2980)"/>
<path d="M118.471 139.736C118.471 139.264 118.863 138.871 119.333 138.871H127.163C127.633 138.871 128.024 139.185 128.024 139.579V139.972C128.024 140.444 127.633 140.68 127.163 140.68H120.586V145.558H125.049C125.519 145.558 125.91 145.873 125.91 146.267V146.581C125.91 147.053 125.519 147.289 125.049 147.289H120.586V152.718H127.476C127.946 152.718 128.338 153.033 128.338 153.426V153.82C128.338 154.292 127.946 154.528 127.476 154.528H119.333C118.863 154.528 118.471 154.135 118.471 153.662V139.736Z" fill="url(#paint15_linear_2016_2980)"/>
<path d="M135.385 139.736C135.385 139.264 135.776 138.871 136.246 138.871H140.318C144.389 138.871 146.19 140.366 146.19 143.277C146.19 145.48 145.016 146.739 143.137 147.368L146.504 153.977C146.582 154.056 146.582 154.135 146.582 154.213C146.582 154.528 146.347 154.764 146.034 154.764H145.016C144.468 154.764 144.233 154.449 143.998 153.977L141.022 147.919H137.421V153.899C137.421 154.371 137.029 154.764 136.559 154.764H136.168C135.698 154.764 135.306 154.371 135.306 153.899L135.385 139.736ZM140.318 146.031C141.649 146.031 143.998 145.794 143.998 143.355C143.998 140.995 142.04 140.68 140.396 140.68H137.421V146.031H140.318Z" fill="url(#paint16_linear_2016_2980)"/>
<path d="M153.551 152.954C153.551 152.482 153.942 152.089 154.412 152.089H155.195C155.665 152.089 156.056 152.482 156.056 152.954V153.82C156.056 154.292 155.665 154.685 155.195 154.685H154.412C153.942 154.685 153.551 154.292 153.551 153.82V152.954Z" fill="url(#paint17_linear_2016_2980)"/>
<path d="M166.862 139.657C166.862 139.579 166.862 139.579 166.862 139.5C166.862 139.185 167.176 138.871 167.489 138.871H168.272C168.742 138.871 168.976 139.185 169.133 139.657L172.813 151.853H172.892L176.807 139.657C176.963 139.185 177.12 138.871 177.668 138.871H178.451C178.764 138.871 179.077 139.185 179.077 139.5C179.077 139.579 179.077 139.657 178.999 139.657L174.301 153.899C174.144 154.371 173.675 154.685 173.205 154.685H172.422C171.874 154.685 171.482 154.371 171.326 153.899L166.862 139.657Z" fill="url(#paint18_linear_2016_2980)"/>
<path d="M185.577 139.736C185.577 139.264 185.968 138.871 186.438 138.871H186.83C187.299 138.871 187.691 139.264 187.691 139.736V153.899C187.691 154.371 187.299 154.764 186.83 154.764H186.438C185.968 154.764 185.577 154.371 185.577 153.899V139.736Z" fill="url(#paint19_linear_2016_2980)"/>
<path d="M195.051 151.302C195.051 150.987 195.208 150.673 195.599 150.515L196.147 150.358C196.539 150.201 196.852 150.437 197.087 150.909C197.713 152.404 198.81 153.112 200.532 153.112C202.49 153.112 203.743 152.168 203.743 150.437C203.743 146.503 195.364 148.391 195.364 142.805C195.364 140.13 197.4 138.556 200.219 138.556C202.646 138.556 204.212 139.579 205.074 141.31C205.152 141.388 205.152 141.467 205.152 141.624C205.152 141.939 204.995 142.254 204.604 142.333L204.134 142.49C203.743 142.647 203.429 142.411 203.116 141.939C202.49 140.838 201.628 140.287 200.141 140.287C198.418 140.287 197.165 141.152 197.165 142.726C197.165 146.345 205.7 144.614 205.7 150.279C205.7 153.348 203.508 154.921 200.376 154.921C197.713 154.921 196.069 153.899 195.051 151.538C195.051 151.538 195.051 151.459 195.051 151.302Z" fill="url(#paint20_linear_2016_2980)"/>
<path d="M213.139 139.736C213.139 139.264 213.53 138.871 214 138.871H214.392C214.862 138.871 215.253 139.264 215.253 139.736V153.899C215.253 154.371 214.862 154.764 214.392 154.764H214C213.53 154.764 213.139 154.371 213.139 153.899V139.736Z" fill="url(#paint21_linear_2016_2980)"/>
<path d="M222.692 146.817C222.692 142.096 224.884 138.635 229.113 138.635C233.341 138.635 235.533 142.096 235.533 146.817C235.533 151.853 233.106 155 229.113 155C225.119 155 222.692 151.853 222.692 146.817ZM233.498 146.817C233.498 142.726 231.853 140.365 229.113 140.365C226.45 140.365 224.728 142.726 224.728 146.817C224.728 150.83 226.45 153.19 229.113 153.19C231.853 153.19 233.498 150.83 233.498 146.817Z" fill="url(#paint22_linear_2016_2980)"/>
<path d="M242.972 139.736C242.972 139.264 243.364 138.871 243.833 138.871H245.165C245.713 138.871 246.182 139.185 246.417 139.579L252.838 150.83H252.916V139.657C252.916 139.185 253.308 138.792 253.778 138.792H254.091C254.561 138.792 254.952 139.185 254.952 139.657V153.82C254.952 154.292 254.561 154.685 254.091 154.685H253.386C252.838 154.685 252.603 154.371 252.368 153.977L245.008 141.388H244.93V153.82C244.93 154.292 244.538 154.685 244.068 154.685H243.755C243.285 154.685 242.894 154.292 242.894 153.82L242.972 139.736Z" fill="url(#paint23_linear_2016_2980)"/>
<path d="M262.783 152.954C262.783 152.482 263.174 152.089 263.644 152.089H264.427C264.897 152.089 265.288 152.482 265.288 152.954V153.82C265.288 154.292 264.897 154.685 264.427 154.685H263.644C263.174 154.685 262.783 154.292 262.783 153.82V152.954Z" fill="url(#paint24_linear_2016_2980)"/>
<path d="M278.208 146.739C278.208 141.624 280.636 138.635 284.394 138.635C287.056 138.635 288.779 139.736 289.719 142.569C289.719 142.647 289.719 142.726 289.719 142.805C289.719 143.119 289.484 143.434 289.092 143.513L288.779 143.591C287.996 143.749 287.839 143.434 287.683 142.962C286.978 141.231 285.882 140.523 284.316 140.523C281.81 140.523 280.244 142.883 280.244 146.739C280.244 150.909 281.575 153.19 284.316 153.19C286.038 153.19 287.213 152.404 287.918 150.515C288.074 150.122 288.309 149.807 289.014 149.886L289.327 149.964C289.64 150.043 289.954 150.358 289.954 150.673C289.954 150.751 289.954 150.83 289.875 150.909C288.857 153.977 286.821 155 284.238 155C280.166 155 278.208 151.853 278.208 146.739Z" fill="url(#paint25_linear_2016_2980)"/>
<path d="M297.392 139.736C297.392 139.264 297.784 138.871 298.254 138.871H302.325C306.397 138.871 308.198 140.366 308.198 143.277C308.198 145.48 307.024 146.739 305.144 147.368L308.511 153.977C308.59 154.056 308.59 154.135 308.59 154.213C308.59 154.528 308.355 154.764 308.041 154.764H307.102C306.554 154.764 306.319 154.449 306.084 153.977L303.108 147.919H299.506V153.899C299.506 154.371 299.115 154.764 298.645 154.764H298.254C297.784 154.764 297.392 154.371 297.392 153.899V139.736ZM302.325 146.031C303.657 146.031 306.006 145.794 306.006 143.355C306.006 140.995 304.048 140.68 302.404 140.68H299.428V146.031H302.325Z" fill="url(#paint26_linear_2016_2980)"/>
<path d="M316.107 139.736C316.107 139.264 316.498 138.871 316.968 138.871H324.798C325.268 138.871 325.659 139.185 325.659 139.579V139.972C325.659 140.444 325.268 140.68 324.798 140.68H318.221V145.558H322.684C323.154 145.558 323.545 145.873 323.545 146.267V146.581C323.545 147.053 323.154 147.289 322.684 147.289H318.221V152.718H325.111C325.581 152.718 325.973 153.033 325.973 153.426V153.82C325.973 154.292 325.581 154.528 325.111 154.528H316.968C316.498 154.528 316.107 154.135 316.107 153.662V139.736Z" fill="url(#paint27_linear_2016_2980)"/>
<path d="M331.61 153.899L335.995 139.657C336.152 139.185 336.622 138.871 337.092 138.871H338.423C338.893 138.871 339.362 139.185 339.519 139.657L343.904 153.899C343.904 153.977 343.904 153.977 343.904 154.056C343.904 154.371 343.591 154.685 343.277 154.685H342.494C342.025 154.685 341.79 154.371 341.633 153.899L340.459 149.965H334.821L333.646 153.899C333.49 154.371 333.255 154.685 332.785 154.685H332.159C331.845 154.685 331.532 154.371 331.532 154.056C331.61 154.056 331.61 153.977 331.61 153.899ZM340.067 148.155L337.796 140.68H337.718L335.447 148.155H340.067Z" fill="url(#paint28_linear_2016_2980)"/>
<path d="M352.83 140.68H349.15C348.68 140.68 348.289 140.366 348.289 139.972V139.579C348.289 139.107 348.68 138.871 349.15 138.871H358.625C359.095 138.871 359.486 139.185 359.486 139.579V139.972C359.486 140.444 359.095 140.68 358.625 140.68H354.945V153.82C354.945 154.292 354.553 154.685 354.083 154.685H353.692C353.222 154.685 352.83 154.292 352.83 153.82V140.68Z" fill="url(#paint29_linear_2016_2980)"/>
<path d="M366.455 139.736C366.455 139.264 366.846 138.871 367.316 138.871H367.708C368.178 138.871 368.569 139.264 368.569 139.736V153.899C368.569 154.371 368.178 154.764 367.708 154.764H367.316C366.846 154.764 366.455 154.371 366.455 153.899V139.736Z" fill="url(#paint30_linear_2016_2980)"/>
<path d="M376.008 146.817C376.008 142.096 378.2 138.635 382.507 138.635C386.735 138.635 388.928 142.096 388.928 146.817C388.928 151.853 386.5 155 382.507 155C378.357 155 376.008 151.853 376.008 146.817ZM386.814 146.817C386.814 142.726 385.091 140.365 382.429 140.365C379.688 140.365 378.044 142.726 378.044 146.817C378.044 150.83 379.766 153.19 382.429 153.19C385.169 153.19 386.814 150.83 386.814 146.817Z" fill="url(#paint31_linear_2016_2980)"/>
<path d="M396.288 139.736C396.288 139.264 396.68 138.871 397.149 138.871H398.481C399.029 138.871 399.498 139.185 399.733 139.579L406.154 150.83H406.232V139.657C406.232 139.185 406.624 138.792 407.094 138.792H407.407C407.877 138.792 408.268 139.185 408.268 139.657V153.82C408.268 154.292 407.877 154.685 407.407 154.685H406.781C406.232 154.685 405.998 154.371 405.763 153.977L398.402 141.388H398.324V153.82C398.324 154.292 397.932 154.685 397.463 154.685H397.149C396.68 154.685 396.288 154.292 396.288 153.82V139.736Z" fill="url(#paint32_linear_2016_2980)"/>
<path d="M416.099 152.954C416.099 152.482 416.49 152.089 416.96 152.089H417.743C418.213 152.089 418.604 152.482 418.604 152.954V153.82C418.604 154.292 418.213 154.685 417.743 154.685H416.96C416.49 154.685 416.099 154.292 416.099 153.82V152.954Z" fill="url(#paint33_linear_2016_2980)"/>
<path d="M80.7297 48.3885C79.5551 48.3885 78.4589 48.5458 77.441 48.9392C79.2419 47.523 80.5731 45.4773 81.1212 43.1169C80.1033 44.5331 78.4589 45.6347 76.5797 45.6347C73.6042 45.6347 71.2551 43.1169 71.2551 40.2844C71.2551 37.2946 73.6042 34.7768 76.5797 34.7768C77.9108 34.7768 79.1636 35.3276 80.1816 36.1144C78.4589 32.7311 75.0919 30.5281 71.0985 30.5281C67.0268 30.5281 63.5815 32.8885 61.8588 36.2717C61.9371 35.8783 61.9371 35.4849 61.9371 35.0128C61.9371 33.0458 61.389 31.2362 60.3711 29.6626C60.4494 29.9773 60.4494 30.292 60.4494 30.6854C60.4494 33.6753 58.1003 36.0357 55.1248 36.0357C52.1493 36.0357 49.8003 33.6753 49.8003 30.6854C49.8003 27.853 51.9927 25.4139 54.8899 25.3352C53.872 24.9418 52.854 24.7844 51.6795 24.7844C45.9634 24.7844 41.4219 29.4266 41.4219 35.0915C41.4219 36.1931 41.5785 37.2159 41.8917 38.2387C40.404 36.5078 38.4464 35.1702 36.0973 34.6194C37.5851 35.6423 38.603 37.2159 38.603 39.2616C38.603 42.1727 36.0973 44.6118 33.2785 44.6118C30.303 44.6118 27.9539 42.0941 27.9539 39.2616C27.9539 37.6093 28.6586 36.193 29.6765 35.1702C25.9963 36.7438 23.4907 40.4418 23.4907 44.6905C23.4907 48.7819 25.7614 52.2438 29.2067 53.8961C28.8152 53.8174 28.4237 53.8174 28.0322 53.8174C25.9963 53.8174 24.0388 54.4468 22.4727 55.4697C22.9425 55.3123 23.3341 55.3123 23.8039 55.3123C26.7011 55.3123 29.1284 57.6727 29.1284 60.6626C29.1284 63.6524 26.6228 66.0128 23.8039 66.0128C20.8284 66.0128 18.4793 63.6524 18.4793 60.6626C18.4793 60.3479 18.5576 60.1905 18.5576 60.0331C17.9312 61.292 17.6963 62.7083 17.6963 64.1245C17.6963 69.8682 22.3161 74.4316 27.9539 74.4316C29.1284 74.4316 30.2247 74.2742 31.2426 73.8808C29.285 75.3758 27.8756 77.5788 27.4058 80.0966C28.2671 78.2869 30.0681 77.1854 32.1822 77.1854C35.0794 77.1854 37.5068 79.5458 37.5068 82.5357C37.5068 85.4468 35.0011 87.8859 32.1822 87.8859C30.4596 87.8859 28.9718 87.0204 27.9539 85.6829C29.5199 89.5382 33.2002 92.2133 37.5851 92.2133C41.5785 92.2133 45.0238 89.9316 46.8248 86.4697C46.7465 86.8631 46.7465 87.2565 46.7465 87.6499C46.7465 89.8529 47.3729 91.8199 48.5474 93.5509C48.3908 93.0001 48.2342 92.4494 48.2342 91.8986C48.2342 88.9088 50.7399 86.5484 53.5588 86.5484C56.5342 86.5484 58.8833 88.9088 58.8833 91.8986C58.8833 94.8098 56.5342 97.2489 53.5588 97.2489C53.4022 97.2489 53.2456 97.1702 53.1672 97.1702C54.3418 97.6423 55.6729 97.8783 57.0041 97.8783C62.7201 97.8783 67.2617 93.2362 67.2617 87.5712C67.2617 86.3123 67.0268 85.1321 66.6353 84.0306H66.7136C68.2013 86.0763 70.4721 87.4925 72.9777 87.9646C71.3334 87.0991 70.0806 85.2895 70.0806 83.2438C70.0806 80.3326 72.5862 77.8935 75.4051 77.8935C78.3806 77.8935 80.7297 80.4113 80.7297 83.2438C80.7297 84.7387 80.1816 86.1549 79.0853 87.0991C82.5306 85.4468 84.958 81.9062 84.958 77.8149C84.958 73.7235 82.5306 70.1042 79.007 68.5306C79.5551 68.6093 80.025 68.688 80.5731 68.688C82.6089 68.688 84.6448 68.1372 86.2891 66.957C85.8193 67.1144 85.4278 67.1143 84.958 67.1143C81.9825 67.1143 79.6334 64.5966 79.6334 61.7641C79.6334 58.7743 81.9825 56.4138 84.958 56.4138C87.8552 56.4138 90.2043 58.6169 90.2826 61.6067C90.6741 60.5839 90.8307 59.561 90.8307 58.3808C90.909 53.0306 86.3674 48.3885 80.7297 48.3885ZM76.423 68.1372C75.8749 68.0585 75.4051 67.9798 74.857 67.9798C69.2975 67.9798 64.5994 72.5433 64.5994 78.2083C64.5994 79.4671 64.8343 80.6473 65.2258 81.6702C63.3466 79.1524 60.3711 77.5001 56.9258 77.5001C52.9323 77.5001 49.487 79.7819 47.6861 83.2438C47.7644 82.8504 47.7644 82.457 47.7644 82.0636C47.7644 76.3199 43.1445 71.7565 37.5068 71.7565C36.4105 71.7565 35.3143 71.9138 34.2964 72.3072C36.7238 70.4189 38.2115 67.5078 38.2115 64.2032C38.2115 60.1118 35.9407 56.6499 32.4954 54.9189C32.8869 54.9976 33.2785 54.9976 33.67 54.9976C39.386 54.9976 44.0842 50.4341 44.0842 44.6905C44.0842 43.589 43.9276 42.5661 43.6144 41.5433C45.4936 43.825 48.3908 45.3986 51.6012 45.3986C55.5946 45.3986 59.1182 43.1169 60.8409 39.655C60.7626 40.0484 60.7626 40.4418 60.7626 40.8352C60.7626 46.5788 65.3824 51.1423 71.0202 51.1423C72.1947 51.1423 73.291 50.9849 74.3872 50.5915C71.9598 52.4798 70.3938 55.4697 70.3938 58.7742C70.3938 62.9443 72.8994 66.4849 76.423 68.1372Z" fill="url(#paint34_linear_2016_2980)"/>
<defs>
<linearGradient id="paint0_linear_2016_2980" x1="125.16" y1="0.292969" x2="125.16" y2="122.19" gradientUnits="userSpaceOnUse">
<stop stop-color="#00365F"/>
<stop offset="1" stop-color="#0070C5"/>
</linearGradient>
<linearGradient id="paint1_linear_2016_2980" x1="283.611" y1="0" x2="283.611" y2="52.1649" gradientUnits="userSpaceOnUse">
<stop stop-color="#00365F"/>
<stop offset="1" stop-color="#0070C5"/>
</linearGradient>
<linearGradient id="paint2_linear_2016_2980" x1="329.852" y1="14.3198" x2="329.852" y2="65.6193" gradientUnits="userSpaceOnUse">
<stop stop-color="#00365F"/>
<stop offset="1" stop-color="#0070C5"/>
</linearGradient>
<linearGradient id="paint3_linear_2016_2980" x1="360.856" y1="13.4282" x2="360.856" y2="52.0077" gradientUnits="userSpaceOnUse">
<stop stop-color="#00365F"/>
<stop offset="1" stop-color="#0070C5"/>
</linearGradient>
<linearGradient id="paint4_linear_2016_2980" x1="386.187" y1="1.88843" x2="386.187" y2="52.7158" gradientUnits="userSpaceOnUse">
<stop stop-color="#00365F"/>
<stop offset="1" stop-color="#0070C5"/>
</linearGradient>
<linearGradient id="paint5_linear_2016_2980" x1="418.448" y1="0" x2="418.448" y2="52.1649" gradientUnits="userSpaceOnUse">
<stop stop-color="#00365F"/>
<stop offset="1" stop-color="#0070C5"/>
</linearGradient>
<linearGradient id="paint6_linear_2016_2980" x1="454.206" y1="13.3757" x2="454.206" y2="52.7158" gradientUnits="userSpaceOnUse">
<stop stop-color="#00365F"/>
<stop offset="1" stop-color="#0070C5"/>
</linearGradient>
<linearGradient id="paint7_linear_2016_2980" x1="277.19" y1="61.0557" x2="277.19" y2="113.221" gradientUnits="userSpaceOnUse">
<stop stop-color="#00365F"/>
<stop offset="1" stop-color="#0070C5"/>
</linearGradient>
<linearGradient id="paint8_linear_2016_2980" x1="314.501" y1="74.5889" x2="314.501" y2="114.165" gradientUnits="userSpaceOnUse">
<stop stop-color="#00365F"/>
<stop offset="1" stop-color="#0070C5"/>
</linearGradient>
<linearGradient id="paint9_linear_2016_2980" x1="352.791" y1="74.5889" x2="352.791" y2="114.165" gradientUnits="userSpaceOnUse">
<stop stop-color="#00365F"/>
<stop offset="1" stop-color="#0070C5"/>
</linearGradient>
<linearGradient id="paint10_linear_2016_2980" x1="378.553" y1="61.0557" x2="378.553" y2="113.221" gradientUnits="userSpaceOnUse">
<stop stop-color="#00365F"/>
<stop offset="1" stop-color="#0070C5"/>
</linearGradient>
<linearGradient id="paint11_linear_2016_2980" x1="401.926" y1="74.6675" x2="401.926" y2="114.244" gradientUnits="userSpaceOnUse">
<stop stop-color="#00365F"/>
<stop offset="1" stop-color="#0070C5"/>
</linearGradient>
<linearGradient id="paint12_linear_2016_2980" x1="69.9239" y1="138.871" x2="69.9239" y2="154.685" gradientUnits="userSpaceOnUse">
<stop stop-color="#37B5C7"/>
<stop offset="1" stop-color="#1B5861"/>
</linearGradient>
<linearGradient id="paint13_linear_2016_2980" x1="89.8128" y1="138.871" x2="89.8128" y2="154.685" gradientUnits="userSpaceOnUse">
<stop stop-color="#37B5C7"/>
<stop offset="1" stop-color="#1B5861"/>
</linearGradient>
<linearGradient id="paint14_linear_2016_2980" x1="105.982" y1="138.871" x2="105.982" y2="154.685" gradientUnits="userSpaceOnUse">
<stop stop-color="#37B5C7"/>
<stop offset="1" stop-color="#1B5861"/>
</linearGradient>
<linearGradient id="paint15_linear_2016_2980" x1="123.404" y1="138.871" x2="123.404" y2="154.528" gradientUnits="userSpaceOnUse">
<stop stop-color="#37B5C7"/>
<stop offset="1" stop-color="#1B5861"/>
</linearGradient>
<linearGradient id="paint16_linear_2016_2980" x1="140.944" y1="138.871" x2="140.944" y2="154.764" gradientUnits="userSpaceOnUse">
<stop stop-color="#37B5C7"/>
<stop offset="1" stop-color="#1B5861"/>
</linearGradient>
<linearGradient id="paint17_linear_2016_2980" x1="154.804" y1="152.089" x2="154.804" y2="154.685" gradientUnits="userSpaceOnUse">
<stop stop-color="#37B5C7"/>
<stop offset="1" stop-color="#1B5861"/>
</linearGradient>
<linearGradient id="paint18_linear_2016_2980" x1="172.97" y1="138.871" x2="172.97" y2="154.685" gradientUnits="userSpaceOnUse">
<stop stop-color="#37B5C7"/>
<stop offset="1" stop-color="#1B5861"/>
</linearGradient>
<linearGradient id="paint19_linear_2016_2980" x1="186.634" y1="138.871" x2="186.634" y2="154.764" gradientUnits="userSpaceOnUse">
<stop stop-color="#37B5C7"/>
<stop offset="1" stop-color="#1B5861"/>
</linearGradient>
<linearGradient id="paint20_linear_2016_2980" x1="200.376" y1="138.556" x2="200.376" y2="154.921" gradientUnits="userSpaceOnUse">
<stop stop-color="#37B5C7"/>
<stop offset="1" stop-color="#1B5861"/>
</linearGradient>
<linearGradient id="paint21_linear_2016_2980" x1="214.196" y1="138.871" x2="214.196" y2="154.764" gradientUnits="userSpaceOnUse">
<stop stop-color="#37B5C7"/>
<stop offset="1" stop-color="#1B5861"/>
</linearGradient>
<linearGradient id="paint22_linear_2016_2980" x1="229.113" y1="138.635" x2="229.113" y2="155" gradientUnits="userSpaceOnUse">
<stop stop-color="#37B5C7"/>
<stop offset="1" stop-color="#1B5861"/>
</linearGradient>
<linearGradient id="paint23_linear_2016_2980" x1="248.923" y1="138.792" x2="248.923" y2="154.685" gradientUnits="userSpaceOnUse">
<stop stop-color="#37B5C7"/>
<stop offset="1" stop-color="#1B5861"/>
</linearGradient>
<linearGradient id="paint24_linear_2016_2980" x1="264.036" y1="152.089" x2="264.036" y2="154.685" gradientUnits="userSpaceOnUse">
<stop stop-color="#37B5C7"/>
<stop offset="1" stop-color="#1B5861"/>
</linearGradient>
<linearGradient id="paint25_linear_2016_2980" x1="284.081" y1="138.635" x2="284.081" y2="155" gradientUnits="userSpaceOnUse">
<stop stop-color="#37B5C7"/>
<stop offset="1" stop-color="#1B5861"/>
</linearGradient>
<linearGradient id="paint26_linear_2016_2980" x1="302.991" y1="138.871" x2="302.991" y2="154.764" gradientUnits="userSpaceOnUse">
<stop stop-color="#37B5C7"/>
<stop offset="1" stop-color="#1B5861"/>
</linearGradient>
<linearGradient id="paint27_linear_2016_2980" x1="321.04" y1="138.871" x2="321.04" y2="154.528" gradientUnits="userSpaceOnUse">
<stop stop-color="#37B5C7"/>
<stop offset="1" stop-color="#1B5861"/>
</linearGradient>
<linearGradient id="paint28_linear_2016_2980" x1="337.718" y1="138.871" x2="337.718" y2="154.685" gradientUnits="userSpaceOnUse">
<stop stop-color="#37B5C7"/>
<stop offset="1" stop-color="#1B5861"/>
</linearGradient>
<linearGradient id="paint29_linear_2016_2980" x1="353.887" y1="138.871" x2="353.887" y2="154.685" gradientUnits="userSpaceOnUse">
<stop stop-color="#37B5C7"/>
<stop offset="1" stop-color="#1B5861"/>
</linearGradient>
<linearGradient id="paint30_linear_2016_2980" x1="367.512" y1="138.871" x2="367.512" y2="154.764" gradientUnits="userSpaceOnUse">
<stop stop-color="#37B5C7"/>
<stop offset="1" stop-color="#1B5861"/>
</linearGradient>
<linearGradient id="paint31_linear_2016_2980" x1="382.468" y1="138.635" x2="382.468" y2="155" gradientUnits="userSpaceOnUse">
<stop stop-color="#37B5C7"/>
<stop offset="1" stop-color="#1B5861"/>
</linearGradient>
<linearGradient id="paint32_linear_2016_2980" x1="402.278" y1="138.792" x2="402.278" y2="154.685" gradientUnits="userSpaceOnUse">
<stop stop-color="#37B5C7"/>
<stop offset="1" stop-color="#1B5861"/>
</linearGradient>
<linearGradient id="paint33_linear_2016_2980" x1="417.351" y1="152.089" x2="417.351" y2="154.685" gradientUnits="userSpaceOnUse">
<stop stop-color="#37B5C7"/>
<stop offset="1" stop-color="#1B5861"/>
</linearGradient>
<linearGradient id="paint34_linear_2016_2980" x1="54.264" y1="24.7844" x2="54.264" y2="97.8783" gradientUnits="userSpaceOnUse">
<stop stop-color="#F1812E"/>
<stop offset="1" stop-color="#954F1B"/>
</linearGradient>
</defs>
</svg>
